<?xml version="1.0" encoding="UTF-8" standalone="no"?>
<!DOCTYPE svg PUBLIC "-//W3C//DTD SVG 1.1//EN"
 "http://www.w3.org/Graphics/SVG/1.1/DTD/svg11.dtd">
<!-- Generated by graphviz version 2.44.1 (20200629.0846)
 -->
<!-- Title: expr Pages: 1 -->
<svg width="1034pt" height="764pt"
 viewBox="0.00 0.00 1034.00 764.00" xmlns="http://www.w3.org/2000/svg" xmlns:xlink="http://www.w3.org/1999/xlink">
<g id="graph0" class="graph" transform="scale(1 1) rotate(0) translate(4 760)">
<title>expr</title>
<polygon fill="white" stroke="transparent" points="-4,4 -4,-760 1030,-760 1030,4 -4,4"/>
<!-- node0x7fba20704cb0 -->
<g id="node1" class="node">
<title>node0x7fba20704cb0</title>
<polygon fill="aliceblue" stroke="black" points="523,-732.44 550,-720 577,-732.44 576.97,-752.56 523.03,-752.56 523,-732.44"/>
<text text-anchor="middle" x="550" y="-734.3" font-family="Times,serif" font-size="14.00">+</text>
</g>
<!-- node0x7fba20704770 -->
<g id="node2" class="node">
<title>node0x7fba20704770</title>
<polygon fill="aliceblue" stroke="black" points="450,-660.44 477,-648 504,-660.44 503.97,-680.56 450.03,-680.56 450,-660.44"/>
<text text-anchor="middle" x="477" y="-662.3" font-family="Times,serif" font-size="14.00">+</text>
</g>
<!-- node0x7fba20704cb0&#45;&gt;node0x7fba20704770 -->
<g id="edge1" class="edge">
<title>node0x7fba20704cb0&#45;&gt;node0x7fba20704770</title>
<path fill="none" stroke="black" d="M537.95,-725.44C527.35,-715.28 511.66,-700.24 498.86,-687.96"/>
<polygon fill="black" stroke="black" points="500.97,-685.14 491.33,-680.74 496.13,-690.19 500.97,-685.14"/>
</g>
<!-- node0x7fba20704c80 -->
<g id="node40" class="node">
<title>node0x7fba20704c80</title>
<polygon fill="aliceblue" stroke="black" points="612,-660.44 639,-648 666,-660.44 665.97,-680.56 612.03,-680.56 612,-660.44"/>
<text text-anchor="middle" x="639" y="-662.3" font-family="Times,serif" font-size="14.00">+</text>
</g>
<!-- node0x7fba20704cb0&#45;&gt;node0x7fba20704c80 -->
<g id="edge39" class="edge">
<title>node0x7fba20704cb0&#45;&gt;node0x7fba20704c80</title>
<path fill="none" stroke="black" d="M563.91,-726.06C577.15,-715.65 597.39,-699.73 613.52,-687.04"/>
<polygon fill="black" stroke="black" points="615.83,-689.68 621.52,-680.75 611.5,-684.18 615.83,-689.68"/>
</g>
<!-- node0x7fba20704080 -->
<g id="node3" class="node">
<title>node0x7fba20704080</title>
<ellipse fill="lightgreen" stroke="black" cx="405" cy="-594" rx="27" ry="18"/>
<text text-anchor="middle" x="405" y="-590.3" font-family="Times,serif" font-size="14.00">1</text>
</g>
<!-- node0x7fba20704770&#45;&gt;node0x7fba20704080 -->
<g id="edge2" class="edge">
<title>node0x7fba20704770&#45;&gt;node0x7fba20704080</title>
<path fill="none" stroke="black" d="M465.11,-653.44C454.79,-643.41 439.58,-628.62 427.04,-616.43"/>
<polygon fill="black" stroke="black" points="429.26,-613.7 419.65,-609.24 424.38,-618.72 429.26,-613.7"/>
</g>
<!-- node0x7fba20704740 -->
<g id="node4" class="node">
<title>node0x7fba20704740</title>
<polygon fill="aliceblue" stroke="black" points="450,-588.44 477,-576 504,-588.44 503.97,-608.56 450.03,-608.56 450,-588.44"/>
<text text-anchor="middle" x="477" y="-590.3" font-family="Times,serif" font-size="14.00">+</text>
</g>
<!-- node0x7fba20704770&#45;&gt;node0x7fba20704740 -->
<g id="edge3" class="edge">
<title>node0x7fba20704770&#45;&gt;node0x7fba20704740</title>
<path fill="none" stroke="black" d="M477,-647.7C477,-638.99 477,-628.3 477,-618.83"/>
<polygon fill="black" stroke="black" points="480.5,-618.82 477,-608.82 473.5,-618.82 480.5,-618.82"/>
</g>
<!-- node0x7fba207042c0 -->
<g id="node5" class="node">
<title>node0x7fba207042c0</title>
<polygon fill="aliceblue" stroke="black" points="216,-516.44 243,-504 270,-516.44 269.97,-536.56 216.03,-536.56 216,-516.44"/>
<text text-anchor="middle" x="243" y="-518.3" font-family="Times,serif" font-size="14.00">*</text>
</g>
<!-- node0x7fba20704740&#45;&gt;node0x7fba207042c0 -->
<g id="edge4" class="edge">
<title>node0x7fba20704740&#45;&gt;node0x7fba207042c0</title>
<path fill="none" stroke="black" d="M459.33,-583.88C453.57,-581.12 447.1,-578.24 441,-576 386.14,-555.89 320.19,-539.77 279.95,-530.8"/>
<polygon fill="black" stroke="black" points="280.57,-527.35 270.05,-528.62 279.07,-534.19 280.57,-527.35"/>
</g>
<!-- node0x7fba20704710 -->
<g id="node17" class="node">
<title>node0x7fba20704710</title>
<polygon fill="aliceblue" stroke="black" points="450,-516.44 477,-504 504,-516.44 503.97,-536.56 450.03,-536.56 450,-516.44"/>
<text text-anchor="middle" x="477" y="-518.3" font-family="Times,serif" font-size="14.00">*</text>
</g>
<!-- node0x7fba20704740&#45;&gt;node0x7fba20704710 -->
<g id="edge16" class="edge">
<title>node0x7fba20704740&#45;&gt;node0x7fba20704710</title>
<path fill="none" stroke="black" d="M477,-575.7C477,-566.99 477,-556.3 477,-546.83"/>
<polygon fill="black" stroke="black" points="480.5,-546.82 477,-536.82 473.5,-546.82 480.5,-546.82"/>
</g>
<!-- node0x7fba207040b0 -->
<g id="node6" class="node">
<title>node0x7fba207040b0</title>
<polygon fill="aliceblue" stroke="black" points="108,-444.44 135,-432 162,-444.44 161.97,-464.56 108.03,-464.56 108,-444.44"/>
<text text-anchor="middle" x="135" y="-446.3" font-family="Times,serif" font-size="14.00">+</text>
</g>
<!-- node0x7fba207042c0&#45;&gt;node0x7fba207040b0 -->
<g id="edge5" class="edge">
<title>node0x7fba207042c0&#45;&gt;node0x7fba207040b0</title>
<path fill="none" stroke="black" d="M227.53,-510.97C211.17,-500.37 184.96,-483.38 164.61,-470.19"/>
<polygon fill="black" stroke="black" points="166.3,-467.12 156.01,-464.62 162.5,-472.99 166.3,-467.12"/>
</g>
<!-- node0x7fba20704290 -->
<g id="node11" class="node">
<title>node0x7fba20704290</title>
<polygon fill="aliceblue" stroke="black" points="216,-444.44 243,-432 270,-444.44 269.97,-464.56 216.03,-464.56 216,-444.44"/>
<text text-anchor="middle" x="243" y="-446.3" font-family="Times,serif" font-size="14.00">*</text>
</g>
<!-- node0x7fba207042c0&#45;&gt;node0x7fba20704290 -->
<g id="edge10" class="edge">
<title>node0x7fba207042c0&#45;&gt;node0x7fba20704290</title>
<path fill="none" stroke="black" d="M243,-503.7C243,-494.99 243,-484.3 243,-474.83"/>
<polygon fill="black" stroke="black" points="246.5,-474.82 243,-464.82 239.5,-474.82 246.5,-474.82"/>
</g>
<!-- node0x7fba207040e0 -->
<g id="node7" class="node">
<title>node0x7fba207040e0</title>
<polygon fill="aliceblue" stroke="black" points="36,-372.44 63,-360 90,-372.44 89.97,-392.56 36.03,-392.56 36,-372.44"/>
<text text-anchor="middle" x="63" y="-374.3" font-family="Times,serif" font-size="14.00">^</text>
</g>
<!-- node0x7fba207040b0&#45;&gt;node0x7fba207040e0 -->
<g id="edge6" class="edge">
<title>node0x7fba207040b0&#45;&gt;node0x7fba207040e0</title>
<path fill="none" stroke="black" d="M123.11,-437.44C112.66,-427.28 97.19,-412.24 84.56,-399.96"/>
<polygon fill="black" stroke="black" points="86.74,-397.2 77.13,-392.74 81.86,-402.22 86.74,-397.2"/>
</g>
<!-- node0x7fba20704170 -->
<g id="node10" class="node">
<title>node0x7fba20704170</title>
<ellipse fill="pink" stroke="black" cx="135" cy="-378" rx="27" ry="18"/>
<text text-anchor="middle" x="135" y="-374.3" font-family="Times,serif" font-size="14.00">y</text>
</g>
<!-- node0x7fba207040b0&#45;&gt;node0x7fba20704170 -->
<g id="edge9" class="edge">
<title>node0x7fba207040b0&#45;&gt;node0x7fba20704170</title>
<path fill="none" stroke="black" d="M135,-431.7C135,-423.98 135,-414.71 135,-406.11"/>
<polygon fill="black" stroke="black" points="138.5,-406.1 135,-396.1 131.5,-406.1 138.5,-406.1"/>
</g>
<!-- node0x7fba20704110 -->
<g id="node8" class="node">
<title>node0x7fba20704110</title>
<ellipse fill="pink" stroke="black" cx="27" cy="-306" rx="27" ry="18"/>
<text text-anchor="middle" x="27" y="-302.3" font-family="Times,serif" font-size="14.00">x</text>
</g>
<!-- node0x7fba207040e0&#45;&gt;node0x7fba20704110 -->
<g id="edge7" class="edge">
<title>node0x7fba207040e0&#45;&gt;node0x7fba20704110</title>
<path fill="none" stroke="black" d="M55.89,-363.17C51.37,-354.38 45.38,-342.75 40.04,-332.35"/>
<polygon fill="black" stroke="black" points="43.05,-330.55 35.36,-323.26 36.82,-333.75 43.05,-330.55"/>
</g>
<!-- node0x7fba20704140 -->
<g id="node9" class="node">
<title>node0x7fba20704140</title>
<ellipse fill="lightgreen" stroke="black" cx="99" cy="-306" rx="27" ry="18"/>
<text text-anchor="middle" x="99" y="-302.3" font-family="Times,serif" font-size="14.00">2</text>
</g>
<!-- node0x7fba207040e0&#45;&gt;node0x7fba20704140 -->
<g id="edge8" class="edge">
<title>node0x7fba207040e0&#45;&gt;node0x7fba20704140</title>
<path fill="none" stroke="black" d="M70.11,-363.17C74.63,-354.38 80.62,-342.75 85.96,-332.35"/>
<polygon fill="black" stroke="black" points="89.18,-333.75 90.64,-323.26 82.95,-330.55 89.18,-333.75"/>
</g>
<!-- node0x7fba207041a0 -->
<g id="node12" class="node">
<title>node0x7fba207041a0</title>
<ellipse fill="lightgreen" stroke="black" cx="207" cy="-378" rx="27" ry="18"/>
<text text-anchor="middle" x="207" y="-374.3" font-family="Times,serif" font-size="14.00">&#45;1</text>
</g>
<!-- node0x7fba20704290&#45;&gt;node0x7fba207041a0 -->
<g id="edge11" class="edge">
<title>node0x7fba20704290&#45;&gt;node0x7fba207041a0</title>
<path fill="none" stroke="black" d="M235.89,-435.17C231.37,-426.38 225.38,-414.75 220.04,-404.35"/>
<polygon fill="black" stroke="black" points="223.05,-402.55 215.36,-395.26 216.82,-405.75 223.05,-402.55"/>
</g>
<!-- node0x7fba20704260 -->
<g id="node13" class="node">
<title>node0x7fba20704260</title>
<polygon fill="aliceblue" stroke="black" points="252,-372.44 279,-360 306,-372.44 305.97,-392.56 252.03,-392.56 252,-372.44"/>
<text text-anchor="middle" x="279" y="-374.3" font-family="Times,serif" font-size="14.00">*</text>
</g>
<!-- node0x7fba20704290&#45;&gt;node0x7fba20704260 -->
<g id="edge12" class="edge">
<title>node0x7fba20704290&#45;&gt;node0x7fba20704260</title>
<path fill="none" stroke="black" d="M250.11,-435.17C254.99,-425.68 261.59,-412.86 267.24,-401.86"/>
<polygon fill="black" stroke="black" points="270.44,-403.29 271.9,-392.8 264.22,-400.09 270.44,-403.29"/>
</g>
<!-- node0x7fba20704200 -->
<g id="node14" class="node">
<title>node0x7fba20704200</title>
<polygon fill="aliceblue" stroke="black" points="180,-300.44 207,-288 234,-300.44 233.97,-320.56 180.03,-320.56 180,-300.44"/>
<text text-anchor="middle" x="207" y="-302.3" font-family="Times,serif" font-size="14.00">sin</text>
</g>
<!-- node0x7fba20704260&#45;&gt;node0x7fba20704200 -->
<g id="edge13" class="edge">
<title>node0x7fba20704260&#45;&gt;node0x7fba20704200</title>
<path fill="none" stroke="black" d="M267.11,-365.44C256.66,-355.28 241.19,-340.24 228.56,-327.96"/>
<polygon fill="black" stroke="black" points="230.74,-325.2 221.13,-320.74 225.86,-330.22 230.74,-325.2"/>
</g>
<!-- node0x7fba20704230 -->
<g id="node16" class="node">
<title>node0x7fba20704230</title>
<ellipse fill="lightgreen" stroke="black" cx="279" cy="-306" rx="27" ry="18"/>
<text text-anchor="middle" x="279" y="-302.3" font-family="Times,serif" font-size="14.00">1</text>
</g>
<!-- node0x7fba20704260&#45;&gt;node0x7fba20704230 -->
<g id="edge15" class="edge">
<title>node0x7fba20704260&#45;&gt;node0x7fba20704230</title>
<path fill="none" stroke="black" d="M279,-359.7C279,-351.98 279,-342.71 279,-334.11"/>
<polygon fill="black" stroke="black" points="282.5,-334.1 279,-324.1 275.5,-334.1 282.5,-334.1"/>
</g>
<!-- node0x7fba207041d0 -->
<g id="node15" class="node">
<title>node0x7fba207041d0</title>
<ellipse fill="pink" stroke="black" cx="207" cy="-234" rx="27" ry="18"/>
<text text-anchor="middle" x="207" y="-230.3" font-family="Times,serif" font-size="14.00">x</text>
</g>
<!-- node0x7fba20704200&#45;&gt;node0x7fba207041d0 -->
<g id="edge14" class="edge">
<title>node0x7fba20704200&#45;&gt;node0x7fba207041d0</title>
<path fill="none" stroke="black" d="M207,-287.7C207,-279.98 207,-270.71 207,-262.11"/>
<polygon fill="black" stroke="black" points="210.5,-262.1 207,-252.1 203.5,-262.1 210.5,-262.1"/>
</g>
<!-- node0x7fba20704680 -->
<g id="node18" class="node">
<title>node0x7fba20704680</title>
<polygon fill="aliceblue" stroke="black" points="431,-444.44 458,-432 485,-444.44 484.97,-464.56 431.03,-464.56 431,-444.44"/>
<text text-anchor="middle" x="458" y="-446.3" font-family="Times,serif" font-size="14.00">+</text>
</g>
<!-- node0x7fba20704710&#45;&gt;node0x7fba20704680 -->
<g id="edge17" class="edge">
<title>node0x7fba20704710&#45;&gt;node0x7fba20704680</title>
<path fill="none" stroke="black" d="M472.88,-505.81C470.39,-496.64 467.17,-484.77 464.36,-474.42"/>
<polygon fill="black" stroke="black" points="467.73,-473.47 461.73,-464.74 460.97,-475.3 467.73,-473.47"/>
</g>
<!-- node0x7fba207046b0 -->
<g id="node38" class="node">
<title>node0x7fba207046b0</title>
<polygon fill="aliceblue" stroke="black" points="502.76,-444.44 531,-432 559.24,-444.44 559.21,-464.56 502.79,-464.56 502.76,-444.44"/>
<text text-anchor="middle" x="531" y="-446.3" font-family="Times,serif" font-size="14.00">cos</text>
</g>
<!-- node0x7fba20704710&#45;&gt;node0x7fba207046b0 -->
<g id="edge37" class="edge">
<title>node0x7fba20704710&#45;&gt;node0x7fba207046b0</title>
<path fill="none" stroke="black" d="M486.9,-508.16C494.55,-498.25 505.3,-484.32 514.27,-472.69"/>
<polygon fill="black" stroke="black" points="517.08,-474.77 520.42,-464.71 511.54,-470.49 517.08,-474.77"/>
</g>
<!-- node0x7fba20704620 -->
<g id="node19" class="node">
<title>node0x7fba20704620</title>
<polygon fill="aliceblue" stroke="black" points="359,-372.44 386,-360 413,-372.44 412.97,-392.56 359.03,-392.56 359,-372.44"/>
<text text-anchor="middle" x="386" y="-374.3" font-family="Times,serif" font-size="14.00">+</text>
</g>
<!-- node0x7fba20704680&#45;&gt;node0x7fba20704620 -->
<g id="edge18" class="edge">
<title>node0x7fba20704680&#45;&gt;node0x7fba20704620</title>
<path fill="none" stroke="black" d="M446.11,-437.44C435.66,-427.28 420.19,-412.24 407.56,-399.96"/>
<polygon fill="black" stroke="black" points="409.74,-397.2 400.13,-392.74 404.86,-402.22 409.74,-397.2"/>
</g>
<!-- node0x7fba20704650 -->
<g id="node37" class="node">
<title>node0x7fba20704650</title>
<ellipse fill="lightgreen" stroke="black" cx="458" cy="-378" rx="27" ry="18"/>
<text text-anchor="middle" x="458" y="-374.3" font-family="Times,serif" font-size="14.00">0</text>
</g>
<!-- node0x7fba20704680&#45;&gt;node0x7fba20704650 -->
<g id="edge36" class="edge">
<title>node0x7fba20704680&#45;&gt;node0x7fba20704650</title>
<path fill="none" stroke="black" d="M458,-431.7C458,-423.98 458,-414.71 458,-406.11"/>
<polygon fill="black" stroke="black" points="461.5,-406.1 458,-396.1 454.5,-406.1 461.5,-406.1"/>
</g>
<!-- node0x7fba20704470 -->
<g id="node20" class="node">
<title>node0x7fba20704470</title>
<polygon fill="aliceblue" stroke="black" points="324,-300.44 351,-288 378,-300.44 377.97,-320.56 324.03,-320.56 324,-300.44"/>
<text text-anchor="middle" x="351" y="-302.3" font-family="Times,serif" font-size="14.00">*</text>
</g>
<!-- node0x7fba20704620&#45;&gt;node0x7fba20704470 -->
<g id="edge19" class="edge">
<title>node0x7fba20704620&#45;&gt;node0x7fba20704470</title>
<path fill="none" stroke="black" d="M379.09,-363.17C374.34,-353.68 367.93,-340.86 362.43,-329.86"/>
<polygon fill="black" stroke="black" points="365.5,-328.18 357.9,-320.8 359.24,-331.31 365.5,-328.18"/>
</g>
<!-- node0x7fba207045f0 -->
<g id="node29" class="node">
<title>node0x7fba207045f0</title>
<polygon fill="aliceblue" stroke="black" points="396,-300.44 423,-288 450,-300.44 449.97,-320.56 396.03,-320.56 396,-300.44"/>
<text text-anchor="middle" x="423" y="-302.3" font-family="Times,serif" font-size="14.00">*</text>
</g>
<!-- node0x7fba20704620&#45;&gt;node0x7fba207045f0 -->
<g id="edge28" class="edge">
<title>node0x7fba20704620&#45;&gt;node0x7fba207045f0</title>
<path fill="none" stroke="black" d="M393.31,-363.17C398.33,-353.68 405.1,-340.86 410.91,-329.86"/>
<polygon fill="black" stroke="black" points="414.13,-331.28 415.71,-320.8 407.94,-328.01 414.13,-331.28"/>
</g>
<!-- node0x7fba20704410 -->
<g id="node21" class="node">
<title>node0x7fba20704410</title>
<polygon fill="aliceblue" stroke="black" points="252,-228.44 279,-216 306,-228.44 305.97,-248.56 252.03,-248.56 252,-228.44"/>
<text text-anchor="middle" x="279" y="-230.3" font-family="Times,serif" font-size="14.00">*</text>
</g>
<!-- node0x7fba20704470&#45;&gt;node0x7fba20704410 -->
<g id="edge20" class="edge">
<title>node0x7fba20704470&#45;&gt;node0x7fba20704410</title>
<path fill="none" stroke="black" d="M339.11,-293.44C328.66,-283.28 313.19,-268.24 300.56,-255.96"/>
<polygon fill="black" stroke="black" points="302.74,-253.2 293.13,-248.74 297.86,-258.22 302.74,-253.2"/>
</g>
<!-- node0x7fba20704440 -->
<g id="node28" class="node">
<title>node0x7fba20704440</title>
<ellipse fill="lightgreen" stroke="black" cx="351" cy="-234" rx="27" ry="18"/>
<text text-anchor="middle" x="351" y="-230.3" font-family="Times,serif" font-size="14.00">1</text>
</g>
<!-- node0x7fba20704470&#45;&gt;node0x7fba20704440 -->
<g id="edge27" class="edge">
<title>node0x7fba20704470&#45;&gt;node0x7fba20704440</title>
<path fill="none" stroke="black" d="M351,-287.7C351,-279.98 351,-270.71 351,-262.11"/>
<polygon fill="black" stroke="black" points="354.5,-262.1 351,-252.1 347.5,-262.1 354.5,-262.1"/>
</g>
<!-- node0x7fba207042f0 -->
<g id="node22" class="node">
<title>node0x7fba207042f0</title>
<ellipse fill="lightgreen" stroke="black" cx="207" cy="-162" rx="27" ry="18"/>
<text text-anchor="middle" x="207" y="-158.3" font-family="Times,serif" font-size="14.00">2</text>
</g>
<!-- node0x7fba20704410&#45;&gt;node0x7fba207042f0 -->
<g id="edge21" class="edge">
<title>node0x7fba20704410&#45;&gt;node0x7fba207042f0</title>
<path fill="none" stroke="black" d="M267.11,-221.44C256.79,-211.41 241.58,-196.62 229.04,-184.43"/>
<polygon fill="black" stroke="black" points="231.26,-181.7 221.65,-177.24 226.38,-186.72 231.26,-181.7"/>
</g>
<!-- node0x7fba207043e0 -->
<g id="node23" class="node">
<title>node0x7fba207043e0</title>
<polygon fill="aliceblue" stroke="black" points="252,-156.44 279,-144 306,-156.44 305.97,-176.56 252.03,-176.56 252,-156.44"/>
<text text-anchor="middle" x="279" y="-158.3" font-family="Times,serif" font-size="14.00">^</text>
</g>
<!-- node0x7fba20704410&#45;&gt;node0x7fba207043e0 -->
<g id="edge22" class="edge">
<title>node0x7fba20704410&#45;&gt;node0x7fba207043e0</title>
<path fill="none" stroke="black" d="M279,-215.7C279,-206.99 279,-196.3 279,-186.83"/>
<polygon fill="black" stroke="black" points="282.5,-186.82 279,-176.82 275.5,-186.82 282.5,-186.82"/>
</g>
<!-- node0x7fba20704320 -->
<g id="node24" class="node">
<title>node0x7fba20704320</title>
<ellipse fill="pink" stroke="black" cx="207" cy="-90" rx="27" ry="18"/>
<text text-anchor="middle" x="207" y="-86.3" font-family="Times,serif" font-size="14.00">x</text>
</g>
<!-- node0x7fba207043e0&#45;&gt;node0x7fba20704320 -->
<g id="edge23" class="edge">
<title>node0x7fba207043e0&#45;&gt;node0x7fba20704320</title>
<path fill="none" stroke="black" d="M267.11,-149.44C256.79,-139.41 241.58,-124.62 229.04,-112.43"/>
<polygon fill="black" stroke="black" points="231.26,-109.7 221.65,-105.24 226.38,-114.72 231.26,-109.7"/>
</g>
<!-- node0x7fba207043b0 -->
<g id="node25" class="node">
<title>node0x7fba207043b0</title>
<polygon fill="aliceblue" stroke="black" points="252,-84.44 279,-72 306,-84.44 305.97,-104.56 252.03,-104.56 252,-84.44"/>
<text text-anchor="middle" x="279" y="-86.3" font-family="Times,serif" font-size="14.00">&#45;</text>
</g>
<!-- node0x7fba207043e0&#45;&gt;node0x7fba207043b0 -->
<g id="edge24" class="edge">
<title>node0x7fba207043e0&#45;&gt;node0x7fba207043b0</title>
<path fill="none" stroke="black" d="M279,-143.7C279,-134.99 279,-124.3 279,-114.83"/>
<polygon fill="black" stroke="black" points="282.5,-114.82 279,-104.82 275.5,-114.82 282.5,-114.82"/>
</g>
<!-- node0x7fba20704350 -->
<g id="node26" class="node">
<title>node0x7fba20704350</title>
<ellipse fill="lightgreen" stroke="black" cx="243" cy="-18" rx="27" ry="18"/>
<text text-anchor="middle" x="243" y="-14.3" font-family="Times,serif" font-size="14.00">2</text>
</g>
<!-- node0x7fba207043b0&#45;&gt;node0x7fba20704350 -->
<g id="edge25" class="edge">
<title>node0x7fba207043b0&#45;&gt;node0x7fba20704350</title>
<path fill="none" stroke="black" d="M271.89,-75.17C267.37,-66.38 261.38,-54.75 256.04,-44.35"/>
<polygon fill="black" stroke="black" points="259.05,-42.55 251.36,-35.26 252.82,-45.75 259.05,-42.55"/>
</g>
<!-- node0x7fba20704380 -->
<g id="node27" class="node">
<title>node0x7fba20704380</title>
<ellipse fill="lightgreen" stroke="black" cx="315" cy="-18" rx="27" ry="18"/>
<text text-anchor="middle" x="315" y="-14.3" font-family="Times,serif" font-size="14.00">1</text>
</g>
<!-- node0x7fba207043b0&#45;&gt;node0x7fba20704380 -->
<g id="edge26" class="edge">
<title>node0x7fba207043b0&#45;&gt;node0x7fba20704380</title>
<path fill="none" stroke="black" d="M286.11,-75.17C290.63,-66.38 296.62,-54.75 301.96,-44.35"/>
<polygon fill="black" stroke="black" points="305.18,-45.75 306.64,-35.26 298.95,-42.55 305.18,-45.75"/>
</g>
<!-- node0x7fba20704590 -->
<g id="node30" class="node">
<title>node0x7fba20704590</title>
<polygon fill="aliceblue" stroke="black" points="396,-228.44 423,-216 450,-228.44 449.97,-248.56 396.03,-248.56 396,-228.44"/>
<text text-anchor="middle" x="423" y="-230.3" font-family="Times,serif" font-size="14.00">*</text>
</g>
<!-- node0x7fba207045f0&#45;&gt;node0x7fba20704590 -->
<g id="edge29" class="edge">
<title>node0x7fba207045f0&#45;&gt;node0x7fba20704590</title>
<path fill="none" stroke="black" d="M423,-287.7C423,-278.99 423,-268.3 423,-258.83"/>
<polygon fill="black" stroke="black" points="426.5,-258.82 423,-248.82 419.5,-258.82 426.5,-258.82"/>
</g>
<!-- node0x7fba207045c0 -->
<g id="node36" class="node">
<title>node0x7fba207045c0</title>
<ellipse fill="lightgreen" stroke="black" cx="495" cy="-234" rx="27" ry="18"/>
<text text-anchor="middle" x="495" y="-230.3" font-family="Times,serif" font-size="14.00">0</text>
</g>
<!-- node0x7fba207045f0&#45;&gt;node0x7fba207045c0 -->
<g id="edge35" class="edge">
<title>node0x7fba207045f0&#45;&gt;node0x7fba207045c0</title>
<path fill="none" stroke="black" d="M434.89,-293.44C445.21,-283.41 460.42,-268.62 472.96,-256.43"/>
<polygon fill="black" stroke="black" points="475.62,-258.72 480.35,-249.24 470.74,-253.7 475.62,-258.72"/>
</g>
<!-- node0x7fba20704500 -->
<g id="node31" class="node">
<title>node0x7fba20704500</title>
<polygon fill="aliceblue" stroke="black" points="396,-156.44 423,-144 450,-156.44 449.97,-176.56 396.03,-176.56 396,-156.44"/>
<text text-anchor="middle" x="423" y="-158.3" font-family="Times,serif" font-size="14.00">^</text>
</g>
<!-- node0x7fba20704590&#45;&gt;node0x7fba20704500 -->
<g id="edge30" class="edge">
<title>node0x7fba20704590&#45;&gt;node0x7fba20704500</title>
<path fill="none" stroke="black" d="M423,-215.7C423,-206.99 423,-196.3 423,-186.83"/>
<polygon fill="black" stroke="black" points="426.5,-186.82 423,-176.82 419.5,-186.82 426.5,-186.82"/>
</g>
<!-- node0x7fba20704560 -->
<g id="node34" class="node">
<title>node0x7fba20704560</title>
<polygon fill="aliceblue" stroke="black" points="467.87,-156.44 495,-144 522.13,-156.44 522.11,-176.56 467.89,-176.56 467.87,-156.44"/>
<text text-anchor="middle" x="495" y="-158.3" font-family="Times,serif" font-size="14.00">log</text>
</g>
<!-- node0x7fba20704590&#45;&gt;node0x7fba20704560 -->
<g id="edge33" class="edge">
<title>node0x7fba20704590&#45;&gt;node0x7fba20704560</title>
<path fill="none" stroke="black" d="M434.89,-221.44C445.34,-211.28 460.81,-196.24 473.44,-183.96"/>
<polygon fill="black" stroke="black" points="476.14,-186.22 480.87,-176.74 471.26,-181.2 476.14,-186.22"/>
</g>
<!-- node0x7fba207044a0 -->
<g id="node32" class="node">
<title>node0x7fba207044a0</title>
<ellipse fill="pink" stroke="black" cx="351" cy="-90" rx="27" ry="18"/>
<text text-anchor="middle" x="351" y="-86.3" font-family="Times,serif" font-size="14.00">x</text>
</g>
<!-- node0x7fba20704500&#45;&gt;node0x7fba207044a0 -->
<g id="edge31" class="edge">
<title>node0x7fba20704500&#45;&gt;node0x7fba207044a0</title>
<path fill="none" stroke="black" d="M411.11,-149.44C400.79,-139.41 385.58,-124.62 373.04,-112.43"/>
<polygon fill="black" stroke="black" points="375.26,-109.7 365.65,-105.24 370.38,-114.72 375.26,-109.7"/>
</g>
<!-- node0x7fba207044d0 -->
<g id="node33" class="node">
<title>node0x7fba207044d0</title>
<ellipse fill="lightgreen" stroke="black" cx="423" cy="-90" rx="27" ry="18"/>
<text text-anchor="middle" x="423" y="-86.3" font-family="Times,serif" font-size="14.00">2</text>
</g>
<!-- node0x7fba20704500&#45;&gt;node0x7fba207044d0 -->
<g id="edge32" class="edge">
<title>node0x7fba20704500&#45;&gt;node0x7fba207044d0</title>
<path fill="none" stroke="black" d="M423,-143.7C423,-135.98 423,-126.71 423,-118.11"/>
<polygon fill="black" stroke="black" points="426.5,-118.1 423,-108.1 419.5,-118.1 426.5,-118.1"/>
</g>
<!-- node0x7fba20704530 -->
<g id="node35" class="node">
<title>node0x7fba20704530</title>
<ellipse fill="pink" stroke="black" cx="495" cy="-90" rx="27" ry="18"/>
<text text-anchor="middle" x="495" y="-86.3" font-family="Times,serif" font-size="14.00">x</text>
</g>
<!-- node0x7fba20704560&#45;&gt;node0x7fba20704530 -->
<g id="edge34" class="edge">
<title>node0x7fba20704560&#45;&gt;node0x7fba20704530</title>
<path fill="none" stroke="black" d="M495,-143.7C495,-135.98 495,-126.71 495,-118.11"/>
<polygon fill="black" stroke="black" points="498.5,-118.1 495,-108.1 491.5,-118.1 498.5,-118.1"/>
</g>
<!-- node0x7fba207046e0 -->
<g id="node39" class="node">
<title>node0x7fba207046e0</title>
<ellipse fill="pink" stroke="black" cx="531" cy="-378" rx="27" ry="18"/>
<text text-anchor="middle" x="531" y="-374.3" font-family="Times,serif" font-size="14.00">x</text>
</g>
<!-- node0x7fba207046b0&#45;&gt;node0x7fba207046e0 -->
<g id="edge38" class="edge">
<title>node0x7fba207046b0&#45;&gt;node0x7fba207046e0</title>
<path fill="none" stroke="black" d="M531,-431.7C531,-423.98 531,-414.71 531,-406.11"/>
<polygon fill="black" stroke="black" points="534.5,-406.1 531,-396.1 527.5,-406.1 534.5,-406.1"/>
</g>
<!-- node0x7fba20704ad0 -->
<g id="node41" class="node">
<title>node0x7fba20704ad0</title>
<polygon fill="aliceblue" stroke="black" points="612,-588.44 639,-576 666,-588.44 665.97,-608.56 612.03,-608.56 612,-588.44"/>
<text text-anchor="middle" x="639" y="-590.3" font-family="Times,serif" font-size="14.00">*</text>
</g>
<!-- node0x7fba20704c80&#45;&gt;node0x7fba20704ad0 -->
<g id="edge40" class="edge">
<title>node0x7fba20704c80&#45;&gt;node0x7fba20704ad0</title>
<path fill="none" stroke="black" d="M639,-647.7C639,-638.99 639,-628.3 639,-618.83"/>
<polygon fill="black" stroke="black" points="642.5,-618.82 639,-608.82 635.5,-618.82 642.5,-618.82"/>
</g>
<!-- node0x7fba20704c50 -->
<g id="node59" class="node">
<title>node0x7fba20704c50</title>
<polygon fill="aliceblue" stroke="black" points="720,-588.44 747,-576 774,-588.44 773.97,-608.56 720.03,-608.56 720,-588.44"/>
<text text-anchor="middle" x="747" y="-590.3" font-family="Times,serif" font-size="14.00">*</text>
</g>
<!-- node0x7fba20704c80&#45;&gt;node0x7fba20704c50 -->
<g id="edge58" class="edge">
<title>node0x7fba20704c80&#45;&gt;node0x7fba20704c50</title>
<path fill="none" stroke="black" d="M654.47,-654.97C670.83,-644.37 697.04,-627.38 717.39,-614.19"/>
<polygon fill="black" stroke="black" points="719.5,-616.99 725.99,-608.62 715.7,-611.12 719.5,-616.99"/>
</g>
<!-- node0x7fba207047a0 -->
<g id="node42" class="node">
<title>node0x7fba207047a0</title>
<ellipse fill="pink" stroke="black" cx="603" cy="-522" rx="27" ry="18"/>
<text text-anchor="middle" x="603" y="-518.3" font-family="Times,serif" font-size="14.00">x</text>
</g>
<!-- node0x7fba20704ad0&#45;&gt;node0x7fba207047a0 -->
<g id="edge41" class="edge">
<title>node0x7fba20704ad0&#45;&gt;node0x7fba207047a0</title>
<path fill="none" stroke="black" d="M631.89,-579.17C627.37,-570.38 621.38,-558.75 616.04,-548.35"/>
<polygon fill="black" stroke="black" points="619.05,-546.55 611.36,-539.26 612.82,-549.75 619.05,-546.55"/>
</g>
<!-- node0x7fba20704aa0 -->
<g id="node43" class="node">
<title>node0x7fba20704aa0</title>
<polygon fill="aliceblue" stroke="black" points="648,-516.44 675,-504 702,-516.44 701.97,-536.56 648.03,-536.56 648,-516.44"/>
<text text-anchor="middle" x="675" y="-518.3" font-family="Times,serif" font-size="14.00">*</text>
</g>
<!-- node0x7fba20704ad0&#45;&gt;node0x7fba20704aa0 -->
<g id="edge42" class="edge">
<title>node0x7fba20704ad0&#45;&gt;node0x7fba20704aa0</title>
<path fill="none" stroke="black" d="M646.11,-579.17C650.99,-569.68 657.59,-556.86 663.24,-545.86"/>
<polygon fill="black" stroke="black" points="666.44,-547.29 667.9,-536.8 660.22,-544.09 666.44,-547.29"/>
</g>
<!-- node0x7fba207048c0 -->
<g id="node44" class="node">
<title>node0x7fba207048c0</title>
<polygon fill="aliceblue" stroke="black" points="610.76,-444.44 639,-432 667.24,-444.44 667.21,-464.56 610.79,-464.56 610.76,-444.44"/>
<text text-anchor="middle" x="639" y="-446.3" font-family="Times,serif" font-size="14.00">cos</text>
</g>
<!-- node0x7fba20704aa0&#45;&gt;node0x7fba207048c0 -->
<g id="edge43" class="edge">
<title>node0x7fba20704aa0&#45;&gt;node0x7fba207048c0</title>
<path fill="none" stroke="black" d="M667.89,-507.17C663.01,-497.68 656.41,-484.86 650.76,-473.86"/>
<polygon fill="black" stroke="black" points="653.78,-472.09 646.1,-464.8 647.56,-475.29 653.78,-472.09"/>
</g>
<!-- node0x7fba20704a70 -->
<g id="node50" class="node">
<title>node0x7fba20704a70</title>
<polygon fill="aliceblue" stroke="black" points="685,-444.44 712,-432 739,-444.44 738.97,-464.56 685.03,-464.56 685,-444.44"/>
<text text-anchor="middle" x="712" y="-446.3" font-family="Times,serif" font-size="14.00">+</text>
</g>
<!-- node0x7fba20704aa0&#45;&gt;node0x7fba20704a70 -->
<g id="edge49" class="edge">
<title>node0x7fba20704aa0&#45;&gt;node0x7fba20704a70</title>
<path fill="none" stroke="black" d="M682.31,-507.17C687.33,-497.68 694.1,-484.86 699.91,-473.86"/>
<polygon fill="black" stroke="black" points="703.13,-475.28 704.71,-464.8 696.94,-472.01 703.13,-475.28"/>
</g>
<!-- node0x7fba207047d0 -->
<g id="node45" class="node">
<title>node0x7fba207047d0</title>
<polygon fill="aliceblue" stroke="black" points="612,-372.44 639,-360 666,-372.44 665.97,-392.56 612.03,-392.56 612,-372.44"/>
<text text-anchor="middle" x="639" y="-374.3" font-family="Times,serif" font-size="14.00">+</text>
</g>
<!-- node0x7fba207048c0&#45;&gt;node0x7fba207047d0 -->
<g id="edge44" class="edge">
<title>node0x7fba207048c0&#45;&gt;node0x7fba207047d0</title>
<path fill="none" stroke="black" d="M639,-431.7C639,-422.99 639,-412.3 639,-402.83"/>
<polygon fill="black" stroke="black" points="642.5,-402.82 639,-392.82 635.5,-402.82 642.5,-402.82"/>
</g>
<!-- node0x7fba20704800 -->
<g id="node46" class="node">
<title>node0x7fba20704800</title>
<ellipse fill="pink" stroke="black" cx="567" cy="-306" rx="27" ry="18"/>
<text text-anchor="middle" x="567" y="-302.3" font-family="Times,serif" font-size="14.00">y</text>
</g>
<!-- node0x7fba207047d0&#45;&gt;node0x7fba20704800 -->
<g id="edge45" class="edge">
<title>node0x7fba207047d0&#45;&gt;node0x7fba20704800</title>
<path fill="none" stroke="black" d="M627.11,-365.44C616.79,-355.41 601.58,-340.62 589.04,-328.43"/>
<polygon fill="black" stroke="black" points="591.26,-325.7 581.65,-321.24 586.38,-330.72 591.26,-325.7"/>
</g>
<!-- node0x7fba20704830 -->
<g id="node47" class="node">
<title>node0x7fba20704830</title>
<polygon fill="aliceblue" stroke="black" points="612,-300.44 639,-288 666,-300.44 665.97,-320.56 612.03,-320.56 612,-300.44"/>
<text text-anchor="middle" x="639" y="-302.3" font-family="Times,serif" font-size="14.00">*</text>
</g>
<!-- node0x7fba207047d0&#45;&gt;node0x7fba20704830 -->
<g id="edge46" class="edge">
<title>node0x7fba207047d0&#45;&gt;node0x7fba20704830</title>
<path fill="none" stroke="black" d="M639,-359.7C639,-350.99 639,-340.3 639,-330.83"/>
<polygon fill="black" stroke="black" points="642.5,-330.82 639,-320.82 635.5,-330.82 642.5,-330.82"/>
</g>
<!-- node0x7fba20704860 -->
<g id="node48" class="node">
<title>node0x7fba20704860</title>
<ellipse fill="lightgreen" stroke="black" cx="567" cy="-234" rx="27" ry="18"/>
<text text-anchor="middle" x="567" y="-230.3" font-family="Times,serif" font-size="14.00">14</text>
</g>
<!-- node0x7fba20704830&#45;&gt;node0x7fba20704860 -->
<g id="edge47" class="edge">
<title>node0x7fba20704830&#45;&gt;node0x7fba20704860</title>
<path fill="none" stroke="black" d="M627.11,-293.44C616.79,-283.41 601.58,-268.62 589.04,-256.43"/>
<polygon fill="black" stroke="black" points="591.26,-253.7 581.65,-249.24 586.38,-258.72 591.26,-253.7"/>
</g>
<!-- node0x7fba20704890 -->
<g id="node49" class="node">
<title>node0x7fba20704890</title>
<ellipse fill="pink" stroke="black" cx="639" cy="-234" rx="27" ry="18"/>
<text text-anchor="middle" x="639" y="-230.3" font-family="Times,serif" font-size="14.00">x</text>
</g>
<!-- node0x7fba20704830&#45;&gt;node0x7fba20704890 -->
<g id="edge48" class="edge">
<title>node0x7fba20704830&#45;&gt;node0x7fba20704890</title>
<path fill="none" stroke="black" d="M639,-287.7C639,-279.98 639,-270.71 639,-262.11"/>
<polygon fill="black" stroke="black" points="642.5,-262.1 639,-252.1 635.5,-262.1 642.5,-262.1"/>
</g>
<!-- node0x7fba207048f0 -->
<g id="node51" class="node">
<title>node0x7fba207048f0</title>
<ellipse fill="lightgreen" stroke="black" cx="711" cy="-378" rx="27" ry="18"/>
<text text-anchor="middle" x="711" y="-374.3" font-family="Times,serif" font-size="14.00">0</text>
</g>
<!-- node0x7fba20704a70&#45;&gt;node0x7fba207048f0 -->
<g id="edge50" class="edge">
<title>node0x7fba20704a70&#45;&gt;node0x7fba207048f0</title>
<path fill="none" stroke="black" d="M711.76,-432.05C711.65,-424.35 711.51,-415.03 711.39,-406.36"/>
<polygon fill="black" stroke="black" points="714.89,-406.22 711.25,-396.28 707.89,-406.32 714.89,-406.22"/>
</g>
<!-- node0x7fba20704a40 -->
<g id="node52" class="node">
<title>node0x7fba20704a40</title>
<polygon fill="aliceblue" stroke="black" points="756,-372.44 783,-360 810,-372.44 809.97,-392.56 756.03,-392.56 756,-372.44"/>
<text text-anchor="middle" x="783" y="-374.3" font-family="Times,serif" font-size="14.00">+</text>
</g>
<!-- node0x7fba20704a70&#45;&gt;node0x7fba20704a40 -->
<g id="edge51" class="edge">
<title>node0x7fba20704a70&#45;&gt;node0x7fba20704a40</title>
<path fill="none" stroke="black" d="M724.04,-437.13C734.4,-426.92 749.57,-411.96 761.93,-399.78"/>
<polygon fill="black" stroke="black" points="764.53,-402.13 769.19,-392.61 759.61,-397.14 764.53,-402.13"/>
</g>
<!-- node0x7fba20704980 -->
<g id="node53" class="node">
<title>node0x7fba20704980</title>
<polygon fill="aliceblue" stroke="black" points="756,-300.44 783,-288 810,-300.44 809.97,-320.56 756.03,-320.56 756,-300.44"/>
<text text-anchor="middle" x="783" y="-302.3" font-family="Times,serif" font-size="14.00">*</text>
</g>
<!-- node0x7fba20704a40&#45;&gt;node0x7fba20704980 -->
<g id="edge52" class="edge">
<title>node0x7fba20704a40&#45;&gt;node0x7fba20704980</title>
<path fill="none" stroke="black" d="M783,-359.7C783,-350.99 783,-340.3 783,-330.83"/>
<polygon fill="black" stroke="black" points="786.5,-330.82 783,-320.82 779.5,-330.82 786.5,-330.82"/>
</g>
<!-- node0x7fba20704a10 -->
<g id="node56" class="node">
<title>node0x7fba20704a10</title>
<polygon fill="aliceblue" stroke="black" points="828,-300.44 855,-288 882,-300.44 881.97,-320.56 828.03,-320.56 828,-300.44"/>
<text text-anchor="middle" x="855" y="-302.3" font-family="Times,serif" font-size="14.00">*</text>
</g>
<!-- node0x7fba20704a40&#45;&gt;node0x7fba20704a10 -->
<g id="edge55" class="edge">
<title>node0x7fba20704a40&#45;&gt;node0x7fba20704a10</title>
<path fill="none" stroke="black" d="M794.89,-365.44C805.34,-355.28 820.81,-340.24 833.44,-327.96"/>
<polygon fill="black" stroke="black" points="836.14,-330.22 840.87,-320.74 831.26,-325.2 836.14,-330.22"/>
</g>
<!-- node0x7fba20704920 -->
<g id="node54" class="node">
<title>node0x7fba20704920</title>
<ellipse fill="lightgreen" stroke="black" cx="711" cy="-234" rx="27" ry="18"/>
<text text-anchor="middle" x="711" y="-230.3" font-family="Times,serif" font-size="14.00">14</text>
</g>
<!-- node0x7fba20704980&#45;&gt;node0x7fba20704920 -->
<g id="edge53" class="edge">
<title>node0x7fba20704980&#45;&gt;node0x7fba20704920</title>
<path fill="none" stroke="black" d="M771.11,-293.44C760.79,-283.41 745.58,-268.62 733.04,-256.43"/>
<polygon fill="black" stroke="black" points="735.26,-253.7 725.65,-249.24 730.38,-258.72 735.26,-253.7"/>
</g>
<!-- node0x7fba20704950 -->
<g id="node55" class="node">
<title>node0x7fba20704950</title>
<ellipse fill="lightgreen" stroke="black" cx="783" cy="-234" rx="27" ry="18"/>
<text text-anchor="middle" x="783" y="-230.3" font-family="Times,serif" font-size="14.00">1</text>
</g>
<!-- node0x7fba20704980&#45;&gt;node0x7fba20704950 -->
<g id="edge54" class="edge">
<title>node0x7fba20704980&#45;&gt;node0x7fba20704950</title>
<path fill="none" stroke="black" d="M783,-287.7C783,-279.98 783,-270.71 783,-262.11"/>
<polygon fill="black" stroke="black" points="786.5,-262.1 783,-252.1 779.5,-262.1 786.5,-262.1"/>
</g>
<!-- node0x7fba207049b0 -->
<g id="node57" class="node">
<title>node0x7fba207049b0</title>
<ellipse fill="lightgreen" stroke="black" cx="855" cy="-234" rx="27" ry="18"/>
<text text-anchor="middle" x="855" y="-230.3" font-family="Times,serif" font-size="14.00">0</text>
</g>
<!-- node0x7fba20704a10&#45;&gt;node0x7fba207049b0 -->
<g id="edge56" class="edge">
<title>node0x7fba20704a10&#45;&gt;node0x7fba207049b0</title>
<path fill="none" stroke="black" d="M855,-287.7C855,-279.98 855,-270.71 855,-262.11"/>
<polygon fill="black" stroke="black" points="858.5,-262.1 855,-252.1 851.5,-262.1 858.5,-262.1"/>
</g>
<!-- node0x7fba207049e0 -->
<g id="node58" class="node">
<title>node0x7fba207049e0</title>
<ellipse fill="pink" stroke="black" cx="927" cy="-234" rx="27" ry="18"/>
<text text-anchor="middle" x="927" y="-230.3" font-family="Times,serif" font-size="14.00">x</text>
</g>
<!-- node0x7fba20704a10&#45;&gt;node0x7fba207049e0 -->
<g id="edge57" class="edge">
<title>node0x7fba20704a10&#45;&gt;node0x7fba207049e0</title>
<path fill="none" stroke="black" d="M866.89,-293.44C877.21,-283.41 892.42,-268.62 904.96,-256.43"/>
<polygon fill="black" stroke="black" points="907.62,-258.72 912.35,-249.24 902.74,-253.7 907.62,-258.72"/>
</g>
<!-- node0x7fba20704b00 -->
<g id="node60" class="node">
<title>node0x7fba20704b00</title>
<ellipse fill="lightgreen" stroke="black" cx="747" cy="-522" rx="27" ry="18"/>
<text text-anchor="middle" x="747" y="-518.3" font-family="Times,serif" font-size="14.00">1</text>
</g>
<!-- node0x7fba20704c50&#45;&gt;node0x7fba20704b00 -->
<g id="edge59" class="edge">
<title>node0x7fba20704c50&#45;&gt;node0x7fba20704b00</title>
<path fill="none" stroke="black" d="M747,-575.7C747,-567.98 747,-558.71 747,-550.11"/>
<polygon fill="black" stroke="black" points="750.5,-550.1 747,-540.1 743.5,-550.1 750.5,-550.1"/>
</g>
<!-- node0x7fba20704b30 -->
<g id="node61" class="node">
<title>node0x7fba20704b30</title>
<polygon fill="aliceblue" stroke="black" points="810,-516.44 837,-504 864,-516.44 863.97,-536.56 810.03,-536.56 810,-516.44"/>
<text text-anchor="middle" x="837" y="-518.3" font-family="Times,serif" font-size="14.00">sin</text>
</g>
<!-- node0x7fba20704c50&#45;&gt;node0x7fba20704b30 -->
<g id="edge60" class="edge">
<title>node0x7fba20704c50&#45;&gt;node0x7fba20704b30</title>
<path fill="none" stroke="black" d="M761.06,-582.06C774.45,-571.65 794.92,-555.73 811.23,-543.04"/>
<polygon fill="black" stroke="black" points="813.58,-545.65 819.33,-536.75 809.28,-540.12 813.58,-545.65"/>
</g>
<!-- node0x7fba20704b60 -->
<g id="node62" class="node">
<title>node0x7fba20704b60</title>
<polygon fill="aliceblue" stroke="black" points="828,-444.44 855,-432 882,-444.44 881.97,-464.56 828.03,-464.56 828,-444.44"/>
<text text-anchor="middle" x="855" y="-446.3" font-family="Times,serif" font-size="14.00">+</text>
</g>
<!-- node0x7fba20704b30&#45;&gt;node0x7fba20704b60 -->
<g id="edge61" class="edge">
<title>node0x7fba20704b30&#45;&gt;node0x7fba20704b60</title>
<path fill="none" stroke="black" d="M840.99,-505.46C843.33,-496.38 846.33,-484.72 848.95,-474.53"/>
<polygon fill="black" stroke="black" points="852.4,-475.16 851.5,-464.6 845.62,-473.41 852.4,-475.16"/>
</g>
<!-- node0x7fba20704b90 -->
<g id="node63" class="node">
<title>node0x7fba20704b90</title>
<ellipse fill="pink" stroke="black" cx="855" cy="-378" rx="27" ry="18"/>
<text text-anchor="middle" x="855" y="-374.3" font-family="Times,serif" font-size="14.00">y</text>
</g>
<!-- node0x7fba20704b60&#45;&gt;node0x7fba20704b90 -->
<g id="edge62" class="edge">
<title>node0x7fba20704b60&#45;&gt;node0x7fba20704b90</title>
<path fill="none" stroke="black" d="M855,-431.7C855,-423.98 855,-414.71 855,-406.11"/>
<polygon fill="black" stroke="black" points="858.5,-406.1 855,-396.1 851.5,-406.1 858.5,-406.1"/>
</g>
<!-- node0x7fba20704bc0 -->
<g id="node64" class="node">
<title>node0x7fba20704bc0</title>
<polygon fill="aliceblue" stroke="black" points="900,-372.44 927,-360 954,-372.44 953.97,-392.56 900.03,-392.56 900,-372.44"/>
<text text-anchor="middle" x="927" y="-374.3" font-family="Times,serif" font-size="14.00">*</text>
</g>
<!-- node0x7fba20704b60&#45;&gt;node0x7fba20704bc0 -->
<g id="edge63" class="edge">
<title>node0x7fba20704b60&#45;&gt;node0x7fba20704bc0</title>
<path fill="none" stroke="black" d="M866.89,-437.44C877.34,-427.28 892.81,-412.24 905.44,-399.96"/>
<polygon fill="black" stroke="black" points="908.14,-402.22 912.87,-392.74 903.26,-397.2 908.14,-402.22"/>
</g>
<!-- node0x7fba20704bf0 -->
<g id="node65" class="node">
<title>node0x7fba20704bf0</title>
<ellipse fill="lightgreen" stroke="black" cx="927" cy="-306" rx="27" ry="18"/>
<text text-anchor="middle" x="927" y="-302.3" font-family="Times,serif" font-size="14.00">14</text>
</g>
<!-- node0x7fba20704bc0&#45;&gt;node0x7fba20704bf0 -->
<g id="edge64" class="edge">
<title>node0x7fba20704bc0&#45;&gt;node0x7fba20704bf0</title>
<path fill="none" stroke="black" d="M927,-359.7C927,-351.98 927,-342.71 927,-334.11"/>
<polygon fill="black" stroke="black" points="930.5,-334.1 927,-324.1 923.5,-334.1 930.5,-334.1"/>
</g>
<!-- node0x7fba20704c20 -->
<g id="node66" class="node">
<title>node0x7fba20704c20</title>
<ellipse fill="pink" stroke="black" cx="999" cy="-306" rx="27" ry="18"/>
<text text-anchor="middle" x="999" y="-302.3" font-family="Times,serif" font-size="14.00">x</text>
</g>
<!-- node0x7fba20704bc0&#45;&gt;node0x7fba20704c20 -->
<g id="edge65" class="edge">
<title>node0x7fba20704bc0&#45;&gt;node0x7fba20704c20</title>
<path fill="none" stroke="black" d="M938.89,-365.44C949.21,-355.41 964.42,-340.62 976.96,-328.43"/>
<polygon fill="black" stroke="black" points="979.62,-330.72 984.35,-321.24 974.74,-325.7 979.62,-330.72"/>
</g>
</g>
</svg>
