<?xml version="1.0" encoding="UTF-8" standalone="no"?>
<!DOCTYPE svg PUBLIC "-//W3C//DTD SVG 1.1//EN"
 "http://www.w3.org/Graphics/SVG/1.1/DTD/svg11.dtd">
<!-- Generated by graphviz version 2.44.1 (20200629.0846)
 -->
<!-- Title: expr Pages: 1 -->
<svg width="890pt" height="692pt"
 viewBox="0.00 0.00 890.00 692.00" xmlns="http://www.w3.org/2000/svg" xmlns:xlink="http://www.w3.org/1999/xlink">
<g id="graph0" class="graph" transform="scale(1 1) rotate(0) translate(4 688)">
<title>expr</title>
<polygon fill="white" stroke="transparent" points="-4,4 -4,-688 886,-688 886,4 -4,4"/>
<!-- node0x7fb73dc06c30 -->
<g id="node1" class="node">
<title>node0x7fb73dc06c30</title>
<polygon fill="aliceblue" stroke="black" points="648,-660.44 675,-648 702,-660.44 701.97,-680.56 648.03,-680.56 648,-660.44"/>
<text text-anchor="middle" x="675" y="-662.3" font-family="Times,serif" font-size="14.00">&#45;</text>
</g>
<!-- node0x7fb73dc06bd0 -->
<g id="node2" class="node">
<title>node0x7fb73dc06bd0</title>
<polygon fill="aliceblue" stroke="black" points="612,-588.44 639,-576 666,-588.44 665.97,-608.56 612.03,-608.56 612,-588.44"/>
<text text-anchor="middle" x="639" y="-590.3" font-family="Times,serif" font-size="14.00">+</text>
</g>
<!-- node0x7fb73dc06c30&#45;&gt;node0x7fb73dc06bd0 -->
<g id="edge1" class="edge">
<title>node0x7fb73dc06c30&#45;&gt;node0x7fb73dc06bd0</title>
<path fill="none" stroke="black" d="M667.89,-651.17C663.01,-641.68 656.41,-628.86 650.76,-617.86"/>
<polygon fill="black" stroke="black" points="653.78,-616.09 646.1,-608.8 647.56,-619.29 653.78,-616.09"/>
</g>
<!-- node0x7fb73dc06c00 -->
<g id="node49" class="node">
<title>node0x7fb73dc06c00</title>
<ellipse fill="lightgreen" stroke="black" cx="711" cy="-594" rx="27" ry="18"/>
<text text-anchor="middle" x="711" y="-590.3" font-family="Times,serif" font-size="14.00">0</text>
</g>
<!-- node0x7fb73dc06c30&#45;&gt;node0x7fb73dc06c00 -->
<g id="edge48" class="edge">
<title>node0x7fb73dc06c30&#45;&gt;node0x7fb73dc06c00</title>
<path fill="none" stroke="black" d="M682.11,-651.17C686.63,-642.38 692.62,-630.75 697.96,-620.35"/>
<polygon fill="black" stroke="black" points="701.18,-621.75 702.64,-611.26 694.95,-618.55 701.18,-621.75"/>
</g>
<!-- node0x7fb73dc06b70 -->
<g id="node3" class="node">
<title>node0x7fb73dc06b70</title>
<polygon fill="aliceblue" stroke="black" points="576,-516.44 603,-504 630,-516.44 629.97,-536.56 576.03,-536.56 576,-516.44"/>
<text text-anchor="middle" x="603" y="-518.3" font-family="Times,serif" font-size="14.00">&#45;</text>
</g>
<!-- node0x7fb73dc06bd0&#45;&gt;node0x7fb73dc06b70 -->
<g id="edge2" class="edge">
<title>node0x7fb73dc06bd0&#45;&gt;node0x7fb73dc06b70</title>
<path fill="none" stroke="black" d="M631.89,-579.17C627.01,-569.68 620.41,-556.86 614.76,-545.86"/>
<polygon fill="black" stroke="black" points="617.78,-544.09 610.1,-536.8 611.56,-547.29 617.78,-544.09"/>
</g>
<!-- node0x7fb73dc06ba0 -->
<g id="node48" class="node">
<title>node0x7fb73dc06ba0</title>
<ellipse fill="lightgreen" stroke="black" cx="675" cy="-522" rx="27" ry="18"/>
<text text-anchor="middle" x="675" y="-518.3" font-family="Times,serif" font-size="14.00">1</text>
</g>
<!-- node0x7fb73dc06bd0&#45;&gt;node0x7fb73dc06ba0 -->
<g id="edge47" class="edge">
<title>node0x7fb73dc06bd0&#45;&gt;node0x7fb73dc06ba0</title>
<path fill="none" stroke="black" d="M646.11,-579.17C650.63,-570.38 656.62,-558.75 661.96,-548.35"/>
<polygon fill="black" stroke="black" points="665.18,-549.75 666.64,-539.26 658.95,-546.55 665.18,-549.75"/>
</g>
<!-- node0x7fb73dc069f0 -->
<g id="node4" class="node">
<title>node0x7fb73dc069f0</title>
<polygon fill="aliceblue" stroke="black" points="504,-444.44 531,-432 558,-444.44 557.97,-464.56 504.03,-464.56 504,-444.44"/>
<text text-anchor="middle" x="531" y="-446.3" font-family="Times,serif" font-size="14.00">+</text>
</g>
<!-- node0x7fb73dc06b70&#45;&gt;node0x7fb73dc069f0 -->
<g id="edge3" class="edge">
<title>node0x7fb73dc06b70&#45;&gt;node0x7fb73dc069f0</title>
<path fill="none" stroke="black" d="M591.11,-509.44C580.66,-499.28 565.19,-484.24 552.56,-471.96"/>
<polygon fill="black" stroke="black" points="554.74,-469.2 545.13,-464.74 549.86,-474.22 554.74,-469.2"/>
</g>
<!-- node0x7fb73dc06b40 -->
<g id="node41" class="node">
<title>node0x7fb73dc06b40</title>
<polygon fill="aliceblue" stroke="black" points="648,-444.44 675,-432 702,-444.44 701.97,-464.56 648.03,-464.56 648,-444.44"/>
<text text-anchor="middle" x="675" y="-446.3" font-family="Times,serif" font-size="14.00">+</text>
</g>
<!-- node0x7fb73dc06b70&#45;&gt;node0x7fb73dc06b40 -->
<g id="edge40" class="edge">
<title>node0x7fb73dc06b70&#45;&gt;node0x7fb73dc06b40</title>
<path fill="none" stroke="black" d="M614.89,-509.44C625.34,-499.28 640.81,-484.24 653.44,-471.96"/>
<polygon fill="black" stroke="black" points="656.14,-474.22 660.87,-464.74 651.26,-469.2 656.14,-474.22"/>
</g>
<!-- node0x7fb73dc06660 -->
<g id="node5" class="node">
<title>node0x7fb73dc06660</title>
<polygon fill="aliceblue" stroke="black" points="288,-372.44 315,-360 342,-372.44 341.97,-392.56 288.03,-392.56 288,-372.44"/>
<text text-anchor="middle" x="315" y="-374.3" font-family="Times,serif" font-size="14.00">+</text>
</g>
<!-- node0x7fb73dc069f0&#45;&gt;node0x7fb73dc06660 -->
<g id="edge4" class="edge">
<title>node0x7fb73dc069f0&#45;&gt;node0x7fb73dc06660</title>
<path fill="none" stroke="black" d="M509.1,-441.9C472.11,-429.91 396.87,-405.53 351.7,-390.89"/>
<polygon fill="black" stroke="black" points="352.59,-387.5 342,-387.75 350.43,-394.16 352.59,-387.5"/>
</g>
<!-- node0x7fb73dc069c0 -->
<g id="node23" class="node">
<title>node0x7fb73dc069c0</title>
<polygon fill="aliceblue" stroke="black" points="504,-372.44 531,-360 558,-372.44 557.97,-392.56 504.03,-392.56 504,-372.44"/>
<text text-anchor="middle" x="531" y="-374.3" font-family="Times,serif" font-size="14.00">+</text>
</g>
<!-- node0x7fb73dc069f0&#45;&gt;node0x7fb73dc069c0 -->
<g id="edge22" class="edge">
<title>node0x7fb73dc069f0&#45;&gt;node0x7fb73dc069c0</title>
<path fill="none" stroke="black" d="M531,-431.7C531,-422.99 531,-412.3 531,-402.83"/>
<polygon fill="black" stroke="black" points="534.5,-402.82 531,-392.82 527.5,-402.82 534.5,-402.82"/>
</g>
<!-- node0x7fb73dc064b0 -->
<g id="node6" class="node">
<title>node0x7fb73dc064b0</title>
<polygon fill="aliceblue" stroke="black" points="180,-300.44 207,-288 234,-300.44 233.97,-320.56 180.03,-320.56 180,-300.44"/>
<text text-anchor="middle" x="207" y="-302.3" font-family="Times,serif" font-size="14.00">*</text>
</g>
<!-- node0x7fb73dc06660&#45;&gt;node0x7fb73dc064b0 -->
<g id="edge5" class="edge">
<title>node0x7fb73dc06660&#45;&gt;node0x7fb73dc064b0</title>
<path fill="none" stroke="black" d="M299.53,-366.97C283.17,-356.37 256.96,-339.38 236.61,-326.19"/>
<polygon fill="black" stroke="black" points="238.3,-323.12 228.01,-320.62 234.5,-328.99 238.3,-323.12"/>
</g>
<!-- node0x7fb73dc06630 -->
<g id="node15" class="node">
<title>node0x7fb73dc06630</title>
<polygon fill="aliceblue" stroke="black" points="288,-300.44 315,-288 342,-300.44 341.97,-320.56 288.03,-320.56 288,-300.44"/>
<text text-anchor="middle" x="315" y="-302.3" font-family="Times,serif" font-size="14.00">*</text>
</g>
<!-- node0x7fb73dc06660&#45;&gt;node0x7fb73dc06630 -->
<g id="edge14" class="edge">
<title>node0x7fb73dc06660&#45;&gt;node0x7fb73dc06630</title>
<path fill="none" stroke="black" d="M315,-359.7C315,-350.99 315,-340.3 315,-330.83"/>
<polygon fill="black" stroke="black" points="318.5,-330.82 315,-320.82 311.5,-330.82 318.5,-330.82"/>
</g>
<!-- node0x7fb73dc06450 -->
<g id="node7" class="node">
<title>node0x7fb73dc06450</title>
<polygon fill="aliceblue" stroke="black" points="72,-228.44 99,-216 126,-228.44 125.97,-248.56 72.03,-248.56 72,-228.44"/>
<text text-anchor="middle" x="99" y="-230.3" font-family="Times,serif" font-size="14.00">*</text>
</g>
<!-- node0x7fb73dc064b0&#45;&gt;node0x7fb73dc06450 -->
<g id="edge6" class="edge">
<title>node0x7fb73dc064b0&#45;&gt;node0x7fb73dc06450</title>
<path fill="none" stroke="black" d="M191.53,-294.97C175.17,-284.37 148.96,-267.38 128.61,-254.19"/>
<polygon fill="black" stroke="black" points="130.3,-251.12 120.01,-248.62 126.5,-256.99 130.3,-251.12"/>
</g>
<!-- node0x7fb73dc06480 -->
<g id="node14" class="node">
<title>node0x7fb73dc06480</title>
<ellipse fill="lightgreen" stroke="black" cx="207" cy="-234" rx="27" ry="18"/>
<text text-anchor="middle" x="207" y="-230.3" font-family="Times,serif" font-size="14.00">1</text>
</g>
<!-- node0x7fb73dc064b0&#45;&gt;node0x7fb73dc06480 -->
<g id="edge13" class="edge">
<title>node0x7fb73dc064b0&#45;&gt;node0x7fb73dc06480</title>
<path fill="none" stroke="black" d="M207,-287.7C207,-279.98 207,-270.71 207,-262.11"/>
<polygon fill="black" stroke="black" points="210.5,-262.1 207,-252.1 203.5,-262.1 210.5,-262.1"/>
</g>
<!-- node0x7fb73dc06130 -->
<g id="node8" class="node">
<title>node0x7fb73dc06130</title>
<ellipse fill="lightgreen" stroke="black" cx="27" cy="-162" rx="27" ry="18"/>
<text text-anchor="middle" x="27" y="-158.3" font-family="Times,serif" font-size="14.00">2</text>
</g>
<!-- node0x7fb73dc06450&#45;&gt;node0x7fb73dc06130 -->
<g id="edge7" class="edge">
<title>node0x7fb73dc06450&#45;&gt;node0x7fb73dc06130</title>
<path fill="none" stroke="black" d="M87.11,-221.44C76.79,-211.41 61.58,-196.62 49.04,-184.43"/>
<polygon fill="black" stroke="black" points="51.26,-181.7 41.65,-177.24 46.38,-186.72 51.26,-181.7"/>
</g>
<!-- node0x7fb73dc06420 -->
<g id="node9" class="node">
<title>node0x7fb73dc06420</title>
<polygon fill="aliceblue" stroke="black" points="72,-156.44 99,-144 126,-156.44 125.97,-176.56 72.03,-176.56 72,-156.44"/>
<text text-anchor="middle" x="99" y="-158.3" font-family="Times,serif" font-size="14.00">^</text>
</g>
<!-- node0x7fb73dc06450&#45;&gt;node0x7fb73dc06420 -->
<g id="edge8" class="edge">
<title>node0x7fb73dc06450&#45;&gt;node0x7fb73dc06420</title>
<path fill="none" stroke="black" d="M99,-215.7C99,-206.99 99,-196.3 99,-186.83"/>
<polygon fill="black" stroke="black" points="102.5,-186.82 99,-176.82 95.5,-186.82 102.5,-186.82"/>
</g>
<!-- node0x7fb73dc06160 -->
<g id="node10" class="node">
<title>node0x7fb73dc06160</title>
<ellipse fill="pink" stroke="black" cx="27" cy="-90" rx="27" ry="18"/>
<text text-anchor="middle" x="27" y="-86.3" font-family="Times,serif" font-size="14.00">x</text>
</g>
<!-- node0x7fb73dc06420&#45;&gt;node0x7fb73dc06160 -->
<g id="edge9" class="edge">
<title>node0x7fb73dc06420&#45;&gt;node0x7fb73dc06160</title>
<path fill="none" stroke="black" d="M87.11,-149.44C76.79,-139.41 61.58,-124.62 49.04,-112.43"/>
<polygon fill="black" stroke="black" points="51.26,-109.7 41.65,-105.24 46.38,-114.72 51.26,-109.7"/>
</g>
<!-- node0x7fb73dc063f0 -->
<g id="node11" class="node">
<title>node0x7fb73dc063f0</title>
<polygon fill="aliceblue" stroke="black" points="72,-84.44 99,-72 126,-84.44 125.97,-104.56 72.03,-104.56 72,-84.44"/>
<text text-anchor="middle" x="99" y="-86.3" font-family="Times,serif" font-size="14.00">&#45;</text>
</g>
<!-- node0x7fb73dc06420&#45;&gt;node0x7fb73dc063f0 -->
<g id="edge10" class="edge">
<title>node0x7fb73dc06420&#45;&gt;node0x7fb73dc063f0</title>
<path fill="none" stroke="black" d="M99,-143.7C99,-134.99 99,-124.3 99,-114.83"/>
<polygon fill="black" stroke="black" points="102.5,-114.82 99,-104.82 95.5,-114.82 102.5,-114.82"/>
</g>
<!-- node0x7fb73dc06190 -->
<g id="node12" class="node">
<title>node0x7fb73dc06190</title>
<ellipse fill="lightgreen" stroke="black" cx="63" cy="-18" rx="27" ry="18"/>
<text text-anchor="middle" x="63" y="-14.3" font-family="Times,serif" font-size="14.00">2</text>
</g>
<!-- node0x7fb73dc063f0&#45;&gt;node0x7fb73dc06190 -->
<g id="edge11" class="edge">
<title>node0x7fb73dc063f0&#45;&gt;node0x7fb73dc06190</title>
<path fill="none" stroke="black" d="M91.89,-75.17C87.37,-66.38 81.38,-54.75 76.04,-44.35"/>
<polygon fill="black" stroke="black" points="79.05,-42.55 71.36,-35.26 72.82,-45.75 79.05,-42.55"/>
</g>
<!-- node0x7fb73dc063c0 -->
<g id="node13" class="node">
<title>node0x7fb73dc063c0</title>
<ellipse fill="lightgreen" stroke="black" cx="135" cy="-18" rx="27" ry="18"/>
<text text-anchor="middle" x="135" y="-14.3" font-family="Times,serif" font-size="14.00">1</text>
</g>
<!-- node0x7fb73dc063f0&#45;&gt;node0x7fb73dc063c0 -->
<g id="edge12" class="edge">
<title>node0x7fb73dc063f0&#45;&gt;node0x7fb73dc063c0</title>
<path fill="none" stroke="black" d="M106.11,-75.17C110.63,-66.38 116.62,-54.75 121.96,-44.35"/>
<polygon fill="black" stroke="black" points="125.18,-45.75 126.64,-35.26 118.95,-42.55 125.18,-45.75"/>
</g>
<!-- node0x7fb73dc065d0 -->
<g id="node16" class="node">
<title>node0x7fb73dc065d0</title>
<polygon fill="aliceblue" stroke="black" points="252,-228.44 279,-216 306,-228.44 305.97,-248.56 252.03,-248.56 252,-228.44"/>
<text text-anchor="middle" x="279" y="-230.3" font-family="Times,serif" font-size="14.00">*</text>
</g>
<!-- node0x7fb73dc06630&#45;&gt;node0x7fb73dc065d0 -->
<g id="edge15" class="edge">
<title>node0x7fb73dc06630&#45;&gt;node0x7fb73dc065d0</title>
<path fill="none" stroke="black" d="M307.89,-291.17C303.01,-281.68 296.41,-268.86 290.76,-257.86"/>
<polygon fill="black" stroke="black" points="293.78,-256.09 286.1,-248.8 287.56,-259.29 293.78,-256.09"/>
</g>
<!-- node0x7fb73dc06600 -->
<g id="node22" class="node">
<title>node0x7fb73dc06600</title>
<ellipse fill="lightgreen" stroke="black" cx="351" cy="-234" rx="27" ry="18"/>
<text text-anchor="middle" x="351" y="-230.3" font-family="Times,serif" font-size="14.00">0</text>
</g>
<!-- node0x7fb73dc06630&#45;&gt;node0x7fb73dc06600 -->
<g id="edge21" class="edge">
<title>node0x7fb73dc06630&#45;&gt;node0x7fb73dc06600</title>
<path fill="none" stroke="black" d="M322.11,-291.17C326.63,-282.38 332.62,-270.75 337.96,-260.35"/>
<polygon fill="black" stroke="black" points="341.18,-261.75 342.64,-251.26 334.95,-258.55 341.18,-261.75"/>
</g>
<!-- node0x7fb73dc06540 -->
<g id="node17" class="node">
<title>node0x7fb73dc06540</title>
<polygon fill="aliceblue" stroke="black" points="216,-156.44 243,-144 270,-156.44 269.97,-176.56 216.03,-176.56 216,-156.44"/>
<text text-anchor="middle" x="243" y="-158.3" font-family="Times,serif" font-size="14.00">^</text>
</g>
<!-- node0x7fb73dc065d0&#45;&gt;node0x7fb73dc06540 -->
<g id="edge16" class="edge">
<title>node0x7fb73dc065d0&#45;&gt;node0x7fb73dc06540</title>
<path fill="none" stroke="black" d="M271.89,-219.17C267.01,-209.68 260.41,-196.86 254.76,-185.86"/>
<polygon fill="black" stroke="black" points="257.78,-184.09 250.1,-176.8 251.56,-187.29 257.78,-184.09"/>
</g>
<!-- node0x7fb73dc065a0 -->
<g id="node20" class="node">
<title>node0x7fb73dc065a0</title>
<polygon fill="aliceblue" stroke="black" points="287.87,-156.44 315,-144 342.13,-156.44 342.11,-176.56 287.89,-176.56 287.87,-156.44"/>
<text text-anchor="middle" x="315" y="-158.3" font-family="Times,serif" font-size="14.00">log</text>
</g>
<!-- node0x7fb73dc065d0&#45;&gt;node0x7fb73dc065a0 -->
<g id="edge19" class="edge">
<title>node0x7fb73dc065d0&#45;&gt;node0x7fb73dc065a0</title>
<path fill="none" stroke="black" d="M286.11,-219.17C290.99,-209.68 297.59,-196.86 303.24,-185.86"/>
<polygon fill="black" stroke="black" points="306.44,-187.29 307.9,-176.8 300.22,-184.09 306.44,-187.29"/>
</g>
<!-- node0x7fb73dc064e0 -->
<g id="node18" class="node">
<title>node0x7fb73dc064e0</title>
<ellipse fill="pink" stroke="black" cx="171" cy="-90" rx="27" ry="18"/>
<text text-anchor="middle" x="171" y="-86.3" font-family="Times,serif" font-size="14.00">x</text>
</g>
<!-- node0x7fb73dc06540&#45;&gt;node0x7fb73dc064e0 -->
<g id="edge17" class="edge">
<title>node0x7fb73dc06540&#45;&gt;node0x7fb73dc064e0</title>
<path fill="none" stroke="black" d="M231.11,-149.44C220.79,-139.41 205.58,-124.62 193.04,-112.43"/>
<polygon fill="black" stroke="black" points="195.26,-109.7 185.65,-105.24 190.38,-114.72 195.26,-109.7"/>
</g>
<!-- node0x7fb73dc06510 -->
<g id="node19" class="node">
<title>node0x7fb73dc06510</title>
<ellipse fill="lightgreen" stroke="black" cx="243" cy="-90" rx="27" ry="18"/>
<text text-anchor="middle" x="243" y="-86.3" font-family="Times,serif" font-size="14.00">2</text>
</g>
<!-- node0x7fb73dc06540&#45;&gt;node0x7fb73dc06510 -->
<g id="edge18" class="edge">
<title>node0x7fb73dc06540&#45;&gt;node0x7fb73dc06510</title>
<path fill="none" stroke="black" d="M243,-143.7C243,-135.98 243,-126.71 243,-118.11"/>
<polygon fill="black" stroke="black" points="246.5,-118.1 243,-108.1 239.5,-118.1 246.5,-118.1"/>
</g>
<!-- node0x7fb73dc06570 -->
<g id="node21" class="node">
<title>node0x7fb73dc06570</title>
<ellipse fill="pink" stroke="black" cx="315" cy="-90" rx="27" ry="18"/>
<text text-anchor="middle" x="315" y="-86.3" font-family="Times,serif" font-size="14.00">x</text>
</g>
<!-- node0x7fb73dc065a0&#45;&gt;node0x7fb73dc06570 -->
<g id="edge20" class="edge">
<title>node0x7fb73dc065a0&#45;&gt;node0x7fb73dc06570</title>
<path fill="none" stroke="black" d="M315,-143.7C315,-135.98 315,-126.71 315,-118.11"/>
<polygon fill="black" stroke="black" points="318.5,-118.1 315,-108.1 311.5,-118.1 318.5,-118.1"/>
</g>
<!-- node0x7fb73dc06810 -->
<g id="node24" class="node">
<title>node0x7fb73dc06810</title>
<polygon fill="aliceblue" stroke="black" points="468,-300.44 495,-288 522,-300.44 521.97,-320.56 468.03,-320.56 468,-300.44"/>
<text text-anchor="middle" x="495" y="-302.3" font-family="Times,serif" font-size="14.00">*</text>
</g>
<!-- node0x7fb73dc069c0&#45;&gt;node0x7fb73dc06810 -->
<g id="edge23" class="edge">
<title>node0x7fb73dc069c0&#45;&gt;node0x7fb73dc06810</title>
<path fill="none" stroke="black" d="M523.89,-363.17C519.01,-353.68 512.41,-340.86 506.76,-329.86"/>
<polygon fill="black" stroke="black" points="509.78,-328.09 502.1,-320.8 503.56,-331.29 509.78,-328.09"/>
</g>
<!-- node0x7fb73dc06990 -->
<g id="node33" class="node">
<title>node0x7fb73dc06990</title>
<polygon fill="aliceblue" stroke="black" points="540,-300.44 567,-288 594,-300.44 593.97,-320.56 540.03,-320.56 540,-300.44"/>
<text text-anchor="middle" x="567" y="-302.3" font-family="Times,serif" font-size="14.00">*</text>
</g>
<!-- node0x7fb73dc069c0&#45;&gt;node0x7fb73dc06990 -->
<g id="edge32" class="edge">
<title>node0x7fb73dc069c0&#45;&gt;node0x7fb73dc06990</title>
<path fill="none" stroke="black" d="M538.11,-363.17C542.99,-353.68 549.59,-340.86 555.24,-329.86"/>
<polygon fill="black" stroke="black" points="558.44,-331.29 559.9,-320.8 552.22,-328.09 558.44,-331.29"/>
</g>
<!-- node0x7fb73dc067b0 -->
<g id="node25" class="node">
<title>node0x7fb73dc067b0</title>
<polygon fill="aliceblue" stroke="black" points="396,-228.44 423,-216 450,-228.44 449.97,-248.56 396.03,-248.56 396,-228.44"/>
<text text-anchor="middle" x="423" y="-230.3" font-family="Times,serif" font-size="14.00">*</text>
</g>
<!-- node0x7fb73dc06810&#45;&gt;node0x7fb73dc067b0 -->
<g id="edge24" class="edge">
<title>node0x7fb73dc06810&#45;&gt;node0x7fb73dc067b0</title>
<path fill="none" stroke="black" d="M483.11,-293.44C472.66,-283.28 457.19,-268.24 444.56,-255.96"/>
<polygon fill="black" stroke="black" points="446.74,-253.2 437.13,-248.74 441.86,-258.22 446.74,-253.2"/>
</g>
<!-- node0x7fb73dc067e0 -->
<g id="node32" class="node">
<title>node0x7fb73dc067e0</title>
<ellipse fill="lightgreen" stroke="black" cx="495" cy="-234" rx="27" ry="18"/>
<text text-anchor="middle" x="495" y="-230.3" font-family="Times,serif" font-size="14.00">0</text>
</g>
<!-- node0x7fb73dc06810&#45;&gt;node0x7fb73dc067e0 -->
<g id="edge31" class="edge">
<title>node0x7fb73dc06810&#45;&gt;node0x7fb73dc067e0</title>
<path fill="none" stroke="black" d="M495,-287.7C495,-279.98 495,-270.71 495,-262.11"/>
<polygon fill="black" stroke="black" points="498.5,-262.1 495,-252.1 491.5,-262.1 498.5,-262.1"/>
</g>
<!-- node0x7fb73dc06690 -->
<g id="node26" class="node">
<title>node0x7fb73dc06690</title>
<ellipse fill="lightgreen" stroke="black" cx="387" cy="-162" rx="27" ry="18"/>
<text text-anchor="middle" x="387" y="-158.3" font-family="Times,serif" font-size="14.00">2</text>
</g>
<!-- node0x7fb73dc067b0&#45;&gt;node0x7fb73dc06690 -->
<g id="edge25" class="edge">
<title>node0x7fb73dc067b0&#45;&gt;node0x7fb73dc06690</title>
<path fill="none" stroke="black" d="M415.89,-219.17C411.37,-210.38 405.38,-198.75 400.04,-188.35"/>
<polygon fill="black" stroke="black" points="403.05,-186.55 395.36,-179.26 396.82,-189.75 403.05,-186.55"/>
</g>
<!-- node0x7fb73dc06780 -->
<g id="node27" class="node">
<title>node0x7fb73dc06780</title>
<polygon fill="aliceblue" stroke="black" points="432,-156.44 459,-144 486,-156.44 485.97,-176.56 432.03,-176.56 432,-156.44"/>
<text text-anchor="middle" x="459" y="-158.3" font-family="Times,serif" font-size="14.00">^</text>
</g>
<!-- node0x7fb73dc067b0&#45;&gt;node0x7fb73dc06780 -->
<g id="edge26" class="edge">
<title>node0x7fb73dc067b0&#45;&gt;node0x7fb73dc06780</title>
<path fill="none" stroke="black" d="M430.11,-219.17C434.99,-209.68 441.59,-196.86 447.24,-185.86"/>
<polygon fill="black" stroke="black" points="450.44,-187.29 451.9,-176.8 444.22,-184.09 450.44,-187.29"/>
</g>
<!-- node0x7fb73dc066c0 -->
<g id="node28" class="node">
<title>node0x7fb73dc066c0</title>
<ellipse fill="pink" stroke="black" cx="387" cy="-90" rx="27" ry="18"/>
<text text-anchor="middle" x="387" y="-86.3" font-family="Times,serif" font-size="14.00">y</text>
</g>
<!-- node0x7fb73dc06780&#45;&gt;node0x7fb73dc066c0 -->
<g id="edge27" class="edge">
<title>node0x7fb73dc06780&#45;&gt;node0x7fb73dc066c0</title>
<path fill="none" stroke="black" d="M447.11,-149.44C436.79,-139.41 421.58,-124.62 409.04,-112.43"/>
<polygon fill="black" stroke="black" points="411.26,-109.7 401.65,-105.24 406.38,-114.72 411.26,-109.7"/>
</g>
<!-- node0x7fb73dc06750 -->
<g id="node29" class="node">
<title>node0x7fb73dc06750</title>
<polygon fill="aliceblue" stroke="black" points="432,-84.44 459,-72 486,-84.44 485.97,-104.56 432.03,-104.56 432,-84.44"/>
<text text-anchor="middle" x="459" y="-86.3" font-family="Times,serif" font-size="14.00">&#45;</text>
</g>
<!-- node0x7fb73dc06780&#45;&gt;node0x7fb73dc06750 -->
<g id="edge28" class="edge">
<title>node0x7fb73dc06780&#45;&gt;node0x7fb73dc06750</title>
<path fill="none" stroke="black" d="M459,-143.7C459,-134.99 459,-124.3 459,-114.83"/>
<polygon fill="black" stroke="black" points="462.5,-114.82 459,-104.82 455.5,-114.82 462.5,-114.82"/>
</g>
<!-- node0x7fb73dc066f0 -->
<g id="node30" class="node">
<title>node0x7fb73dc066f0</title>
<ellipse fill="lightgreen" stroke="black" cx="423" cy="-18" rx="27" ry="18"/>
<text text-anchor="middle" x="423" y="-14.3" font-family="Times,serif" font-size="14.00">2</text>
</g>
<!-- node0x7fb73dc06750&#45;&gt;node0x7fb73dc066f0 -->
<g id="edge29" class="edge">
<title>node0x7fb73dc06750&#45;&gt;node0x7fb73dc066f0</title>
<path fill="none" stroke="black" d="M451.89,-75.17C447.37,-66.38 441.38,-54.75 436.04,-44.35"/>
<polygon fill="black" stroke="black" points="439.05,-42.55 431.36,-35.26 432.82,-45.75 439.05,-42.55"/>
</g>
<!-- node0x7fb73dc06720 -->
<g id="node31" class="node">
<title>node0x7fb73dc06720</title>
<ellipse fill="lightgreen" stroke="black" cx="495" cy="-18" rx="27" ry="18"/>
<text text-anchor="middle" x="495" y="-14.3" font-family="Times,serif" font-size="14.00">1</text>
</g>
<!-- node0x7fb73dc06750&#45;&gt;node0x7fb73dc06720 -->
<g id="edge30" class="edge">
<title>node0x7fb73dc06750&#45;&gt;node0x7fb73dc06720</title>
<path fill="none" stroke="black" d="M466.11,-75.17C470.63,-66.38 476.62,-54.75 481.96,-44.35"/>
<polygon fill="black" stroke="black" points="485.18,-45.75 486.64,-35.26 478.95,-42.55 485.18,-45.75"/>
</g>
<!-- node0x7fb73dc06930 -->
<g id="node34" class="node">
<title>node0x7fb73dc06930</title>
<polygon fill="aliceblue" stroke="black" points="540,-228.44 567,-216 594,-228.44 593.97,-248.56 540.03,-248.56 540,-228.44"/>
<text text-anchor="middle" x="567" y="-230.3" font-family="Times,serif" font-size="14.00">*</text>
</g>
<!-- node0x7fb73dc06990&#45;&gt;node0x7fb73dc06930 -->
<g id="edge33" class="edge">
<title>node0x7fb73dc06990&#45;&gt;node0x7fb73dc06930</title>
<path fill="none" stroke="black" d="M567,-287.7C567,-278.99 567,-268.3 567,-258.83"/>
<polygon fill="black" stroke="black" points="570.5,-258.82 567,-248.82 563.5,-258.82 570.5,-258.82"/>
</g>
<!-- node0x7fb73dc06960 -->
<g id="node40" class="node">
<title>node0x7fb73dc06960</title>
<ellipse fill="lightgreen" stroke="black" cx="639" cy="-234" rx="27" ry="18"/>
<text text-anchor="middle" x="639" y="-230.3" font-family="Times,serif" font-size="14.00">0</text>
</g>
<!-- node0x7fb73dc06990&#45;&gt;node0x7fb73dc06960 -->
<g id="edge39" class="edge">
<title>node0x7fb73dc06990&#45;&gt;node0x7fb73dc06960</title>
<path fill="none" stroke="black" d="M578.89,-293.44C589.21,-283.41 604.42,-268.62 616.96,-256.43"/>
<polygon fill="black" stroke="black" points="619.62,-258.72 624.35,-249.24 614.74,-253.7 619.62,-258.72"/>
</g>
<!-- node0x7fb73dc068a0 -->
<g id="node35" class="node">
<title>node0x7fb73dc068a0</title>
<polygon fill="aliceblue" stroke="black" points="540,-156.44 567,-144 594,-156.44 593.97,-176.56 540.03,-176.56 540,-156.44"/>
<text text-anchor="middle" x="567" y="-158.3" font-family="Times,serif" font-size="14.00">^</text>
</g>
<!-- node0x7fb73dc06930&#45;&gt;node0x7fb73dc068a0 -->
<g id="edge34" class="edge">
<title>node0x7fb73dc06930&#45;&gt;node0x7fb73dc068a0</title>
<path fill="none" stroke="black" d="M567,-215.7C567,-206.99 567,-196.3 567,-186.83"/>
<polygon fill="black" stroke="black" points="570.5,-186.82 567,-176.82 563.5,-186.82 570.5,-186.82"/>
</g>
<!-- node0x7fb73dc06900 -->
<g id="node38" class="node">
<title>node0x7fb73dc06900</title>
<polygon fill="aliceblue" stroke="black" points="629.87,-156.44 657,-144 684.13,-156.44 684.11,-176.56 629.89,-176.56 629.87,-156.44"/>
<text text-anchor="middle" x="657" y="-158.3" font-family="Times,serif" font-size="14.00">log</text>
</g>
<!-- node0x7fb73dc06930&#45;&gt;node0x7fb73dc06900 -->
<g id="edge37" class="edge">
<title>node0x7fb73dc06930&#45;&gt;node0x7fb73dc06900</title>
<path fill="none" stroke="black" d="M581.06,-222.06C594.45,-211.65 614.92,-195.73 631.23,-183.04"/>
<polygon fill="black" stroke="black" points="633.58,-185.65 639.33,-176.75 629.28,-180.12 633.58,-185.65"/>
</g>
<!-- node0x7fb73dc06840 -->
<g id="node36" class="node">
<title>node0x7fb73dc06840</title>
<ellipse fill="pink" stroke="black" cx="531" cy="-90" rx="27" ry="18"/>
<text text-anchor="middle" x="531" y="-86.3" font-family="Times,serif" font-size="14.00">y</text>
</g>
<!-- node0x7fb73dc068a0&#45;&gt;node0x7fb73dc06840 -->
<g id="edge35" class="edge">
<title>node0x7fb73dc068a0&#45;&gt;node0x7fb73dc06840</title>
<path fill="none" stroke="black" d="M559.89,-147.17C555.37,-138.38 549.38,-126.75 544.04,-116.35"/>
<polygon fill="black" stroke="black" points="547.05,-114.55 539.36,-107.26 540.82,-117.75 547.05,-114.55"/>
</g>
<!-- node0x7fb73dc06870 -->
<g id="node37" class="node">
<title>node0x7fb73dc06870</title>
<ellipse fill="lightgreen" stroke="black" cx="603" cy="-90" rx="27" ry="18"/>
<text text-anchor="middle" x="603" y="-86.3" font-family="Times,serif" font-size="14.00">2</text>
</g>
<!-- node0x7fb73dc068a0&#45;&gt;node0x7fb73dc06870 -->
<g id="edge36" class="edge">
<title>node0x7fb73dc068a0&#45;&gt;node0x7fb73dc06870</title>
<path fill="none" stroke="black" d="M574.11,-147.17C578.63,-138.38 584.62,-126.75 589.96,-116.35"/>
<polygon fill="black" stroke="black" points="593.18,-117.75 594.64,-107.26 586.95,-114.55 593.18,-117.75"/>
</g>
<!-- node0x7fb73dc068d0 -->
<g id="node39" class="node">
<title>node0x7fb73dc068d0</title>
<ellipse fill="pink" stroke="black" cx="675" cy="-90" rx="27" ry="18"/>
<text text-anchor="middle" x="675" y="-86.3" font-family="Times,serif" font-size="14.00">y</text>
</g>
<!-- node0x7fb73dc06900&#45;&gt;node0x7fb73dc068d0 -->
<g id="edge38" class="edge">
<title>node0x7fb73dc06900&#45;&gt;node0x7fb73dc068d0</title>
<path fill="none" stroke="black" d="M660.99,-145.46C663.09,-137.3 665.73,-127.07 668.14,-117.68"/>
<polygon fill="black" stroke="black" points="671.54,-118.52 670.64,-107.96 664.76,-116.78 671.54,-118.52"/>
</g>
<!-- node0x7fb73dc06a80 -->
<g id="node42" class="node">
<title>node0x7fb73dc06a80</title>
<polygon fill="aliceblue" stroke="black" points="648,-372.44 675,-360 702,-372.44 701.97,-392.56 648.03,-392.56 648,-372.44"/>
<text text-anchor="middle" x="675" y="-374.3" font-family="Times,serif" font-size="14.00">*</text>
</g>
<!-- node0x7fb73dc06b40&#45;&gt;node0x7fb73dc06a80 -->
<g id="edge41" class="edge">
<title>node0x7fb73dc06b40&#45;&gt;node0x7fb73dc06a80</title>
<path fill="none" stroke="black" d="M675,-431.7C675,-422.99 675,-412.3 675,-402.83"/>
<polygon fill="black" stroke="black" points="678.5,-402.82 675,-392.82 671.5,-402.82 678.5,-402.82"/>
</g>
<!-- node0x7fb73dc06b10 -->
<g id="node45" class="node">
<title>node0x7fb73dc06b10</title>
<polygon fill="aliceblue" stroke="black" points="756,-372.44 783,-360 810,-372.44 809.97,-392.56 756.03,-392.56 756,-372.44"/>
<text text-anchor="middle" x="783" y="-374.3" font-family="Times,serif" font-size="14.00">*</text>
</g>
<!-- node0x7fb73dc06b40&#45;&gt;node0x7fb73dc06b10 -->
<g id="edge44" class="edge">
<title>node0x7fb73dc06b40&#45;&gt;node0x7fb73dc06b10</title>
<path fill="none" stroke="black" d="M690.47,-438.97C706.83,-428.37 733.04,-411.38 753.39,-398.19"/>
<polygon fill="black" stroke="black" points="755.5,-400.99 761.99,-392.62 751.7,-395.12 755.5,-400.99"/>
</g>
<!-- node0x7fb73dc06a20 -->
<g id="node43" class="node">
<title>node0x7fb73dc06a20</title>
<ellipse fill="pink" stroke="black" cx="639" cy="-306" rx="27" ry="18"/>
<text text-anchor="middle" x="639" y="-302.3" font-family="Times,serif" font-size="14.00">x</text>
</g>
<!-- node0x7fb73dc06a80&#45;&gt;node0x7fb73dc06a20 -->
<g id="edge42" class="edge">
<title>node0x7fb73dc06a80&#45;&gt;node0x7fb73dc06a20</title>
<path fill="none" stroke="black" d="M667.89,-363.17C663.37,-354.38 657.38,-342.75 652.04,-332.35"/>
<polygon fill="black" stroke="black" points="655.05,-330.55 647.36,-323.26 648.82,-333.75 655.05,-330.55"/>
</g>
<!-- node0x7fb73dc06a50 -->
<g id="node44" class="node">
<title>node0x7fb73dc06a50</title>
<ellipse fill="lightgreen" stroke="black" cx="711" cy="-306" rx="27" ry="18"/>
<text text-anchor="middle" x="711" y="-302.3" font-family="Times,serif" font-size="14.00">0</text>
</g>
<!-- node0x7fb73dc06a80&#45;&gt;node0x7fb73dc06a50 -->
<g id="edge43" class="edge">
<title>node0x7fb73dc06a80&#45;&gt;node0x7fb73dc06a50</title>
<path fill="none" stroke="black" d="M682.11,-363.17C686.63,-354.38 692.62,-342.75 697.96,-332.35"/>
<polygon fill="black" stroke="black" points="701.18,-333.75 702.64,-323.26 694.95,-330.55 701.18,-333.75"/>
</g>
<!-- node0x7fb73dc06ab0 -->
<g id="node46" class="node">
<title>node0x7fb73dc06ab0</title>
<ellipse fill="lightgreen" stroke="black" cx="783" cy="-306" rx="27" ry="18"/>
<text text-anchor="middle" x="783" y="-302.3" font-family="Times,serif" font-size="14.00">1</text>
</g>
<!-- node0x7fb73dc06b10&#45;&gt;node0x7fb73dc06ab0 -->
<g id="edge45" class="edge">
<title>node0x7fb73dc06b10&#45;&gt;node0x7fb73dc06ab0</title>
<path fill="none" stroke="black" d="M783,-359.7C783,-351.98 783,-342.71 783,-334.11"/>
<polygon fill="black" stroke="black" points="786.5,-334.1 783,-324.1 779.5,-334.1 786.5,-334.1"/>
</g>
<!-- node0x7fb73dc06ae0 -->
<g id="node47" class="node">
<title>node0x7fb73dc06ae0</title>
<ellipse fill="pink" stroke="black" cx="855" cy="-306" rx="27" ry="18"/>
<text text-anchor="middle" x="855" y="-302.3" font-family="Times,serif" font-size="14.00">y</text>
</g>
<!-- node0x7fb73dc06b10&#45;&gt;node0x7fb73dc06ae0 -->
<g id="edge46" class="edge">
<title>node0x7fb73dc06b10&#45;&gt;node0x7fb73dc06ae0</title>
<path fill="none" stroke="black" d="M794.89,-365.44C805.21,-355.41 820.42,-340.62 832.96,-328.43"/>
<polygon fill="black" stroke="black" points="835.62,-330.72 840.35,-321.24 830.74,-325.7 835.62,-330.72"/>
</g>
</g>
</svg>
