<?xml version="1.0" encoding="UTF-8" standalone="no"?>
<!DOCTYPE svg PUBLIC "-//W3C//DTD SVG 1.1//EN"
 "http://www.w3.org/Graphics/SVG/1.1/DTD/svg11.dtd">
<!-- Generated by graphviz version 2.44.1 (20200629.0846)
 -->
<!-- Title: expr Pages: 1 -->
<svg width="531pt" height="548pt"
 viewBox="0.00 0.00 531.00 548.00" xmlns="http://www.w3.org/2000/svg" xmlns:xlink="http://www.w3.org/1999/xlink">
<g id="graph0" class="graph" transform="scale(1 1) rotate(0) translate(4 544)">
<title>expr</title>
<polygon fill="white" stroke="transparent" points="-4,4 -4,-544 527,-544 527,4 -4,4"/>
<!-- node0x10084b5f0 -->
<g id="node1" class="node">
<title>node0x10084b5f0</title>
<polygon fill="aliceblue" stroke="black" points="359,-516.44 386,-504 413,-516.44 412.97,-536.56 359.03,-536.56 359,-516.44"/>
<text text-anchor="middle" x="386" y="-518.3" font-family="Times,serif" font-size="14.00">+</text>
</g>
<!-- node0x10084b3c0 -->
<g id="node2" class="node">
<title>node0x10084b3c0</title>
<polygon fill="aliceblue" stroke="black" points="323,-444.44 350,-432 377,-444.44 376.97,-464.56 323.03,-464.56 323,-444.44"/>
<text text-anchor="middle" x="350" y="-446.3" font-family="Times,serif" font-size="14.00">+</text>
</g>
<!-- node0x10084b5f0&#45;&gt;node0x10084b3c0 -->
<g id="edge1" class="edge">
<title>node0x10084b5f0&#45;&gt;node0x10084b3c0</title>
<path fill="none" stroke="black" d="M378.89,-507.17C374.01,-497.68 367.41,-484.86 361.76,-473.86"/>
<polygon fill="black" stroke="black" points="364.78,-472.09 357.1,-464.8 358.56,-475.29 364.78,-472.09"/>
</g>
<!-- node0x10084b580 -->
<g id="node21" class="node">
<title>node0x10084b580</title>
<polygon fill="aliceblue" stroke="black" points="396,-444.44 423,-432 450,-444.44 449.97,-464.56 396.03,-464.56 396,-444.44"/>
<text text-anchor="middle" x="423" y="-446.3" font-family="Times,serif" font-size="14.00">*</text>
</g>
<!-- node0x10084b5f0&#45;&gt;node0x10084b580 -->
<g id="edge20" class="edge">
<title>node0x10084b5f0&#45;&gt;node0x10084b580</title>
<path fill="none" stroke="black" d="M393.31,-507.17C398.33,-497.68 405.1,-484.86 410.91,-473.86"/>
<polygon fill="black" stroke="black" points="414.13,-475.28 415.71,-464.8 407.94,-472.01 414.13,-475.28"/>
</g>
<!-- node0x10084abe0 -->
<g id="node3" class="node">
<title>node0x10084abe0</title>
<ellipse fill="lightgreen" stroke="black" cx="278" cy="-378" rx="27" ry="18"/>
<text text-anchor="middle" x="278" y="-374.3" font-family="Times,serif" font-size="14.00">1</text>
</g>
<!-- node0x10084b3c0&#45;&gt;node0x10084abe0 -->
<g id="edge2" class="edge">
<title>node0x10084b3c0&#45;&gt;node0x10084abe0</title>
<path fill="none" stroke="black" d="M338.11,-437.44C327.79,-427.41 312.58,-412.62 300.04,-400.43"/>
<polygon fill="black" stroke="black" points="302.26,-397.7 292.65,-393.24 297.38,-402.72 302.26,-397.7"/>
</g>
<!-- node0x10084b350 -->
<g id="node4" class="node">
<title>node0x10084b350</title>
<polygon fill="aliceblue" stroke="black" points="323,-372.44 350,-360 377,-372.44 376.97,-392.56 323.03,-392.56 323,-372.44"/>
<text text-anchor="middle" x="350" y="-374.3" font-family="Times,serif" font-size="14.00">+</text>
</g>
<!-- node0x10084b3c0&#45;&gt;node0x10084b350 -->
<g id="edge3" class="edge">
<title>node0x10084b3c0&#45;&gt;node0x10084b350</title>
<path fill="none" stroke="black" d="M350,-431.7C350,-422.99 350,-412.3 350,-402.83"/>
<polygon fill="black" stroke="black" points="353.5,-402.82 350,-392.82 346.5,-402.82 353.5,-402.82"/>
</g>
<!-- node0x10084b040 -->
<g id="node5" class="node">
<title>node0x10084b040</title>
<polygon fill="aliceblue" stroke="black" points="180,-300.44 207,-288 234,-300.44 233.97,-320.56 180.03,-320.56 180,-300.44"/>
<text text-anchor="middle" x="207" y="-302.3" font-family="Times,serif" font-size="14.00">*</text>
</g>
<!-- node0x10084b350&#45;&gt;node0x10084b040 -->
<g id="edge4" class="edge">
<title>node0x10084b350&#45;&gt;node0x10084b040</title>
<path fill="none" stroke="black" d="M331.89,-368.13C309.67,-357.26 271.48,-338.57 243.17,-324.71"/>
<polygon fill="black" stroke="black" points="244.5,-321.46 233.98,-320.21 241.43,-327.75 244.5,-321.46"/>
</g>
<!-- node0x10084b2e0 -->
<g id="node15" class="node">
<title>node0x10084b2e0</title>
<polygon fill="aliceblue" stroke="black" points="323,-300.44 350,-288 377,-300.44 376.97,-320.56 323.03,-320.56 323,-300.44"/>
<text text-anchor="middle" x="350" y="-302.3" font-family="Times,serif" font-size="14.00">*</text>
</g>
<!-- node0x10084b350&#45;&gt;node0x10084b2e0 -->
<g id="edge14" class="edge">
<title>node0x10084b350&#45;&gt;node0x10084b2e0</title>
<path fill="none" stroke="black" d="M350,-359.7C350,-350.99 350,-340.3 350,-330.83"/>
<polygon fill="black" stroke="black" points="353.5,-330.82 350,-320.82 346.5,-330.82 353.5,-330.82"/>
</g>
<!-- node0x10084ac50 -->
<g id="node6" class="node">
<title>node0x10084ac50</title>
<polygon fill="aliceblue" stroke="black" points="72,-228.44 99,-216 126,-228.44 125.97,-248.56 72.03,-248.56 72,-228.44"/>
<text text-anchor="middle" x="99" y="-230.3" font-family="Times,serif" font-size="14.00">+</text>
</g>
<!-- node0x10084b040&#45;&gt;node0x10084ac50 -->
<g id="edge5" class="edge">
<title>node0x10084b040&#45;&gt;node0x10084ac50</title>
<path fill="none" stroke="black" d="M191.53,-294.97C175.17,-284.37 148.96,-267.38 128.61,-254.19"/>
<polygon fill="black" stroke="black" points="130.3,-251.12 120.01,-248.62 126.5,-256.99 130.3,-251.12"/>
</g>
<!-- node0x10084afd0 -->
<g id="node9" class="node">
<title>node0x10084afd0</title>
<polygon fill="aliceblue" stroke="black" points="180,-228.44 207,-216 234,-228.44 233.97,-248.56 180.03,-248.56 180,-228.44"/>
<text text-anchor="middle" x="207" y="-230.3" font-family="Times,serif" font-size="14.00">*</text>
</g>
<!-- node0x10084b040&#45;&gt;node0x10084afd0 -->
<g id="edge8" class="edge">
<title>node0x10084b040&#45;&gt;node0x10084afd0</title>
<path fill="none" stroke="black" d="M207,-287.7C207,-278.99 207,-268.3 207,-258.83"/>
<polygon fill="black" stroke="black" points="210.5,-258.82 207,-248.82 203.5,-258.82 210.5,-258.82"/>
</g>
<!-- node0x10084acc0 -->
<g id="node7" class="node">
<title>node0x10084acc0</title>
<ellipse fill="pink" stroke="black" cx="27" cy="-162" rx="27" ry="18"/>
<text text-anchor="middle" x="27" y="-158.3" font-family="Times,serif" font-size="14.00">x</text>
</g>
<!-- node0x10084ac50&#45;&gt;node0x10084acc0 -->
<g id="edge6" class="edge">
<title>node0x10084ac50&#45;&gt;node0x10084acc0</title>
<path fill="none" stroke="black" d="M87.11,-221.44C76.79,-211.41 61.58,-196.62 49.04,-184.43"/>
<polygon fill="black" stroke="black" points="51.26,-181.7 41.65,-177.24 46.38,-186.72 51.26,-181.7"/>
</g>
<!-- node0x10084ad30 -->
<g id="node8" class="node">
<title>node0x10084ad30</title>
<ellipse fill="pink" stroke="black" cx="99" cy="-162" rx="27" ry="18"/>
<text text-anchor="middle" x="99" y="-158.3" font-family="Times,serif" font-size="14.00">y</text>
</g>
<!-- node0x10084ac50&#45;&gt;node0x10084ad30 -->
<g id="edge7" class="edge">
<title>node0x10084ac50&#45;&gt;node0x10084ad30</title>
<path fill="none" stroke="black" d="M99,-215.7C99,-207.98 99,-198.71 99,-190.11"/>
<polygon fill="black" stroke="black" points="102.5,-190.1 99,-180.1 95.5,-190.1 102.5,-190.1"/>
</g>
<!-- node0x10084ada0 -->
<g id="node10" class="node">
<title>node0x10084ada0</title>
<ellipse fill="lightgreen" stroke="black" cx="171" cy="-162" rx="27" ry="18"/>
<text text-anchor="middle" x="171" y="-158.3" font-family="Times,serif" font-size="14.00">&#45;1</text>
</g>
<!-- node0x10084afd0&#45;&gt;node0x10084ada0 -->
<g id="edge9" class="edge">
<title>node0x10084afd0&#45;&gt;node0x10084ada0</title>
<path fill="none" stroke="black" d="M199.89,-219.17C195.37,-210.38 189.38,-198.75 184.04,-188.35"/>
<polygon fill="black" stroke="black" points="187.05,-186.55 179.36,-179.26 180.82,-189.75 187.05,-186.55"/>
</g>
<!-- node0x10084af60 -->
<g id="node11" class="node">
<title>node0x10084af60</title>
<polygon fill="aliceblue" stroke="black" points="216,-156.44 243,-144 270,-156.44 269.97,-176.56 216.03,-176.56 216,-156.44"/>
<text text-anchor="middle" x="243" y="-158.3" font-family="Times,serif" font-size="14.00">*</text>
</g>
<!-- node0x10084afd0&#45;&gt;node0x10084af60 -->
<g id="edge10" class="edge">
<title>node0x10084afd0&#45;&gt;node0x10084af60</title>
<path fill="none" stroke="black" d="M214.11,-219.17C218.99,-209.68 225.59,-196.86 231.24,-185.86"/>
<polygon fill="black" stroke="black" points="234.44,-187.29 235.9,-176.8 228.22,-184.09 234.44,-187.29"/>
</g>
<!-- node0x10084ae80 -->
<g id="node12" class="node">
<title>node0x10084ae80</title>
<polygon fill="aliceblue" stroke="black" points="180,-84.44 207,-72 234,-84.44 233.97,-104.56 180.03,-104.56 180,-84.44"/>
<text text-anchor="middle" x="207" y="-86.3" font-family="Times,serif" font-size="14.00">sin</text>
</g>
<!-- node0x10084af60&#45;&gt;node0x10084ae80 -->
<g id="edge11" class="edge">
<title>node0x10084af60&#45;&gt;node0x10084ae80</title>
<path fill="none" stroke="black" d="M235.89,-147.17C231.01,-137.68 224.41,-124.86 218.76,-113.86"/>
<polygon fill="black" stroke="black" points="221.78,-112.09 214.1,-104.8 215.56,-115.29 221.78,-112.09"/>
</g>
<!-- node0x10084aef0 -->
<g id="node14" class="node">
<title>node0x10084aef0</title>
<ellipse fill="lightgreen" stroke="black" cx="279" cy="-90" rx="27" ry="18"/>
<text text-anchor="middle" x="279" y="-86.3" font-family="Times,serif" font-size="14.00">1</text>
</g>
<!-- node0x10084af60&#45;&gt;node0x10084aef0 -->
<g id="edge13" class="edge">
<title>node0x10084af60&#45;&gt;node0x10084aef0</title>
<path fill="none" stroke="black" d="M250.11,-147.17C254.63,-138.38 260.62,-126.75 265.96,-116.35"/>
<polygon fill="black" stroke="black" points="269.18,-117.75 270.64,-107.26 262.95,-114.55 269.18,-117.75"/>
</g>
<!-- node0x10084ae10 -->
<g id="node13" class="node">
<title>node0x10084ae10</title>
<ellipse fill="pink" stroke="black" cx="207" cy="-18" rx="27" ry="18"/>
<text text-anchor="middle" x="207" y="-14.3" font-family="Times,serif" font-size="14.00">x</text>
</g>
<!-- node0x10084ae80&#45;&gt;node0x10084ae10 -->
<g id="edge12" class="edge">
<title>node0x10084ae80&#45;&gt;node0x10084ae10</title>
<path fill="none" stroke="black" d="M207,-71.7C207,-63.98 207,-54.71 207,-46.11"/>
<polygon fill="black" stroke="black" points="210.5,-46.1 207,-36.1 203.5,-46.1 210.5,-46.1"/>
</g>
<!-- node0x10084b190 -->
<g id="node16" class="node">
<title>node0x10084b190</title>
<polygon fill="aliceblue" stroke="black" points="323,-228.44 350,-216 377,-228.44 376.97,-248.56 323.03,-248.56 323,-228.44"/>
<text text-anchor="middle" x="350" y="-230.3" font-family="Times,serif" font-size="14.00">+</text>
</g>
<!-- node0x10084b2e0&#45;&gt;node0x10084b190 -->
<g id="edge15" class="edge">
<title>node0x10084b2e0&#45;&gt;node0x10084b190</title>
<path fill="none" stroke="black" d="M350,-287.7C350,-278.99 350,-268.3 350,-258.83"/>
<polygon fill="black" stroke="black" points="353.5,-258.82 350,-248.82 346.5,-258.82 353.5,-258.82"/>
</g>
<!-- node0x10084b200 -->
<g id="node19" class="node">
<title>node0x10084b200</title>
<polygon fill="aliceblue" stroke="black" points="412.76,-228.44 441,-216 469.24,-228.44 469.21,-248.56 412.79,-248.56 412.76,-228.44"/>
<text text-anchor="middle" x="441" y="-230.3" font-family="Times,serif" font-size="14.00">cos</text>
</g>
<!-- node0x10084b2e0&#45;&gt;node0x10084b200 -->
<g id="edge18" class="edge">
<title>node0x10084b2e0&#45;&gt;node0x10084b200</title>
<path fill="none" stroke="black" d="M364.22,-294.06C377.76,-283.65 398.45,-267.73 414.95,-255.04"/>
<polygon fill="black" stroke="black" points="417.34,-257.62 423.13,-248.75 413.07,-252.07 417.34,-257.62"/>
</g>
<!-- node0x10084b0b0 -->
<g id="node17" class="node">
<title>node0x10084b0b0</title>
<ellipse fill="lightgreen" stroke="black" cx="315" cy="-162" rx="27" ry="18"/>
<text text-anchor="middle" x="315" y="-158.3" font-family="Times,serif" font-size="14.00">1</text>
</g>
<!-- node0x10084b190&#45;&gt;node0x10084b0b0 -->
<g id="edge16" class="edge">
<title>node0x10084b190&#45;&gt;node0x10084b0b0</title>
<path fill="none" stroke="black" d="M343.09,-219.17C338.69,-210.38 332.87,-198.75 327.67,-188.35"/>
<polygon fill="black" stroke="black" points="330.73,-186.64 323.13,-179.26 324.47,-189.77 330.73,-186.64"/>
</g>
<!-- node0x10084b120 -->
<g id="node18" class="node">
<title>node0x10084b120</title>
<ellipse fill="lightgreen" stroke="black" cx="387" cy="-162" rx="27" ry="18"/>
<text text-anchor="middle" x="387" y="-158.3" font-family="Times,serif" font-size="14.00">0</text>
</g>
<!-- node0x10084b190&#45;&gt;node0x10084b120 -->
<g id="edge17" class="edge">
<title>node0x10084b190&#45;&gt;node0x10084b120</title>
<path fill="none" stroke="black" d="M357.31,-219.17C361.95,-210.38 368.1,-198.75 373.6,-188.35"/>
<polygon fill="black" stroke="black" points="376.83,-189.73 378.41,-179.26 370.64,-186.46 376.83,-189.73"/>
</g>
<!-- node0x10084b270 -->
<g id="node20" class="node">
<title>node0x10084b270</title>
<ellipse fill="pink" stroke="black" cx="459" cy="-162" rx="27" ry="18"/>
<text text-anchor="middle" x="459" y="-158.3" font-family="Times,serif" font-size="14.00">x</text>
</g>
<!-- node0x10084b200&#45;&gt;node0x10084b270 -->
<g id="edge19" class="edge">
<title>node0x10084b200&#45;&gt;node0x10084b270</title>
<path fill="none" stroke="black" d="M444.99,-217.46C447.09,-209.3 449.73,-199.07 452.14,-189.68"/>
<polygon fill="black" stroke="black" points="455.54,-190.52 454.64,-179.96 448.76,-188.78 455.54,-190.52"/>
</g>
<!-- node0x10084b4a0 -->
<g id="node22" class="node">
<title>node0x10084b4a0</title>
<polygon fill="aliceblue" stroke="black" points="394.76,-372.44 423,-360 451.24,-372.44 451.21,-392.56 394.79,-392.56 394.76,-372.44"/>
<text text-anchor="middle" x="423" y="-374.3" font-family="Times,serif" font-size="14.00">cos</text>
</g>
<!-- node0x10084b580&#45;&gt;node0x10084b4a0 -->
<g id="edge21" class="edge">
<title>node0x10084b580&#45;&gt;node0x10084b4a0</title>
<path fill="none" stroke="black" d="M423,-431.7C423,-422.99 423,-412.3 423,-402.83"/>
<polygon fill="black" stroke="black" points="426.5,-402.82 423,-392.82 419.5,-402.82 426.5,-402.82"/>
</g>
<!-- node0x10084b510 -->
<g id="node24" class="node">
<title>node0x10084b510</title>
<ellipse fill="lightgreen" stroke="black" cx="496" cy="-378" rx="27" ry="18"/>
<text text-anchor="middle" x="496" y="-374.3" font-family="Times,serif" font-size="14.00">0</text>
</g>
<!-- node0x10084b580&#45;&gt;node0x10084b510 -->
<g id="edge23" class="edge">
<title>node0x10084b580&#45;&gt;node0x10084b510</title>
<path fill="none" stroke="black" d="M435.05,-437.44C445.52,-427.41 460.94,-412.62 473.65,-400.43"/>
<polygon fill="black" stroke="black" points="476.35,-402.69 481.15,-393.24 471.51,-397.63 476.35,-402.69"/>
</g>
<!-- node0x10084b430 -->
<g id="node23" class="node">
<title>node0x10084b430</title>
<ellipse fill="pink" stroke="black" cx="423" cy="-306" rx="27" ry="18"/>
<text text-anchor="middle" x="423" y="-302.3" font-family="Times,serif" font-size="14.00">y</text>
</g>
<!-- node0x10084b4a0&#45;&gt;node0x10084b430 -->
<g id="edge22" class="edge">
<title>node0x10084b4a0&#45;&gt;node0x10084b430</title>
<path fill="none" stroke="black" d="M423,-359.7C423,-351.98 423,-342.71 423,-334.11"/>
<polygon fill="black" stroke="black" points="426.5,-334.1 423,-324.1 419.5,-334.1 426.5,-334.1"/>
</g>
</g>
</svg>
