<?xml version="1.0" encoding="UTF-8" standalone="no"?>
<!DOCTYPE svg PUBLIC "-//W3C//DTD SVG 1.1//EN"
 "http://www.w3.org/Graphics/SVG/1.1/DTD/svg11.dtd">
<!-- Generated by graphviz version 2.44.1 (20200629.0846)
 -->
<!-- Title: expr Pages: 1 -->
<svg width="856pt" height="548pt"
 viewBox="0.00 0.00 856.00 548.00" xmlns="http://www.w3.org/2000/svg" xmlns:xlink="http://www.w3.org/1999/xlink">
<g id="graph0" class="graph" transform="scale(1 1) rotate(0) translate(4 544)">
<title>expr</title>
<polygon fill="white" stroke="transparent" points="-4,4 -4,-544 852,-544 852,4 -4,4"/>
<!-- node0x7fba20704cb0 -->
<g id="node1" class="node">
<title>node0x7fba20704cb0</title>
<polygon fill="aliceblue" stroke="black" points="468,-516.44 495,-504 522,-516.44 521.97,-536.56 468.03,-536.56 468,-516.44"/>
<text text-anchor="middle" x="495" y="-518.3" font-family="Times,serif" font-size="14.00">+</text>
</g>
<!-- node0x7fba20704770 -->
<g id="node2" class="node">
<title>node0x7fba20704770</title>
<polygon fill="aliceblue" stroke="black" points="431,-444.44 458,-432 485,-444.44 484.97,-464.56 431.03,-464.56 431,-444.44"/>
<text text-anchor="middle" x="458" y="-446.3" font-family="Times,serif" font-size="14.00">+</text>
</g>
<!-- node0x7fba20704cb0&#45;&gt;node0x7fba20704770 -->
<g id="edge1" class="edge">
<title>node0x7fba20704cb0&#45;&gt;node0x7fba20704770</title>
<path fill="none" stroke="black" d="M487.69,-507.17C482.67,-497.68 475.9,-484.86 470.09,-473.86"/>
<polygon fill="black" stroke="black" points="473.06,-472.01 465.29,-464.8 466.87,-475.28 473.06,-472.01"/>
</g>
<!-- node0x7fba20704c80 -->
<g id="node21" class="node">
<title>node0x7fba20704c80</title>
<polygon fill="aliceblue" stroke="black" points="559,-444.44 586,-432 613,-444.44 612.97,-464.56 559.03,-464.56 559,-444.44"/>
<text text-anchor="middle" x="586" y="-446.3" font-family="Times,serif" font-size="14.00">+</text>
</g>
<!-- node0x7fba20704cb0&#45;&gt;node0x7fba20704c80 -->
<g id="edge20" class="edge">
<title>node0x7fba20704cb0&#45;&gt;node0x7fba20704c80</title>
<path fill="none" stroke="black" d="M509.22,-510.06C522.76,-499.65 543.45,-483.73 559.95,-471.04"/>
<polygon fill="black" stroke="black" points="562.34,-473.62 568.13,-464.75 558.07,-468.07 562.34,-473.62"/>
</g>
<!-- node0x7fba20704080 -->
<g id="node3" class="node">
<title>node0x7fba20704080</title>
<ellipse fill="lightgreen" stroke="black" cx="386" cy="-378" rx="27" ry="18"/>
<text text-anchor="middle" x="386" y="-374.3" font-family="Times,serif" font-size="14.00">1</text>
</g>
<!-- node0x7fba20704770&#45;&gt;node0x7fba20704080 -->
<g id="edge2" class="edge">
<title>node0x7fba20704770&#45;&gt;node0x7fba20704080</title>
<path fill="none" stroke="black" d="M446.11,-437.44C435.79,-427.41 420.58,-412.62 408.04,-400.43"/>
<polygon fill="black" stroke="black" points="410.26,-397.7 400.65,-393.24 405.38,-402.72 410.26,-397.7"/>
</g>
<!-- node0x7fba20704740 -->
<g id="node4" class="node">
<title>node0x7fba20704740</title>
<polygon fill="aliceblue" stroke="black" points="431,-372.44 458,-360 485,-372.44 484.97,-392.56 431.03,-392.56 431,-372.44"/>
<text text-anchor="middle" x="458" y="-374.3" font-family="Times,serif" font-size="14.00">+</text>
</g>
<!-- node0x7fba20704770&#45;&gt;node0x7fba20704740 -->
<g id="edge3" class="edge">
<title>node0x7fba20704770&#45;&gt;node0x7fba20704740</title>
<path fill="none" stroke="black" d="M458,-431.7C458,-422.99 458,-412.3 458,-402.83"/>
<polygon fill="black" stroke="black" points="461.5,-402.82 458,-392.82 454.5,-402.82 461.5,-402.82"/>
</g>
<!-- node0x7fba207042c0 -->
<g id="node5" class="node">
<title>node0x7fba207042c0</title>
<polygon fill="aliceblue" stroke="black" points="216,-300.44 243,-288 270,-300.44 269.97,-320.56 216.03,-320.56 216,-300.44"/>
<text text-anchor="middle" x="243" y="-302.3" font-family="Times,serif" font-size="14.00">*</text>
</g>
<!-- node0x7fba20704740&#45;&gt;node0x7fba207042c0 -->
<g id="edge4" class="edge">
<title>node0x7fba20704740&#45;&gt;node0x7fba207042c0</title>
<path fill="none" stroke="black" d="M440.29,-367.98C434.54,-365.22 428.07,-362.32 422,-360 373.84,-341.62 316.43,-325.62 279.85,-316.14"/>
<polygon fill="black" stroke="black" points="280.67,-312.74 270.11,-313.64 278.93,-319.52 280.67,-312.74"/>
</g>
<!-- node0x7fba20704710 -->
<g id="node15" class="node">
<title>node0x7fba20704710</title>
<polygon fill="aliceblue" stroke="black" points="431,-300.44 458,-288 485,-300.44 484.97,-320.56 431.03,-320.56 431,-300.44"/>
<text text-anchor="middle" x="458" y="-302.3" font-family="Times,serif" font-size="14.00">*</text>
</g>
<!-- node0x7fba20704740&#45;&gt;node0x7fba20704710 -->
<g id="edge14" class="edge">
<title>node0x7fba20704740&#45;&gt;node0x7fba20704710</title>
<path fill="none" stroke="black" d="M458,-359.7C458,-350.99 458,-340.3 458,-330.83"/>
<polygon fill="black" stroke="black" points="461.5,-330.82 458,-320.82 454.5,-330.82 461.5,-330.82"/>
</g>
<!-- node0x7fba207040b0 -->
<g id="node6" class="node">
<title>node0x7fba207040b0</title>
<polygon fill="aliceblue" stroke="black" points="108,-228.44 135,-216 162,-228.44 161.97,-248.56 108.03,-248.56 108,-228.44"/>
<text text-anchor="middle" x="135" y="-230.3" font-family="Times,serif" font-size="14.00">+</text>
</g>
<!-- node0x7fba207042c0&#45;&gt;node0x7fba207040b0 -->
<g id="edge5" class="edge">
<title>node0x7fba207042c0&#45;&gt;node0x7fba207040b0</title>
<path fill="none" stroke="black" d="M227.53,-294.97C211.17,-284.37 184.96,-267.38 164.61,-254.19"/>
<polygon fill="black" stroke="black" points="166.3,-251.12 156.01,-248.62 162.5,-256.99 166.3,-251.12"/>
</g>
<!-- node0x7fba20704290 -->
<g id="node11" class="node">
<title>node0x7fba20704290</title>
<polygon fill="aliceblue" stroke="black" points="216,-228.44 243,-216 270,-228.44 269.97,-248.56 216.03,-248.56 216,-228.44"/>
<text text-anchor="middle" x="243" y="-230.3" font-family="Times,serif" font-size="14.00">*</text>
</g>
<!-- node0x7fba207042c0&#45;&gt;node0x7fba20704290 -->
<g id="edge10" class="edge">
<title>node0x7fba207042c0&#45;&gt;node0x7fba20704290</title>
<path fill="none" stroke="black" d="M243,-287.7C243,-278.99 243,-268.3 243,-258.83"/>
<polygon fill="black" stroke="black" points="246.5,-258.82 243,-248.82 239.5,-258.82 246.5,-258.82"/>
</g>
<!-- node0x7fba207040e0 -->
<g id="node7" class="node">
<title>node0x7fba207040e0</title>
<polygon fill="aliceblue" stroke="black" points="36,-156.44 63,-144 90,-156.44 89.97,-176.56 36.03,-176.56 36,-156.44"/>
<text text-anchor="middle" x="63" y="-158.3" font-family="Times,serif" font-size="14.00">^</text>
</g>
<!-- node0x7fba207040b0&#45;&gt;node0x7fba207040e0 -->
<g id="edge6" class="edge">
<title>node0x7fba207040b0&#45;&gt;node0x7fba207040e0</title>
<path fill="none" stroke="black" d="M123.11,-221.44C112.66,-211.28 97.19,-196.24 84.56,-183.96"/>
<polygon fill="black" stroke="black" points="86.74,-181.2 77.13,-176.74 81.86,-186.22 86.74,-181.2"/>
</g>
<!-- node0x7fba20704170 -->
<g id="node10" class="node">
<title>node0x7fba20704170</title>
<ellipse fill="pink" stroke="black" cx="135" cy="-162" rx="27" ry="18"/>
<text text-anchor="middle" x="135" y="-158.3" font-family="Times,serif" font-size="14.00">y</text>
</g>
<!-- node0x7fba207040b0&#45;&gt;node0x7fba20704170 -->
<g id="edge9" class="edge">
<title>node0x7fba207040b0&#45;&gt;node0x7fba20704170</title>
<path fill="none" stroke="black" d="M135,-215.7C135,-207.98 135,-198.71 135,-190.11"/>
<polygon fill="black" stroke="black" points="138.5,-190.1 135,-180.1 131.5,-190.1 138.5,-190.1"/>
</g>
<!-- node0x7fba20704110 -->
<g id="node8" class="node">
<title>node0x7fba20704110</title>
<ellipse fill="pink" stroke="black" cx="27" cy="-90" rx="27" ry="18"/>
<text text-anchor="middle" x="27" y="-86.3" font-family="Times,serif" font-size="14.00">x</text>
</g>
<!-- node0x7fba207040e0&#45;&gt;node0x7fba20704110 -->
<g id="edge7" class="edge">
<title>node0x7fba207040e0&#45;&gt;node0x7fba20704110</title>
<path fill="none" stroke="black" d="M55.89,-147.17C51.37,-138.38 45.38,-126.75 40.04,-116.35"/>
<polygon fill="black" stroke="black" points="43.05,-114.55 35.36,-107.26 36.82,-117.75 43.05,-114.55"/>
</g>
<!-- node0x7fba20704140 -->
<g id="node9" class="node">
<title>node0x7fba20704140</title>
<ellipse fill="lightgreen" stroke="black" cx="99" cy="-90" rx="27" ry="18"/>
<text text-anchor="middle" x="99" y="-86.3" font-family="Times,serif" font-size="14.00">2</text>
</g>
<!-- node0x7fba207040e0&#45;&gt;node0x7fba20704140 -->
<g id="edge8" class="edge">
<title>node0x7fba207040e0&#45;&gt;node0x7fba20704140</title>
<path fill="none" stroke="black" d="M70.11,-147.17C74.63,-138.38 80.62,-126.75 85.96,-116.35"/>
<polygon fill="black" stroke="black" points="89.18,-117.75 90.64,-107.26 82.95,-114.55 89.18,-117.75"/>
</g>
<!-- node0x7fba207041a0 -->
<g id="node12" class="node">
<title>node0x7fba207041a0</title>
<ellipse fill="lightgreen" stroke="black" cx="207" cy="-162" rx="27" ry="18"/>
<text text-anchor="middle" x="207" y="-158.3" font-family="Times,serif" font-size="14.00">&#45;1</text>
</g>
<!-- node0x7fba20704290&#45;&gt;node0x7fba207041a0 -->
<g id="edge11" class="edge">
<title>node0x7fba20704290&#45;&gt;node0x7fba207041a0</title>
<path fill="none" stroke="black" d="M235.89,-219.17C231.37,-210.38 225.38,-198.75 220.04,-188.35"/>
<polygon fill="black" stroke="black" points="223.05,-186.55 215.36,-179.26 216.82,-189.75 223.05,-186.55"/>
</g>
<!-- node0x7fba20704200 -->
<g id="node13" class="node">
<title>node0x7fba20704200</title>
<polygon fill="aliceblue" stroke="black" points="252,-156.44 279,-144 306,-156.44 305.97,-176.56 252.03,-176.56 252,-156.44"/>
<text text-anchor="middle" x="279" y="-158.3" font-family="Times,serif" font-size="14.00">sin</text>
</g>
<!-- node0x7fba20704290&#45;&gt;node0x7fba20704200 -->
<g id="edge12" class="edge">
<title>node0x7fba20704290&#45;&gt;node0x7fba20704200</title>
<path fill="none" stroke="black" d="M250.11,-219.17C254.99,-209.68 261.59,-196.86 267.24,-185.86"/>
<polygon fill="black" stroke="black" points="270.44,-187.29 271.9,-176.8 264.22,-184.09 270.44,-187.29"/>
</g>
<!-- node0x7fba207041d0 -->
<g id="node14" class="node">
<title>node0x7fba207041d0</title>
<ellipse fill="pink" stroke="black" cx="279" cy="-90" rx="27" ry="18"/>
<text text-anchor="middle" x="279" y="-86.3" font-family="Times,serif" font-size="14.00">x</text>
</g>
<!-- node0x7fba20704200&#45;&gt;node0x7fba207041d0 -->
<g id="edge13" class="edge">
<title>node0x7fba20704200&#45;&gt;node0x7fba207041d0</title>
<path fill="none" stroke="black" d="M279,-143.7C279,-135.98 279,-126.71 279,-118.11"/>
<polygon fill="black" stroke="black" points="282.5,-118.1 279,-108.1 275.5,-118.1 282.5,-118.1"/>
</g>
<!-- node0x7fba20704410 -->
<g id="node16" class="node">
<title>node0x7fba20704410</title>
<polygon fill="aliceblue" stroke="black" points="394,-228.44 421,-216 448,-228.44 447.97,-248.56 394.03,-248.56 394,-228.44"/>
<text text-anchor="middle" x="421" y="-230.3" font-family="Times,serif" font-size="14.00">*</text>
</g>
<!-- node0x7fba20704710&#45;&gt;node0x7fba20704410 -->
<g id="edge15" class="edge">
<title>node0x7fba20704710&#45;&gt;node0x7fba20704410</title>
<path fill="none" stroke="black" d="M450.69,-291.17C445.67,-281.68 438.9,-268.86 433.09,-257.86"/>
<polygon fill="black" stroke="black" points="436.06,-256.01 428.29,-248.8 429.87,-259.28 436.06,-256.01"/>
</g>
<!-- node0x7fba207046b0 -->
<g id="node19" class="node">
<title>node0x7fba207046b0</title>
<polygon fill="aliceblue" stroke="black" points="465.76,-228.44 494,-216 522.24,-228.44 522.21,-248.56 465.79,-248.56 465.76,-228.44"/>
<text text-anchor="middle" x="494" y="-230.3" font-family="Times,serif" font-size="14.00">cos</text>
</g>
<!-- node0x7fba20704710&#45;&gt;node0x7fba207046b0 -->
<g id="edge18" class="edge">
<title>node0x7fba20704710&#45;&gt;node0x7fba207046b0</title>
<path fill="none" stroke="black" d="M465.11,-291.17C469.99,-281.68 476.59,-268.86 482.24,-257.86"/>
<polygon fill="black" stroke="black" points="485.44,-259.29 486.9,-248.8 479.22,-256.09 485.44,-259.29"/>
</g>
<!-- node0x7fba207042f0 -->
<g id="node17" class="node">
<title>node0x7fba207042f0</title>
<ellipse fill="lightgreen" stroke="black" cx="351" cy="-162" rx="27" ry="18"/>
<text text-anchor="middle" x="351" y="-158.3" font-family="Times,serif" font-size="14.00">2</text>
</g>
<!-- node0x7fba20704410&#45;&gt;node0x7fba207042f0 -->
<g id="edge16" class="edge">
<title>node0x7fba20704410&#45;&gt;node0x7fba207042f0</title>
<path fill="none" stroke="black" d="M409.13,-221.13C399.11,-211.11 384.53,-196.53 372.47,-184.47"/>
<polygon fill="black" stroke="black" points="374.9,-181.95 365.36,-177.36 369.95,-186.9 374.9,-181.95"/>
</g>
<!-- node0x7fba20704320 -->
<g id="node18" class="node">
<title>node0x7fba20704320</title>
<ellipse fill="pink" stroke="black" cx="423" cy="-162" rx="27" ry="18"/>
<text text-anchor="middle" x="423" y="-158.3" font-family="Times,serif" font-size="14.00">x</text>
</g>
<!-- node0x7fba20704410&#45;&gt;node0x7fba20704320 -->
<g id="edge17" class="edge">
<title>node0x7fba20704410&#45;&gt;node0x7fba20704320</title>
<path fill="none" stroke="black" d="M421.48,-216.05C421.7,-208.35 421.97,-199.03 422.22,-190.36"/>
<polygon fill="black" stroke="black" points="425.72,-190.37 422.51,-180.28 418.72,-190.17 425.72,-190.37"/>
</g>
<!-- node0x7fba207046e0 -->
<g id="node20" class="node">
<title>node0x7fba207046e0</title>
<ellipse fill="pink" stroke="black" cx="495" cy="-162" rx="27" ry="18"/>
<text text-anchor="middle" x="495" y="-158.3" font-family="Times,serif" font-size="14.00">x</text>
</g>
<!-- node0x7fba207046b0&#45;&gt;node0x7fba207046e0 -->
<g id="edge19" class="edge">
<title>node0x7fba207046b0&#45;&gt;node0x7fba207046e0</title>
<path fill="none" stroke="black" d="M494.24,-216.05C494.35,-208.35 494.49,-199.03 494.61,-190.36"/>
<polygon fill="black" stroke="black" points="498.11,-190.32 494.75,-180.28 491.11,-190.22 498.11,-190.32"/>
</g>
<!-- node0x7fba20704ad0 -->
<g id="node22" class="node">
<title>node0x7fba20704ad0</title>
<polygon fill="aliceblue" stroke="black" points="559,-372.44 586,-360 613,-372.44 612.97,-392.56 559.03,-392.56 559,-372.44"/>
<text text-anchor="middle" x="586" y="-374.3" font-family="Times,serif" font-size="14.00">*</text>
</g>
<!-- node0x7fba20704c80&#45;&gt;node0x7fba20704ad0 -->
<g id="edge21" class="edge">
<title>node0x7fba20704c80&#45;&gt;node0x7fba20704ad0</title>
<path fill="none" stroke="black" d="M586,-431.7C586,-422.99 586,-412.3 586,-402.83"/>
<polygon fill="black" stroke="black" points="589.5,-402.82 586,-392.82 582.5,-402.82 589.5,-402.82"/>
</g>
<!-- node0x7fba20704b30 -->
<g id="node32" class="node">
<title>node0x7fba20704b30</title>
<polygon fill="aliceblue" stroke="black" points="658,-372.44 685,-360 712,-372.44 711.97,-392.56 658.03,-392.56 658,-372.44"/>
<text text-anchor="middle" x="685" y="-374.3" font-family="Times,serif" font-size="14.00">sin</text>
</g>
<!-- node0x7fba20704c80&#45;&gt;node0x7fba20704b30 -->
<g id="edge31" class="edge">
<title>node0x7fba20704c80&#45;&gt;node0x7fba20704b30</title>
<path fill="none" stroke="black" d="M600.61,-438.67C615.4,-428.21 638.65,-411.77 657,-398.8"/>
<polygon fill="black" stroke="black" points="659.41,-401.38 665.56,-392.75 655.37,-395.66 659.41,-401.38"/>
</g>
<!-- node0x7fba207047a0 -->
<g id="node23" class="node">
<title>node0x7fba207047a0</title>
<ellipse fill="pink" stroke="black" cx="550" cy="-306" rx="27" ry="18"/>
<text text-anchor="middle" x="550" y="-302.3" font-family="Times,serif" font-size="14.00">x</text>
</g>
<!-- node0x7fba20704ad0&#45;&gt;node0x7fba207047a0 -->
<g id="edge22" class="edge">
<title>node0x7fba20704ad0&#45;&gt;node0x7fba207047a0</title>
<path fill="none" stroke="black" d="M578.89,-363.17C574.37,-354.38 568.38,-342.75 563.04,-332.35"/>
<polygon fill="black" stroke="black" points="566.05,-330.55 558.36,-323.26 559.82,-333.75 566.05,-330.55"/>
</g>
<!-- node0x7fba20704aa0 -->
<g id="node24" class="node">
<title>node0x7fba20704aa0</title>
<polygon fill="aliceblue" stroke="black" points="595,-300.44 622,-288 649,-300.44 648.97,-320.56 595.03,-320.56 595,-300.44"/>
<text text-anchor="middle" x="622" y="-302.3" font-family="Times,serif" font-size="14.00">*</text>
</g>
<!-- node0x7fba20704ad0&#45;&gt;node0x7fba20704aa0 -->
<g id="edge23" class="edge">
<title>node0x7fba20704ad0&#45;&gt;node0x7fba20704aa0</title>
<path fill="none" stroke="black" d="M593.11,-363.17C597.99,-353.68 604.59,-340.86 610.24,-329.86"/>
<polygon fill="black" stroke="black" points="613.44,-331.29 614.9,-320.8 607.22,-328.09 613.44,-331.29"/>
</g>
<!-- node0x7fba207048c0 -->
<g id="node25" class="node">
<title>node0x7fba207048c0</title>
<polygon fill="aliceblue" stroke="black" points="539.76,-228.44 568,-216 596.24,-228.44 596.21,-248.56 539.79,-248.56 539.76,-228.44"/>
<text text-anchor="middle" x="568" y="-230.3" font-family="Times,serif" font-size="14.00">cos</text>
</g>
<!-- node0x7fba20704aa0&#45;&gt;node0x7fba207048c0 -->
<g id="edge24" class="edge">
<title>node0x7fba20704aa0&#45;&gt;node0x7fba207048c0</title>
<path fill="none" stroke="black" d="M612.1,-292.16C604.45,-282.25 593.7,-268.32 584.73,-256.69"/>
<polygon fill="black" stroke="black" points="587.46,-254.49 578.58,-248.71 581.92,-258.77 587.46,-254.49"/>
</g>
<!-- node0x7fba20704980 -->
<g id="node31" class="node">
<title>node0x7fba20704980</title>
<ellipse fill="lightgreen" stroke="black" cx="641" cy="-234" rx="27" ry="18"/>
<text text-anchor="middle" x="641" y="-230.3" font-family="Times,serif" font-size="14.00">14</text>
</g>
<!-- node0x7fba20704aa0&#45;&gt;node0x7fba20704980 -->
<g id="edge30" class="edge">
<title>node0x7fba20704aa0&#45;&gt;node0x7fba20704980</title>
<path fill="none" stroke="black" d="M626.12,-289.81C628.33,-281.66 631.13,-271.37 633.69,-261.92"/>
<polygon fill="black" stroke="black" points="637.11,-262.69 636.35,-252.13 630.35,-260.86 637.11,-262.69"/>
</g>
<!-- node0x7fba207047d0 -->
<g id="node26" class="node">
<title>node0x7fba207047d0</title>
<polygon fill="aliceblue" stroke="black" points="541,-156.44 568,-144 595,-156.44 594.97,-176.56 541.03,-176.56 541,-156.44"/>
<text text-anchor="middle" x="568" y="-158.3" font-family="Times,serif" font-size="14.00">+</text>
</g>
<!-- node0x7fba207048c0&#45;&gt;node0x7fba207047d0 -->
<g id="edge25" class="edge">
<title>node0x7fba207048c0&#45;&gt;node0x7fba207047d0</title>
<path fill="none" stroke="black" d="M568,-215.7C568,-206.99 568,-196.3 568,-186.83"/>
<polygon fill="black" stroke="black" points="571.5,-186.82 568,-176.82 564.5,-186.82 571.5,-186.82"/>
</g>
<!-- node0x7fba20704800 -->
<g id="node27" class="node">
<title>node0x7fba20704800</title>
<ellipse fill="pink" stroke="black" cx="532" cy="-90" rx="27" ry="18"/>
<text text-anchor="middle" x="532" y="-86.3" font-family="Times,serif" font-size="14.00">y</text>
</g>
<!-- node0x7fba207047d0&#45;&gt;node0x7fba20704800 -->
<g id="edge26" class="edge">
<title>node0x7fba207047d0&#45;&gt;node0x7fba20704800</title>
<path fill="none" stroke="black" d="M560.89,-147.17C556.37,-138.38 550.38,-126.75 545.04,-116.35"/>
<polygon fill="black" stroke="black" points="548.05,-114.55 540.36,-107.26 541.82,-117.75 548.05,-114.55"/>
</g>
<!-- node0x7fba20704830 -->
<g id="node28" class="node">
<title>node0x7fba20704830</title>
<polygon fill="aliceblue" stroke="black" points="577,-84.44 604,-72 631,-84.44 630.97,-104.56 577.03,-104.56 577,-84.44"/>
<text text-anchor="middle" x="604" y="-86.3" font-family="Times,serif" font-size="14.00">*</text>
</g>
<!-- node0x7fba207047d0&#45;&gt;node0x7fba20704830 -->
<g id="edge27" class="edge">
<title>node0x7fba207047d0&#45;&gt;node0x7fba20704830</title>
<path fill="none" stroke="black" d="M575.11,-147.17C579.99,-137.68 586.59,-124.86 592.24,-113.86"/>
<polygon fill="black" stroke="black" points="595.44,-115.29 596.9,-104.8 589.22,-112.09 595.44,-115.29"/>
</g>
<!-- node0x7fba20704860 -->
<g id="node29" class="node">
<title>node0x7fba20704860</title>
<ellipse fill="lightgreen" stroke="black" cx="568" cy="-18" rx="27" ry="18"/>
<text text-anchor="middle" x="568" y="-14.3" font-family="Times,serif" font-size="14.00">14</text>
</g>
<!-- node0x7fba20704830&#45;&gt;node0x7fba20704860 -->
<g id="edge28" class="edge">
<title>node0x7fba20704830&#45;&gt;node0x7fba20704860</title>
<path fill="none" stroke="black" d="M596.89,-75.17C592.37,-66.38 586.38,-54.75 581.04,-44.35"/>
<polygon fill="black" stroke="black" points="584.05,-42.55 576.36,-35.26 577.82,-45.75 584.05,-42.55"/>
</g>
<!-- node0x7fba20704890 -->
<g id="node30" class="node">
<title>node0x7fba20704890</title>
<ellipse fill="pink" stroke="black" cx="640" cy="-18" rx="27" ry="18"/>
<text text-anchor="middle" x="640" y="-14.3" font-family="Times,serif" font-size="14.00">x</text>
</g>
<!-- node0x7fba20704830&#45;&gt;node0x7fba20704890 -->
<g id="edge29" class="edge">
<title>node0x7fba20704830&#45;&gt;node0x7fba20704890</title>
<path fill="none" stroke="black" d="M611.11,-75.17C615.63,-66.38 621.62,-54.75 626.96,-44.35"/>
<polygon fill="black" stroke="black" points="630.18,-45.75 631.64,-35.26 623.95,-42.55 630.18,-45.75"/>
</g>
<!-- node0x7fba20704b60 -->
<g id="node33" class="node">
<title>node0x7fba20704b60</title>
<polygon fill="aliceblue" stroke="black" points="686,-300.44 713,-288 740,-300.44 739.97,-320.56 686.03,-320.56 686,-300.44"/>
<text text-anchor="middle" x="713" y="-302.3" font-family="Times,serif" font-size="14.00">+</text>
</g>
<!-- node0x7fba20704b30&#45;&gt;node0x7fba20704b60 -->
<g id="edge32" class="edge">
<title>node0x7fba20704b30&#45;&gt;node0x7fba20704b60</title>
<path fill="none" stroke="black" d="M690.8,-362.5C694.49,-353.27 699.36,-341.11 703.59,-330.53"/>
<polygon fill="black" stroke="black" points="706.93,-331.59 707.4,-321.01 700.43,-328.99 706.93,-331.59"/>
</g>
<!-- node0x7fba20704b90 -->
<g id="node34" class="node">
<title>node0x7fba20704b90</title>
<ellipse fill="pink" stroke="black" cx="713" cy="-234" rx="27" ry="18"/>
<text text-anchor="middle" x="713" y="-230.3" font-family="Times,serif" font-size="14.00">y</text>
</g>
<!-- node0x7fba20704b60&#45;&gt;node0x7fba20704b90 -->
<g id="edge33" class="edge">
<title>node0x7fba20704b60&#45;&gt;node0x7fba20704b90</title>
<path fill="none" stroke="black" d="M713,-287.7C713,-279.98 713,-270.71 713,-262.11"/>
<polygon fill="black" stroke="black" points="716.5,-262.1 713,-252.1 709.5,-262.1 716.5,-262.1"/>
</g>
<!-- node0x7fba20704bc0 -->
<g id="node35" class="node">
<title>node0x7fba20704bc0</title>
<polygon fill="aliceblue" stroke="black" points="758,-228.44 785,-216 812,-228.44 811.97,-248.56 758.03,-248.56 758,-228.44"/>
<text text-anchor="middle" x="785" y="-230.3" font-family="Times,serif" font-size="14.00">*</text>
</g>
<!-- node0x7fba20704b60&#45;&gt;node0x7fba20704bc0 -->
<g id="edge34" class="edge">
<title>node0x7fba20704b60&#45;&gt;node0x7fba20704bc0</title>
<path fill="none" stroke="black" d="M724.89,-293.44C735.34,-283.28 750.81,-268.24 763.44,-255.96"/>
<polygon fill="black" stroke="black" points="766.14,-258.22 770.87,-248.74 761.26,-253.2 766.14,-258.22"/>
</g>
<!-- node0x7fba20704bf0 -->
<g id="node36" class="node">
<title>node0x7fba20704bf0</title>
<ellipse fill="lightgreen" stroke="black" cx="749" cy="-162" rx="27" ry="18"/>
<text text-anchor="middle" x="749" y="-158.3" font-family="Times,serif" font-size="14.00">14</text>
</g>
<!-- node0x7fba20704bc0&#45;&gt;node0x7fba20704bf0 -->
<g id="edge35" class="edge">
<title>node0x7fba20704bc0&#45;&gt;node0x7fba20704bf0</title>
<path fill="none" stroke="black" d="M777.89,-219.17C773.37,-210.38 767.38,-198.75 762.04,-188.35"/>
<polygon fill="black" stroke="black" points="765.05,-186.55 757.36,-179.26 758.82,-189.75 765.05,-186.55"/>
</g>
<!-- node0x7fba20704c20 -->
<g id="node37" class="node">
<title>node0x7fba20704c20</title>
<ellipse fill="pink" stroke="black" cx="821" cy="-162" rx="27" ry="18"/>
<text text-anchor="middle" x="821" y="-158.3" font-family="Times,serif" font-size="14.00">x</text>
</g>
<!-- node0x7fba20704bc0&#45;&gt;node0x7fba20704c20 -->
<g id="edge36" class="edge">
<title>node0x7fba20704bc0&#45;&gt;node0x7fba20704c20</title>
<path fill="none" stroke="black" d="M792.11,-219.17C796.63,-210.38 802.62,-198.75 807.96,-188.35"/>
<polygon fill="black" stroke="black" points="811.18,-189.75 812.64,-179.26 804.95,-186.55 811.18,-189.75"/>
</g>
</g>
</svg>
