<?xml version="1.0" encoding="UTF-8" standalone="no"?>
<!DOCTYPE svg PUBLIC "-//W3C//DTD SVG 1.1//EN"
 "http://www.w3.org/Graphics/SVG/1.1/DTD/svg11.dtd">
<!-- Generated by graphviz version 2.44.1 (20200629.0846)
 -->
<!-- Title: expr Pages: 1 -->
<svg width="206pt" height="260pt"
 viewBox="0.00 0.00 206.00 260.00" xmlns="http://www.w3.org/2000/svg" xmlns:xlink="http://www.w3.org/1999/xlink">
<g id="graph0" class="graph" transform="scale(1 1) rotate(0) translate(4 256)">
<title>expr</title>
<polygon fill="white" stroke="transparent" points="-4,4 -4,-256 202,-256 202,4 -4,4"/>
<!-- node0x7fb73dc06bd0 -->
<g id="node1" class="node">
<title>node0x7fb73dc06bd0</title>
<polygon fill="aliceblue" stroke="black" points="108,-228.44 135,-216 162,-228.44 161.97,-248.56 108.03,-248.56 108,-228.44"/>
<text text-anchor="middle" x="135" y="-230.3" font-family="Times,serif" font-size="14.00">+</text>
</g>
<!-- node0x7fb73dc06b70 -->
<g id="node2" class="node">
<title>node0x7fb73dc06b70</title>
<polygon fill="aliceblue" stroke="black" points="72,-156.44 99,-144 126,-156.44 125.97,-176.56 72.03,-176.56 72,-156.44"/>
<text text-anchor="middle" x="99" y="-158.3" font-family="Times,serif" font-size="14.00">&#45;</text>
</g>
<!-- node0x7fb73dc06bd0&#45;&gt;node0x7fb73dc06b70 -->
<g id="edge1" class="edge">
<title>node0x7fb73dc06bd0&#45;&gt;node0x7fb73dc06b70</title>
<path fill="none" stroke="black" d="M127.89,-219.17C123.01,-209.68 116.41,-196.86 110.76,-185.86"/>
<polygon fill="black" stroke="black" points="113.78,-184.09 106.1,-176.8 107.56,-187.29 113.78,-184.09"/>
</g>
<!-- node0x7fb73dc06ba0 -->
<g id="node7" class="node">
<title>node0x7fb73dc06ba0</title>
<ellipse fill="lightgreen" stroke="black" cx="171" cy="-162" rx="27" ry="18"/>
<text text-anchor="middle" x="171" y="-158.3" font-family="Times,serif" font-size="14.00">1</text>
</g>
<!-- node0x7fb73dc06bd0&#45;&gt;node0x7fb73dc06ba0 -->
<g id="edge6" class="edge">
<title>node0x7fb73dc06bd0&#45;&gt;node0x7fb73dc06ba0</title>
<path fill="none" stroke="black" d="M142.11,-219.17C146.63,-210.38 152.62,-198.75 157.96,-188.35"/>
<polygon fill="black" stroke="black" points="161.18,-189.75 162.64,-179.26 154.95,-186.55 161.18,-189.75"/>
</g>
<!-- node0x7fb73dc06450 -->
<g id="node3" class="node">
<title>node0x7fb73dc06450</title>
<polygon fill="aliceblue" stroke="black" points="36,-84.44 63,-72 90,-84.44 89.97,-104.56 36.03,-104.56 36,-84.44"/>
<text text-anchor="middle" x="63" y="-86.3" font-family="Times,serif" font-size="14.00">*</text>
</g>
<!-- node0x7fb73dc06b70&#45;&gt;node0x7fb73dc06450 -->
<g id="edge2" class="edge">
<title>node0x7fb73dc06b70&#45;&gt;node0x7fb73dc06450</title>
<path fill="none" stroke="black" d="M91.89,-147.17C87.01,-137.68 80.41,-124.86 74.76,-113.86"/>
<polygon fill="black" stroke="black" points="77.78,-112.09 70.1,-104.8 71.56,-115.29 77.78,-112.09"/>
</g>
<!-- node0x7fb73dc06ae0 -->
<g id="node6" class="node">
<title>node0x7fb73dc06ae0</title>
<ellipse fill="pink" stroke="black" cx="135" cy="-90" rx="27" ry="18"/>
<text text-anchor="middle" x="135" y="-86.3" font-family="Times,serif" font-size="14.00">y</text>
</g>
<!-- node0x7fb73dc06b70&#45;&gt;node0x7fb73dc06ae0 -->
<g id="edge5" class="edge">
<title>node0x7fb73dc06b70&#45;&gt;node0x7fb73dc06ae0</title>
<path fill="none" stroke="black" d="M106.11,-147.17C110.63,-138.38 116.62,-126.75 121.96,-116.35"/>
<polygon fill="black" stroke="black" points="125.18,-117.75 126.64,-107.26 118.95,-114.55 125.18,-117.75"/>
</g>
<!-- node0x7fb73dc06130 -->
<g id="node4" class="node">
<title>node0x7fb73dc06130</title>
<ellipse fill="lightgreen" stroke="black" cx="27" cy="-18" rx="27" ry="18"/>
<text text-anchor="middle" x="27" y="-14.3" font-family="Times,serif" font-size="14.00">2</text>
</g>
<!-- node0x7fb73dc06450&#45;&gt;node0x7fb73dc06130 -->
<g id="edge3" class="edge">
<title>node0x7fb73dc06450&#45;&gt;node0x7fb73dc06130</title>
<path fill="none" stroke="black" d="M55.89,-75.17C51.37,-66.38 45.38,-54.75 40.04,-44.35"/>
<polygon fill="black" stroke="black" points="43.05,-42.55 35.36,-35.26 36.82,-45.75 43.05,-42.55"/>
</g>
<!-- node0x7fb73dc06160 -->
<g id="node5" class="node">
<title>node0x7fb73dc06160</title>
<ellipse fill="pink" stroke="black" cx="99" cy="-18" rx="27" ry="18"/>
<text text-anchor="middle" x="99" y="-14.3" font-family="Times,serif" font-size="14.00">x</text>
</g>
<!-- node0x7fb73dc06450&#45;&gt;node0x7fb73dc06160 -->
<g id="edge4" class="edge">
<title>node0x7fb73dc06450&#45;&gt;node0x7fb73dc06160</title>
<path fill="none" stroke="black" d="M70.11,-75.17C74.63,-66.38 80.62,-54.75 85.96,-44.35"/>
<polygon fill="black" stroke="black" points="89.18,-45.75 90.64,-35.26 82.95,-42.55 89.18,-45.75"/>
</g>
</g>
</svg>
