<?xml version="1.0" encoding="UTF-8" standalone="no"?>
<!DOCTYPE svg PUBLIC "-//W3C//DTD SVG 1.1//EN"
 "http://www.w3.org/Graphics/SVG/1.1/DTD/svg11.dtd">
<!-- Generated by graphviz version 2.44.1 (20200629.0846)
 -->
<!-- Title: expr Pages: 1 -->
<svg width="279pt" height="404pt"
 viewBox="0.00 0.00 279.12 404.00" xmlns="http://www.w3.org/2000/svg" xmlns:xlink="http://www.w3.org/1999/xlink">
<g id="graph0" class="graph" transform="scale(1 1) rotate(0) translate(4 400)">
<title>expr</title>
<polygon fill="white" stroke="transparent" points="-4,4 -4,-400 275.12,-400 275.12,4 -4,4"/>
<!-- node0x10084b3c0 -->
<g id="node1" class="node">
<title>node0x10084b3c0</title>
<polygon fill="aliceblue" stroke="black" points="144,-372.44 171,-360 198,-372.44 197.97,-392.56 144.03,-392.56 144,-372.44"/>
<text text-anchor="middle" x="171" y="-374.3" font-family="Times,serif" font-size="14.00">+</text>
</g>
<!-- node0x10084abe0 -->
<g id="node2" class="node">
<title>node0x10084abe0</title>
<ellipse fill="lightgreen" stroke="black" cx="135" cy="-306" rx="27" ry="18"/>
<text text-anchor="middle" x="135" y="-302.3" font-family="Times,serif" font-size="14.00">1</text>
</g>
<!-- node0x10084b3c0&#45;&gt;node0x10084abe0 -->
<g id="edge1" class="edge">
<title>node0x10084b3c0&#45;&gt;node0x10084abe0</title>
<path fill="none" stroke="black" d="M163.89,-363.17C159.37,-354.38 153.38,-342.75 148.04,-332.35"/>
<polygon fill="black" stroke="black" points="151.05,-330.55 143.36,-323.26 144.82,-333.75 151.05,-330.55"/>
</g>
<!-- node0x10084b350 -->
<g id="node3" class="node">
<title>node0x10084b350</title>
<polygon fill="aliceblue" stroke="black" points="180,-300.44 207,-288 234,-300.44 233.97,-320.56 180.03,-320.56 180,-300.44"/>
<text text-anchor="middle" x="207" y="-302.3" font-family="Times,serif" font-size="14.00">+</text>
</g>
<!-- node0x10084b3c0&#45;&gt;node0x10084b350 -->
<g id="edge2" class="edge">
<title>node0x10084b3c0&#45;&gt;node0x10084b350</title>
<path fill="none" stroke="black" d="M178.11,-363.17C182.99,-353.68 189.59,-340.86 195.24,-329.86"/>
<polygon fill="black" stroke="black" points="198.44,-331.29 199.9,-320.8 192.22,-328.09 198.44,-331.29"/>
</g>
<!-- node0x10084b040 -->
<g id="node4" class="node">
<title>node0x10084b040</title>
<polygon fill="aliceblue" stroke="black" points="143,-228.44 170,-216 197,-228.44 196.97,-248.56 143.03,-248.56 143,-228.44"/>
<text text-anchor="middle" x="170" y="-230.3" font-family="Times,serif" font-size="14.00">*</text>
</g>
<!-- node0x10084b350&#45;&gt;node0x10084b040 -->
<g id="edge3" class="edge">
<title>node0x10084b350&#45;&gt;node0x10084b040</title>
<path fill="none" stroke="black" d="M199.69,-291.17C194.67,-281.68 187.9,-268.86 182.09,-257.86"/>
<polygon fill="black" stroke="black" points="185.06,-256.01 177.29,-248.8 178.87,-259.28 185.06,-256.01"/>
</g>
<!-- node0x10084b200 -->
<g id="node12" class="node">
<title>node0x10084b200</title>
<polygon fill="aliceblue" stroke="black" points="214.76,-228.44 243,-216 271.24,-228.44 271.21,-248.56 214.79,-248.56 214.76,-228.44"/>
<text text-anchor="middle" x="243" y="-230.3" font-family="Times,serif" font-size="14.00">cos</text>
</g>
<!-- node0x10084b350&#45;&gt;node0x10084b200 -->
<g id="edge11" class="edge">
<title>node0x10084b350&#45;&gt;node0x10084b200</title>
<path fill="none" stroke="black" d="M214.11,-291.17C218.99,-281.68 225.59,-268.86 231.24,-257.86"/>
<polygon fill="black" stroke="black" points="234.44,-259.29 235.9,-248.8 228.22,-256.09 234.44,-259.29"/>
</g>
<!-- node0x10084ac50 -->
<g id="node5" class="node">
<title>node0x10084ac50</title>
<polygon fill="aliceblue" stroke="black" points="72,-156.44 99,-144 126,-156.44 125.97,-176.56 72.03,-176.56 72,-156.44"/>
<text text-anchor="middle" x="99" y="-158.3" font-family="Times,serif" font-size="14.00">+</text>
</g>
<!-- node0x10084b040&#45;&gt;node0x10084ac50 -->
<g id="edge4" class="edge">
<title>node0x10084b040&#45;&gt;node0x10084ac50</title>
<path fill="none" stroke="black" d="M157.96,-221.13C147.6,-210.92 132.43,-195.96 120.07,-183.78"/>
<polygon fill="black" stroke="black" points="122.39,-181.14 112.81,-176.61 117.47,-186.13 122.39,-181.14"/>
</g>
<!-- node0x10084afd0 -->
<g id="node8" class="node">
<title>node0x10084afd0</title>
<polygon fill="aliceblue" stroke="black" points="144,-156.44 171,-144 198,-156.44 197.97,-176.56 144.03,-176.56 144,-156.44"/>
<text text-anchor="middle" x="171" y="-158.3" font-family="Times,serif" font-size="14.00">*</text>
</g>
<!-- node0x10084b040&#45;&gt;node0x10084afd0 -->
<g id="edge7" class="edge">
<title>node0x10084b040&#45;&gt;node0x10084afd0</title>
<path fill="none" stroke="black" d="M170.24,-216.05C170.37,-207.35 170.52,-196.6 170.66,-187.06"/>
<polygon fill="black" stroke="black" points="174.16,-187.01 170.8,-176.97 167.16,-186.91 174.16,-187.01"/>
</g>
<!-- node0x10084acc0 -->
<g id="node6" class="node">
<title>node0x10084acc0</title>
<ellipse fill="pink" stroke="black" cx="27" cy="-90" rx="27" ry="18"/>
<text text-anchor="middle" x="27" y="-86.3" font-family="Times,serif" font-size="14.00">x</text>
</g>
<!-- node0x10084ac50&#45;&gt;node0x10084acc0 -->
<g id="edge5" class="edge">
<title>node0x10084ac50&#45;&gt;node0x10084acc0</title>
<path fill="none" stroke="black" d="M87.11,-149.44C76.79,-139.41 61.58,-124.62 49.04,-112.43"/>
<polygon fill="black" stroke="black" points="51.26,-109.7 41.65,-105.24 46.38,-114.72 51.26,-109.7"/>
</g>
<!-- node0x10084ad30 -->
<g id="node7" class="node">
<title>node0x10084ad30</title>
<ellipse fill="pink" stroke="black" cx="99" cy="-90" rx="27" ry="18"/>
<text text-anchor="middle" x="99" y="-86.3" font-family="Times,serif" font-size="14.00">y</text>
</g>
<!-- node0x10084ac50&#45;&gt;node0x10084ad30 -->
<g id="edge6" class="edge">
<title>node0x10084ac50&#45;&gt;node0x10084ad30</title>
<path fill="none" stroke="black" d="M99,-143.7C99,-135.98 99,-126.71 99,-118.11"/>
<polygon fill="black" stroke="black" points="102.5,-118.1 99,-108.1 95.5,-118.1 102.5,-118.1"/>
</g>
<!-- node0x10084ada0 -->
<g id="node9" class="node">
<title>node0x10084ada0</title>
<ellipse fill="lightgreen" stroke="black" cx="171" cy="-90" rx="27" ry="18"/>
<text text-anchor="middle" x="171" y="-86.3" font-family="Times,serif" font-size="14.00">&#45;1</text>
</g>
<!-- node0x10084afd0&#45;&gt;node0x10084ada0 -->
<g id="edge8" class="edge">
<title>node0x10084afd0&#45;&gt;node0x10084ada0</title>
<path fill="none" stroke="black" d="M171,-143.7C171,-135.98 171,-126.71 171,-118.11"/>
<polygon fill="black" stroke="black" points="174.5,-118.1 171,-108.1 167.5,-118.1 174.5,-118.1"/>
</g>
<!-- node0x10084ae80 -->
<g id="node10" class="node">
<title>node0x10084ae80</title>
<polygon fill="aliceblue" stroke="black" points="216,-84.44 243,-72 270,-84.44 269.97,-104.56 216.03,-104.56 216,-84.44"/>
<text text-anchor="middle" x="243" y="-86.3" font-family="Times,serif" font-size="14.00">sin</text>
</g>
<!-- node0x10084afd0&#45;&gt;node0x10084ae80 -->
<g id="edge9" class="edge">
<title>node0x10084afd0&#45;&gt;node0x10084ae80</title>
<path fill="none" stroke="black" d="M182.89,-149.44C193.34,-139.28 208.81,-124.24 221.44,-111.96"/>
<polygon fill="black" stroke="black" points="224.14,-114.22 228.87,-104.74 219.26,-109.2 224.14,-114.22"/>
</g>
<!-- node0x10084ae10 -->
<g id="node11" class="node">
<title>node0x10084ae10</title>
<ellipse fill="pink" stroke="black" cx="243" cy="-18" rx="27" ry="18"/>
<text text-anchor="middle" x="243" y="-14.3" font-family="Times,serif" font-size="14.00">x</text>
</g>
<!-- node0x10084ae80&#45;&gt;node0x10084ae10 -->
<g id="edge10" class="edge">
<title>node0x10084ae80&#45;&gt;node0x10084ae10</title>
<path fill="none" stroke="black" d="M243,-71.7C243,-63.98 243,-54.71 243,-46.11"/>
<polygon fill="black" stroke="black" points="246.5,-46.1 243,-36.1 239.5,-46.1 246.5,-46.1"/>
</g>
<!-- node0x10084b270 -->
<g id="node13" class="node">
<title>node0x10084b270</title>
<ellipse fill="pink" stroke="black" cx="243" cy="-162" rx="27" ry="18"/>
<text text-anchor="middle" x="243" y="-158.3" font-family="Times,serif" font-size="14.00">x</text>
</g>
<!-- node0x10084b200&#45;&gt;node0x10084b270 -->
<g id="edge12" class="edge">
<title>node0x10084b200&#45;&gt;node0x10084b270</title>
<path fill="none" stroke="black" d="M243,-215.7C243,-207.98 243,-198.71 243,-190.11"/>
<polygon fill="black" stroke="black" points="246.5,-190.1 243,-180.1 239.5,-190.1 246.5,-190.1"/>
</g>
</g>
</svg>
