<?xml version="1.0" encoding="UTF-8" standalone="no"?>
<!DOCTYPE svg PUBLIC "-//W3C//DTD SVG 1.1//EN"
 "http://www.w3.org/Graphics/SVG/1.1/DTD/svg11.dtd">
<!-- Generated by graphviz version 2.44.1 (20200629.0846)
 -->
<!-- Title: expr Pages: 1 -->
<svg width="770pt" height="476pt"
 viewBox="0.00 0.00 770.00 476.00" xmlns="http://www.w3.org/2000/svg" xmlns:xlink="http://www.w3.org/1999/xlink">
<g id="graph0" class="graph" transform="scale(1 1) rotate(0) translate(4 472)">
<title>expr</title>
<polygon fill="white" stroke="transparent" points="-4,4 -4,-472 766,-472 766,4 -4,4"/>
<!-- node0x10083b2a0 -->
<g id="node1" class="node">
<title>node0x10083b2a0</title>
<ellipse fill="none" stroke="black" cx="555" cy="-450" rx="27" ry="18"/>
<text text-anchor="middle" x="555" y="-446.3" font-family="Times,serif" font-size="14.00">^</text>
</g>
<!-- node0x10083af90 -->
<g id="node2" class="node">
<title>node0x10083af90</title>
<ellipse fill="none" stroke="black" cx="519" cy="-378" rx="27" ry="18"/>
<text text-anchor="middle" x="519" y="-374.3" font-family="Times,serif" font-size="14.00">+</text>
</g>
<!-- node0x10083b2a0&#45;&gt;node0x10083af90 -->
<g id="edge1" class="edge">
<title>node0x10083b2a0&#45;&gt;node0x10083af90</title>
<path fill="none" stroke="black" d="M546.65,-432.76C542.29,-424.28 536.85,-413.71 531.96,-404.2"/>
<polygon fill="black" stroke="black" points="534.99,-402.44 527.3,-395.15 528.77,-405.64 534.99,-402.44"/>
</g>
<!-- node0x10083b230 -->
<g id="node27" class="node">
<title>node0x10083b230</title>
<ellipse fill="none" stroke="black" cx="591" cy="-378" rx="27" ry="18"/>
<text text-anchor="middle" x="591" y="-374.3" font-family="Times,serif" font-size="14.00">*</text>
</g>
<!-- node0x10083b2a0&#45;&gt;node0x10083b230 -->
<g id="edge26" class="edge">
<title>node0x10083b2a0&#45;&gt;node0x10083b230</title>
<path fill="none" stroke="black" d="M563.35,-432.76C567.71,-424.28 573.15,-413.71 578.04,-404.2"/>
<polygon fill="black" stroke="black" points="581.23,-405.64 582.7,-395.15 575.01,-402.44 581.23,-405.64"/>
</g>
<!-- node0x10083ac80 -->
<g id="node3" class="node">
<title>node0x10083ac80</title>
<ellipse fill="none" stroke="black" cx="409" cy="-306" rx="27" ry="18"/>
<text text-anchor="middle" x="409" y="-302.3" font-family="Times,serif" font-size="14.00">+</text>
</g>
<!-- node0x10083af90&#45;&gt;node0x10083ac80 -->
<g id="edge2" class="edge">
<title>node0x10083af90&#45;&gt;node0x10083ac80</title>
<path fill="none" stroke="black" d="M499.84,-364.81C482.33,-353.67 456.24,-337.06 436.51,-324.5"/>
<polygon fill="black" stroke="black" points="438.26,-321.47 427.94,-319.05 434.5,-327.37 438.26,-321.47"/>
</g>
<!-- node0x10083af20 -->
<g id="node21" class="node">
<title>node0x10083af20</title>
<ellipse fill="none" stroke="black" cx="519" cy="-306" rx="27" ry="18"/>
<text text-anchor="middle" x="519" y="-302.3" font-family="Times,serif" font-size="14.00">cos</text>
</g>
<!-- node0x10083af90&#45;&gt;node0x10083af20 -->
<g id="edge20" class="edge">
<title>node0x10083af90&#45;&gt;node0x10083af20</title>
<path fill="none" stroke="black" d="M519,-359.7C519,-351.98 519,-342.71 519,-334.11"/>
<polygon fill="black" stroke="black" points="522.5,-334.1 519,-324.1 515.5,-334.1 522.5,-334.1"/>
</g>
<!-- node0x10083a970 -->
<g id="node4" class="node">
<title>node0x10083a970</title>
<ellipse fill="none" stroke="black" cx="276" cy="-234" rx="27" ry="18"/>
<text text-anchor="middle" x="276" y="-230.3" font-family="Times,serif" font-size="14.00">+</text>
</g>
<!-- node0x10083ac80&#45;&gt;node0x10083a970 -->
<g id="edge3" class="edge">
<title>node0x10083ac80&#45;&gt;node0x10083a970</title>
<path fill="none" stroke="black" d="M388.51,-294.22C366.41,-282.59 331.02,-263.96 305.84,-250.7"/>
<polygon fill="black" stroke="black" points="307.21,-247.47 296.73,-245.91 303.95,-253.67 307.21,-247.47"/>
</g>
<!-- node0x10083ac10 -->
<g id="node15" class="node">
<title>node0x10083ac10</title>
<ellipse fill="none" stroke="black" cx="409" cy="-234" rx="27" ry="18"/>
<text text-anchor="middle" x="409" y="-230.3" font-family="Times,serif" font-size="14.00">^</text>
</g>
<!-- node0x10083ac80&#45;&gt;node0x10083ac10 -->
<g id="edge14" class="edge">
<title>node0x10083ac80&#45;&gt;node0x10083ac10</title>
<path fill="none" stroke="black" d="M409,-287.7C409,-279.98 409,-270.71 409,-262.11"/>
<polygon fill="black" stroke="black" points="412.5,-262.1 409,-252.1 405.5,-262.1 412.5,-262.1"/>
</g>
<!-- node0x10083a7b0 -->
<g id="node5" class="node">
<title>node0x10083a7b0</title>
<ellipse fill="none" stroke="black" cx="171" cy="-162" rx="27" ry="18"/>
<text text-anchor="middle" x="171" y="-158.3" font-family="Times,serif" font-size="14.00">+</text>
</g>
<!-- node0x10083a970&#45;&gt;node0x10083a7b0 -->
<g id="edge4" class="edge">
<title>node0x10083a970&#45;&gt;node0x10083a7b0</title>
<path fill="none" stroke="black" d="M257.23,-220.49C240.73,-209.49 216.52,-193.35 197.95,-180.97"/>
<polygon fill="black" stroke="black" points="199.87,-178.04 189.61,-175.41 195.99,-183.87 199.87,-178.04"/>
</g>
<!-- node0x10083a900 -->
<g id="node12" class="node">
<title>node0x10083a900</title>
<ellipse fill="none" stroke="black" cx="276" cy="-162" rx="27" ry="18"/>
<text text-anchor="middle" x="276" y="-158.3" font-family="Times,serif" font-size="14.00">^</text>
</g>
<!-- node0x10083a970&#45;&gt;node0x10083a900 -->
<g id="edge11" class="edge">
<title>node0x10083a970&#45;&gt;node0x10083a900</title>
<path fill="none" stroke="black" d="M276,-215.7C276,-207.98 276,-198.71 276,-190.11"/>
<polygon fill="black" stroke="black" points="279.5,-190.1 276,-180.1 272.5,-190.1 279.5,-190.1"/>
</g>
<!-- node0x10083a5f0 -->
<g id="node6" class="node">
<title>node0x10083a5f0</title>
<ellipse fill="none" stroke="black" cx="99" cy="-90" rx="27" ry="18"/>
<text text-anchor="middle" x="99" y="-86.3" font-family="Times,serif" font-size="14.00">^</text>
</g>
<!-- node0x10083a7b0&#45;&gt;node0x10083a5f0 -->
<g id="edge5" class="edge">
<title>node0x10083a7b0&#45;&gt;node0x10083a5f0</title>
<path fill="none" stroke="black" d="M156.43,-146.83C146.25,-136.94 132.48,-123.55 120.97,-112.36"/>
<polygon fill="black" stroke="black" points="123.41,-109.85 113.8,-105.38 118.53,-114.87 123.41,-109.85"/>
</g>
<!-- node0x10083a740 -->
<g id="node9" class="node">
<title>node0x10083a740</title>
<ellipse fill="none" stroke="black" cx="171" cy="-90" rx="27" ry="18"/>
<text text-anchor="middle" x="171" y="-86.3" font-family="Times,serif" font-size="14.00">*</text>
</g>
<!-- node0x10083a7b0&#45;&gt;node0x10083a740 -->
<g id="edge8" class="edge">
<title>node0x10083a7b0&#45;&gt;node0x10083a740</title>
<path fill="none" stroke="black" d="M171,-143.7C171,-135.98 171,-126.71 171,-118.11"/>
<polygon fill="black" stroke="black" points="174.5,-118.1 171,-108.1 167.5,-118.1 174.5,-118.1"/>
</g>
<!-- node0x10083a510 -->
<g id="node7" class="node">
<title>node0x10083a510</title>
<ellipse fill="none" stroke="black" cx="27" cy="-18" rx="27" ry="18"/>
<text text-anchor="middle" x="27" y="-14.3" font-family="Times,serif" font-size="14.00">x</text>
</g>
<!-- node0x10083a5f0&#45;&gt;node0x10083a510 -->
<g id="edge6" class="edge">
<title>node0x10083a5f0&#45;&gt;node0x10083a510</title>
<path fill="none" stroke="black" d="M84.43,-74.83C74.25,-64.94 60.48,-51.55 48.97,-40.36"/>
<polygon fill="black" stroke="black" points="51.41,-37.85 41.8,-33.38 46.53,-42.87 51.41,-37.85"/>
</g>
<!-- node0x10083a580 -->
<g id="node8" class="node">
<title>node0x10083a580</title>
<ellipse fill="none" stroke="black" cx="99" cy="-18" rx="27" ry="18"/>
<text text-anchor="middle" x="99" y="-14.3" font-family="Times,serif" font-size="14.00">2</text>
</g>
<!-- node0x10083a5f0&#45;&gt;node0x10083a580 -->
<g id="edge7" class="edge">
<title>node0x10083a5f0&#45;&gt;node0x10083a580</title>
<path fill="none" stroke="black" d="M99,-71.7C99,-63.98 99,-54.71 99,-46.11"/>
<polygon fill="black" stroke="black" points="102.5,-46.1 99,-36.1 95.5,-46.1 102.5,-46.1"/>
</g>
<!-- node0x10083a660 -->
<g id="node10" class="node">
<title>node0x10083a660</title>
<ellipse fill="none" stroke="black" cx="171" cy="-18" rx="27" ry="18"/>
<text text-anchor="middle" x="171" y="-14.3" font-family="Times,serif" font-size="14.00">17</text>
</g>
<!-- node0x10083a740&#45;&gt;node0x10083a660 -->
<g id="edge9" class="edge">
<title>node0x10083a740&#45;&gt;node0x10083a660</title>
<path fill="none" stroke="black" d="M171,-71.7C171,-63.98 171,-54.71 171,-46.11"/>
<polygon fill="black" stroke="black" points="174.5,-46.1 171,-36.1 167.5,-46.1 174.5,-46.1"/>
</g>
<!-- node0x10083a6d0 -->
<g id="node11" class="node">
<title>node0x10083a6d0</title>
<ellipse fill="none" stroke="black" cx="243" cy="-18" rx="27" ry="18"/>
<text text-anchor="middle" x="243" y="-14.3" font-family="Times,serif" font-size="14.00">x</text>
</g>
<!-- node0x10083a740&#45;&gt;node0x10083a6d0 -->
<g id="edge10" class="edge">
<title>node0x10083a740&#45;&gt;node0x10083a6d0</title>
<path fill="none" stroke="black" d="M185.57,-74.83C195.75,-64.94 209.52,-51.55 221.03,-40.36"/>
<polygon fill="black" stroke="black" points="223.47,-42.87 228.2,-33.38 218.59,-37.85 223.47,-42.87"/>
</g>
<!-- node0x10083a820 -->
<g id="node13" class="node">
<title>node0x10083a820</title>
<ellipse fill="none" stroke="black" cx="243" cy="-90" rx="27" ry="18"/>
<text text-anchor="middle" x="243" y="-86.3" font-family="Times,serif" font-size="14.00">x</text>
</g>
<!-- node0x10083a900&#45;&gt;node0x10083a820 -->
<g id="edge12" class="edge">
<title>node0x10083a900&#45;&gt;node0x10083a820</title>
<path fill="none" stroke="black" d="M268.18,-144.41C264.28,-136.13 259.46,-125.92 255.1,-116.66"/>
<polygon fill="black" stroke="black" points="258.19,-115.02 250.76,-107.47 251.86,-118.01 258.19,-115.02"/>
</g>
<!-- node0x10083a890 -->
<g id="node14" class="node">
<title>node0x10083a890</title>
<ellipse fill="none" stroke="black" cx="315" cy="-90" rx="27" ry="18"/>
<text text-anchor="middle" x="315" y="-86.3" font-family="Times,serif" font-size="14.00">x</text>
</g>
<!-- node0x10083a900&#45;&gt;node0x10083a890 -->
<g id="edge13" class="edge">
<title>node0x10083a900&#45;&gt;node0x10083a890</title>
<path fill="none" stroke="black" d="M285.05,-144.76C289.82,-136.19 295.78,-125.49 301.13,-115.9"/>
<polygon fill="black" stroke="black" points="304.19,-117.59 306,-107.15 298.08,-114.18 304.19,-117.59"/>
</g>
<!-- node0x10083ab30 -->
<g id="node16" class="node">
<title>node0x10083ab30</title>
<ellipse fill="none" stroke="black" cx="370" cy="-162" rx="32.49" ry="18"/>
<text text-anchor="middle" x="370" y="-158.3" font-family="Times,serif" font-size="14.00">arctan</text>
</g>
<!-- node0x10083ac10&#45;&gt;node0x10083ab30 -->
<g id="edge15" class="edge">
<title>node0x10083ac10&#45;&gt;node0x10083ab30</title>
<path fill="none" stroke="black" d="M399.95,-216.76C395.3,-208.4 389.51,-198.02 384.27,-188.61"/>
<polygon fill="black" stroke="black" points="387.19,-186.67 379.27,-179.63 381.08,-190.07 387.19,-186.67"/>
</g>
<!-- node0x10083aba0 -->
<g id="node20" class="node">
<title>node0x10083aba0</title>
<ellipse fill="none" stroke="black" cx="447" cy="-162" rx="27" ry="18"/>
<text text-anchor="middle" x="447" y="-158.3" font-family="Times,serif" font-size="14.00">x</text>
</g>
<!-- node0x10083ac10&#45;&gt;node0x10083aba0 -->
<g id="edge19" class="edge">
<title>node0x10083ac10&#45;&gt;node0x10083aba0</title>
<path fill="none" stroke="black" d="M417.81,-216.76C422.42,-208.28 428.16,-197.71 433.32,-188.2"/>
<polygon fill="black" stroke="black" points="436.54,-189.61 438.23,-179.15 430.39,-186.27 436.54,-189.61"/>
</g>
<!-- node0x10083aac0 -->
<g id="node17" class="node">
<title>node0x10083aac0</title>
<ellipse fill="none" stroke="black" cx="387" cy="-90" rx="27" ry="18"/>
<text text-anchor="middle" x="387" y="-86.3" font-family="Times,serif" font-size="14.00">^</text>
</g>
<!-- node0x10083ab30&#45;&gt;node0x10083aac0 -->
<g id="edge16" class="edge">
<title>node0x10083ab30&#45;&gt;node0x10083aac0</title>
<path fill="none" stroke="black" d="M374.12,-144.05C376.01,-136.26 378.3,-126.82 380.42,-118.08"/>
<polygon fill="black" stroke="black" points="383.85,-118.82 382.8,-108.28 377.04,-117.17 383.85,-118.82"/>
</g>
<!-- node0x10083a9e0 -->
<g id="node18" class="node">
<title>node0x10083a9e0</title>
<ellipse fill="none" stroke="black" cx="351" cy="-18" rx="27" ry="18"/>
<text text-anchor="middle" x="351" y="-14.3" font-family="Times,serif" font-size="14.00">x</text>
</g>
<!-- node0x10083aac0&#45;&gt;node0x10083a9e0 -->
<g id="edge17" class="edge">
<title>node0x10083aac0&#45;&gt;node0x10083a9e0</title>
<path fill="none" stroke="black" d="M378.65,-72.76C374.29,-64.28 368.85,-53.71 363.96,-44.2"/>
<polygon fill="black" stroke="black" points="366.99,-42.44 359.3,-35.15 360.77,-45.64 366.99,-42.44"/>
</g>
<!-- node0x10083aa50 -->
<g id="node19" class="node">
<title>node0x10083aa50</title>
<ellipse fill="none" stroke="black" cx="423" cy="-18" rx="27" ry="18"/>
<text text-anchor="middle" x="423" y="-14.3" font-family="Times,serif" font-size="14.00">x</text>
</g>
<!-- node0x10083aac0&#45;&gt;node0x10083aa50 -->
<g id="edge18" class="edge">
<title>node0x10083aac0&#45;&gt;node0x10083aa50</title>
<path fill="none" stroke="black" d="M395.35,-72.76C399.71,-64.28 405.15,-53.71 410.04,-44.2"/>
<polygon fill="black" stroke="black" points="413.23,-45.64 414.7,-35.15 407.01,-42.44 413.23,-45.64"/>
</g>
<!-- node0x10083aeb0 -->
<g id="node22" class="node">
<title>node0x10083aeb0</title>
<ellipse fill="none" stroke="black" cx="519" cy="-234" rx="27" ry="18"/>
<text text-anchor="middle" x="519" y="-230.3" font-family="Times,serif" font-size="14.00">&#45;</text>
</g>
<!-- node0x10083af20&#45;&gt;node0x10083aeb0 -->
<g id="edge21" class="edge">
<title>node0x10083af20&#45;&gt;node0x10083aeb0</title>
<path fill="none" stroke="black" d="M519,-287.7C519,-279.98 519,-270.71 519,-262.11"/>
<polygon fill="black" stroke="black" points="522.5,-262.1 519,-252.1 515.5,-262.1 522.5,-262.1"/>
</g>
<!-- node0x10083add0 -->
<g id="node23" class="node">
<title>node0x10083add0</title>
<ellipse fill="none" stroke="black" cx="519" cy="-162" rx="27" ry="18"/>
<text text-anchor="middle" x="519" y="-158.3" font-family="Times,serif" font-size="14.00">*</text>
</g>
<!-- node0x10083aeb0&#45;&gt;node0x10083add0 -->
<g id="edge22" class="edge">
<title>node0x10083aeb0&#45;&gt;node0x10083add0</title>
<path fill="none" stroke="black" d="M519,-215.7C519,-207.98 519,-198.71 519,-190.11"/>
<polygon fill="black" stroke="black" points="522.5,-190.1 519,-180.1 515.5,-190.1 522.5,-190.1"/>
</g>
<!-- node0x10083ae40 -->
<g id="node26" class="node">
<title>node0x10083ae40</title>
<ellipse fill="none" stroke="black" cx="591" cy="-162" rx="27" ry="18"/>
<text text-anchor="middle" x="591" y="-158.3" font-family="Times,serif" font-size="14.00">3</text>
</g>
<!-- node0x10083aeb0&#45;&gt;node0x10083ae40 -->
<g id="edge25" class="edge">
<title>node0x10083aeb0&#45;&gt;node0x10083ae40</title>
<path fill="none" stroke="black" d="M533.57,-218.83C543.75,-208.94 557.52,-195.55 569.03,-184.36"/>
<polygon fill="black" stroke="black" points="571.47,-186.87 576.2,-177.38 566.59,-181.85 571.47,-186.87"/>
</g>
<!-- node0x10083acf0 -->
<g id="node24" class="node">
<title>node0x10083acf0</title>
<ellipse fill="none" stroke="black" cx="489" cy="-90" rx="27" ry="18"/>
<text text-anchor="middle" x="489" y="-86.3" font-family="Times,serif" font-size="14.00">89</text>
</g>
<!-- node0x10083add0&#45;&gt;node0x10083acf0 -->
<g id="edge23" class="edge">
<title>node0x10083add0&#45;&gt;node0x10083acf0</title>
<path fill="none" stroke="black" d="M511.89,-144.41C508.34,-136.13 503.97,-125.92 500,-116.66"/>
<polygon fill="black" stroke="black" points="503.21,-115.28 496.06,-107.47 496.78,-118.04 503.21,-115.28"/>
</g>
<!-- node0x10083ad60 -->
<g id="node25" class="node">
<title>node0x10083ad60</title>
<ellipse fill="none" stroke="black" cx="561" cy="-90" rx="27" ry="18"/>
<text text-anchor="middle" x="561" y="-86.3" font-family="Times,serif" font-size="14.00">x</text>
</g>
<!-- node0x10083add0&#45;&gt;node0x10083ad60 -->
<g id="edge24" class="edge">
<title>node0x10083add0&#45;&gt;node0x10083ad60</title>
<path fill="none" stroke="black" d="M528.53,-145.12C533.67,-136.56 540.12,-125.8 545.92,-116.13"/>
<polygon fill="black" stroke="black" points="549.07,-117.68 551.22,-107.31 543.07,-114.08 549.07,-117.68"/>
</g>
<!-- node0x10083b070 -->
<g id="node28" class="node">
<title>node0x10083b070</title>
<ellipse fill="none" stroke="black" cx="591" cy="-306" rx="27" ry="18"/>
<text text-anchor="middle" x="591" y="-302.3" font-family="Times,serif" font-size="14.00">sin</text>
</g>
<!-- node0x10083b230&#45;&gt;node0x10083b070 -->
<g id="edge27" class="edge">
<title>node0x10083b230&#45;&gt;node0x10083b070</title>
<path fill="none" stroke="black" d="M591,-359.7C591,-351.98 591,-342.71 591,-334.11"/>
<polygon fill="black" stroke="black" points="594.5,-334.1 591,-324.1 587.5,-334.1 594.5,-334.1"/>
</g>
<!-- node0x10083b1c0 -->
<g id="node30" class="node">
<title>node0x10083b1c0</title>
<ellipse fill="none" stroke="black" cx="663" cy="-306" rx="27" ry="18"/>
<text text-anchor="middle" x="663" y="-302.3" font-family="Times,serif" font-size="14.00">^</text>
</g>
<!-- node0x10083b230&#45;&gt;node0x10083b1c0 -->
<g id="edge29" class="edge">
<title>node0x10083b230&#45;&gt;node0x10083b1c0</title>
<path fill="none" stroke="black" d="M605.57,-362.83C615.75,-352.94 629.52,-339.55 641.03,-328.36"/>
<polygon fill="black" stroke="black" points="643.47,-330.87 648.2,-321.38 638.59,-325.85 643.47,-330.87"/>
</g>
<!-- node0x10083b000 -->
<g id="node29" class="node">
<title>node0x10083b000</title>
<ellipse fill="none" stroke="black" cx="591" cy="-234" rx="27" ry="18"/>
<text text-anchor="middle" x="591" y="-230.3" font-family="Times,serif" font-size="14.00">x</text>
</g>
<!-- node0x10083b070&#45;&gt;node0x10083b000 -->
<g id="edge28" class="edge">
<title>node0x10083b070&#45;&gt;node0x10083b000</title>
<path fill="none" stroke="black" d="M591,-287.7C591,-279.98 591,-270.71 591,-262.11"/>
<polygon fill="black" stroke="black" points="594.5,-262.1 591,-252.1 587.5,-262.1 594.5,-262.1"/>
</g>
<!-- node0x10083b0e0 -->
<g id="node31" class="node">
<title>node0x10083b0e0</title>
<ellipse fill="none" stroke="black" cx="663" cy="-234" rx="27" ry="18"/>
<text text-anchor="middle" x="663" y="-230.3" font-family="Times,serif" font-size="14.00">x</text>
</g>
<!-- node0x10083b1c0&#45;&gt;node0x10083b0e0 -->
<g id="edge30" class="edge">
<title>node0x10083b1c0&#45;&gt;node0x10083b0e0</title>
<path fill="none" stroke="black" d="M663,-287.7C663,-279.98 663,-270.71 663,-262.11"/>
<polygon fill="black" stroke="black" points="666.5,-262.1 663,-252.1 659.5,-262.1 666.5,-262.1"/>
</g>
<!-- node0x10083b150 -->
<g id="node32" class="node">
<title>node0x10083b150</title>
<ellipse fill="none" stroke="black" cx="735" cy="-234" rx="27" ry="18"/>
<text text-anchor="middle" x="735" y="-230.3" font-family="Times,serif" font-size="14.00">3</text>
</g>
<!-- node0x10083b1c0&#45;&gt;node0x10083b150 -->
<g id="edge31" class="edge">
<title>node0x10083b1c0&#45;&gt;node0x10083b150</title>
<path fill="none" stroke="black" d="M677.57,-290.83C687.75,-280.94 701.52,-267.55 713.03,-256.36"/>
<polygon fill="black" stroke="black" points="715.47,-258.87 720.2,-249.38 710.59,-253.85 715.47,-258.87"/>
</g>
</g>
</svg>
