<?xml version="1.0" encoding="UTF-8" standalone="no"?>
<!DOCTYPE svg PUBLIC "-//W3C//DTD SVG 1.1//EN"
 "http://www.w3.org/Graphics/SVG/1.1/DTD/svg11.dtd">
<!-- Generated by graphviz version 2.44.1 (20200629.0846)
 -->
<!-- Title: expr Pages: 1 -->
<svg width="242pt" height="548pt"
 viewBox="0.00 0.00 242.00 548.00" xmlns="http://www.w3.org/2000/svg" xmlns:xlink="http://www.w3.org/1999/xlink">
<g id="graph0" class="graph" transform="scale(1 1) rotate(0) translate(4 544)">
<title>expr</title>
<polygon fill="white" stroke="transparent" points="-4,4 -4,-544 238,-544 238,4 -4,4"/>
<!-- node0x7fa3d3f04620 -->
<g id="node1" class="node">
<title>node0x7fa3d3f04620</title>
<ellipse fill="none" stroke="black" cx="99" cy="-522" rx="27" ry="18"/>
<text text-anchor="middle" x="99" y="-518.3" font-family="Times,serif" font-size="14.00">/</text>
</g>
<!-- node0x7fa3d3f045a0 -->
<g id="node2" class="node">
<title>node0x7fa3d3f045a0</title>
<ellipse fill="none" stroke="black" cx="63" cy="-450" rx="27" ry="18"/>
<text text-anchor="middle" x="63" y="-446.3" font-family="Times,serif" font-size="14.00">*</text>
</g>
<!-- node0x7fa3d3f04620&#45;&gt;node0x7fa3d3f045a0 -->
<g id="edge1" class="edge">
<title>node0x7fa3d3f04620&#45;&gt;node0x7fa3d3f045a0</title>
<path fill="none" stroke="black" d="M90.65,-504.76C86.29,-496.28 80.85,-485.71 75.96,-476.2"/>
<polygon fill="black" stroke="black" points="78.99,-474.44 71.3,-467.15 72.77,-477.64 78.99,-474.44"/>
</g>
<!-- node0x7fa3d3f045e0 -->
<g id="node13" class="node">
<title>node0x7fa3d3f045e0</title>
<ellipse fill="none" stroke="black" cx="135" cy="-450" rx="27" ry="18"/>
<text text-anchor="middle" x="135" y="-446.3" font-family="Times,serif" font-size="14.00">79</text>
</g>
<!-- node0x7fa3d3f04620&#45;&gt;node0x7fa3d3f045e0 -->
<g id="edge12" class="edge">
<title>node0x7fa3d3f04620&#45;&gt;node0x7fa3d3f045e0</title>
<path fill="none" stroke="black" d="M107.35,-504.76C111.71,-496.28 117.15,-485.71 122.04,-476.2"/>
<polygon fill="black" stroke="black" points="125.23,-477.64 126.7,-467.15 119.01,-474.44 125.23,-477.64"/>
</g>
<!-- node0x7fa3d3f04100 -->
<g id="node3" class="node">
<title>node0x7fa3d3f04100</title>
<ellipse fill="none" stroke="black" cx="27" cy="-378" rx="27" ry="18"/>
<text text-anchor="middle" x="27" y="-374.3" font-family="Times,serif" font-size="14.00">10</text>
</g>
<!-- node0x7fa3d3f045a0&#45;&gt;node0x7fa3d3f04100 -->
<g id="edge2" class="edge">
<title>node0x7fa3d3f045a0&#45;&gt;node0x7fa3d3f04100</title>
<path fill="none" stroke="black" d="M54.65,-432.76C50.29,-424.28 44.85,-413.71 39.96,-404.2"/>
<polygon fill="black" stroke="black" points="42.99,-402.44 35.3,-395.15 36.77,-405.64 42.99,-402.44"/>
</g>
<!-- node0x7fa3d3f04560 -->
<g id="node4" class="node">
<title>node0x7fa3d3f04560</title>
<ellipse fill="none" stroke="black" cx="99" cy="-378" rx="27" ry="18"/>
<text text-anchor="middle" x="99" y="-374.3" font-family="Times,serif" font-size="14.00">+</text>
</g>
<!-- node0x7fa3d3f045a0&#45;&gt;node0x7fa3d3f04560 -->
<g id="edge3" class="edge">
<title>node0x7fa3d3f045a0&#45;&gt;node0x7fa3d3f04560</title>
<path fill="none" stroke="black" d="M71.35,-432.76C75.71,-424.28 81.15,-413.71 86.04,-404.2"/>
<polygon fill="black" stroke="black" points="89.23,-405.64 90.7,-395.15 83.01,-402.44 89.23,-405.64"/>
</g>
<!-- node0x7fa3d3f04140 -->
<g id="node5" class="node">
<title>node0x7fa3d3f04140</title>
<ellipse fill="none" stroke="black" cx="63" cy="-306" rx="27" ry="18"/>
<text text-anchor="middle" x="63" y="-302.3" font-family="Times,serif" font-size="14.00">20</text>
</g>
<!-- node0x7fa3d3f04560&#45;&gt;node0x7fa3d3f04140 -->
<g id="edge4" class="edge">
<title>node0x7fa3d3f04560&#45;&gt;node0x7fa3d3f04140</title>
<path fill="none" stroke="black" d="M90.65,-360.76C86.29,-352.28 80.85,-341.71 75.96,-332.2"/>
<polygon fill="black" stroke="black" points="78.99,-330.44 71.3,-323.15 72.77,-333.64 78.99,-330.44"/>
</g>
<!-- node0x7fa3d3f04520 -->
<g id="node6" class="node">
<title>node0x7fa3d3f04520</title>
<ellipse fill="none" stroke="black" cx="135" cy="-306" rx="27" ry="18"/>
<text text-anchor="middle" x="135" y="-302.3" font-family="Times,serif" font-size="14.00">sin</text>
</g>
<!-- node0x7fa3d3f04560&#45;&gt;node0x7fa3d3f04520 -->
<g id="edge5" class="edge">
<title>node0x7fa3d3f04560&#45;&gt;node0x7fa3d3f04520</title>
<path fill="none" stroke="black" d="M107.35,-360.76C111.71,-352.28 117.15,-341.71 122.04,-332.2"/>
<polygon fill="black" stroke="black" points="125.23,-333.64 126.7,-323.15 119.01,-330.44 125.23,-333.64"/>
</g>
<!-- node0x7fa3d3f044e0 -->
<g id="node7" class="node">
<title>node0x7fa3d3f044e0</title>
<ellipse fill="none" stroke="black" cx="135" cy="-234" rx="27" ry="18"/>
<text text-anchor="middle" x="135" y="-230.3" font-family="Times,serif" font-size="14.00">+</text>
</g>
<!-- node0x7fa3d3f04520&#45;&gt;node0x7fa3d3f044e0 -->
<g id="edge6" class="edge">
<title>node0x7fa3d3f04520&#45;&gt;node0x7fa3d3f044e0</title>
<path fill="none" stroke="black" d="M135,-287.7C135,-279.98 135,-270.71 135,-262.11"/>
<polygon fill="black" stroke="black" points="138.5,-262.1 135,-252.1 131.5,-262.1 138.5,-262.1"/>
</g>
<!-- node0x7fa3d3f04180 -->
<g id="node8" class="node">
<title>node0x7fa3d3f04180</title>
<ellipse fill="none" stroke="black" cx="99" cy="-162" rx="27" ry="18"/>
<text text-anchor="middle" x="99" y="-158.3" font-family="Times,serif" font-size="14.00">60</text>
</g>
<!-- node0x7fa3d3f044e0&#45;&gt;node0x7fa3d3f04180 -->
<g id="edge7" class="edge">
<title>node0x7fa3d3f044e0&#45;&gt;node0x7fa3d3f04180</title>
<path fill="none" stroke="black" d="M126.65,-216.76C122.29,-208.28 116.85,-197.71 111.96,-188.2"/>
<polygon fill="black" stroke="black" points="114.99,-186.44 107.3,-179.15 108.77,-189.64 114.99,-186.44"/>
</g>
<!-- node0x7fa3d3f044a0 -->
<g id="node9" class="node">
<title>node0x7fa3d3f044a0</title>
<ellipse fill="none" stroke="black" cx="171" cy="-162" rx="27" ry="18"/>
<text text-anchor="middle" x="171" y="-158.3" font-family="Times,serif" font-size="14.00">tan</text>
</g>
<!-- node0x7fa3d3f044e0&#45;&gt;node0x7fa3d3f044a0 -->
<g id="edge8" class="edge">
<title>node0x7fa3d3f044e0&#45;&gt;node0x7fa3d3f044a0</title>
<path fill="none" stroke="black" d="M143.35,-216.76C147.71,-208.28 153.15,-197.71 158.04,-188.2"/>
<polygon fill="black" stroke="black" points="161.23,-189.64 162.7,-179.15 155.01,-186.44 161.23,-189.64"/>
</g>
<!-- node0x7fa3d3f04460 -->
<g id="node10" class="node">
<title>node0x7fa3d3f04460</title>
<ellipse fill="none" stroke="black" cx="171" cy="-90" rx="27" ry="18"/>
<text text-anchor="middle" x="171" y="-86.3" font-family="Times,serif" font-size="14.00">+</text>
</g>
<!-- node0x7fa3d3f044a0&#45;&gt;node0x7fa3d3f04460 -->
<g id="edge9" class="edge">
<title>node0x7fa3d3f044a0&#45;&gt;node0x7fa3d3f04460</title>
<path fill="none" stroke="black" d="M171,-143.7C171,-135.98 171,-126.71 171,-118.11"/>
<polygon fill="black" stroke="black" points="174.5,-118.1 171,-108.1 167.5,-118.1 174.5,-118.1"/>
</g>
<!-- node0x7fa3d3f041c0 -->
<g id="node11" class="node">
<title>node0x7fa3d3f041c0</title>
<ellipse fill="none" stroke="black" cx="135" cy="-18" rx="27" ry="18"/>
<text text-anchor="middle" x="135" y="-14.3" font-family="Times,serif" font-size="14.00">x</text>
</g>
<!-- node0x7fa3d3f04460&#45;&gt;node0x7fa3d3f041c0 -->
<g id="edge10" class="edge">
<title>node0x7fa3d3f04460&#45;&gt;node0x7fa3d3f041c0</title>
<path fill="none" stroke="black" d="M162.65,-72.76C158.29,-64.28 152.85,-53.71 147.96,-44.2"/>
<polygon fill="black" stroke="black" points="150.99,-42.44 143.3,-35.15 144.77,-45.64 150.99,-42.44"/>
</g>
<!-- node0x7fa3d3f04420 -->
<g id="node12" class="node">
<title>node0x7fa3d3f04420</title>
<ellipse fill="none" stroke="black" cx="207" cy="-18" rx="27" ry="18"/>
<text text-anchor="middle" x="207" y="-14.3" font-family="Times,serif" font-size="14.00">5</text>
</g>
<!-- node0x7fa3d3f04460&#45;&gt;node0x7fa3d3f04420 -->
<g id="edge11" class="edge">
<title>node0x7fa3d3f04460&#45;&gt;node0x7fa3d3f04420</title>
<path fill="none" stroke="black" d="M179.35,-72.76C183.71,-64.28 189.15,-53.71 194.04,-44.2"/>
<polygon fill="black" stroke="black" points="197.23,-45.64 198.7,-35.15 191.01,-42.44 197.23,-45.64"/>
</g>
</g>
</svg>
