<?xml version="1.0" encoding="UTF-8" standalone="no"?>
<!DOCTYPE svg PUBLIC "-//W3C//DTD SVG 1.1//EN"
 "http://www.w3.org/Graphics/SVG/1.1/DTD/svg11.dtd">
<!-- Generated by graphviz version 2.44.1 (20200629.0846)
 -->
<!-- Title: expr Pages: 1 -->
<svg width="206pt" height="332pt"
 viewBox="0.00 0.00 206.00 332.00" xmlns="http://www.w3.org/2000/svg" xmlns:xlink="http://www.w3.org/1999/xlink">
<g id="graph0" class="graph" transform="scale(1 1) rotate(0) translate(4 328)">
<title>expr</title>
<polygon fill="white" stroke="transparent" points="-4,4 -4,-328 202,-328 202,4 -4,4"/>
<!-- node0x7fb3c3f046e0 -->
<g id="node1" class="node">
<title>node0x7fb3c3f046e0</title>
<ellipse fill="none" stroke="black" cx="63" cy="-306" rx="27" ry="18"/>
<text text-anchor="middle" x="63" y="-302.3" font-family="Times,serif" font-size="14.00">+</text>
</g>
<!-- node0x7fb3c3f042c0 -->
<g id="node2" class="node">
<title>node0x7fb3c3f042c0</title>
<ellipse fill="none" stroke="black" cx="27" cy="-234" rx="27" ry="18"/>
<text text-anchor="middle" x="27" y="-230.3" font-family="Times,serif" font-size="14.00">1</text>
</g>
<!-- node0x7fb3c3f046e0&#45;&gt;node0x7fb3c3f042c0 -->
<g id="edge1" class="edge">
<title>node0x7fb3c3f046e0&#45;&gt;node0x7fb3c3f042c0</title>
<path fill="none" stroke="black" d="M54.65,-288.76C50.29,-280.28 44.85,-269.71 39.96,-260.2"/>
<polygon fill="black" stroke="black" points="42.99,-258.44 35.3,-251.15 36.77,-261.64 42.99,-258.44"/>
</g>
<!-- node0x7fb3c3f046b0 -->
<g id="node3" class="node">
<title>node0x7fb3c3f046b0</title>
<ellipse fill="none" stroke="black" cx="99" cy="-234" rx="27" ry="18"/>
<text text-anchor="middle" x="99" y="-230.3" font-family="Times,serif" font-size="14.00">/</text>
</g>
<!-- node0x7fb3c3f046e0&#45;&gt;node0x7fb3c3f046b0 -->
<g id="edge2" class="edge">
<title>node0x7fb3c3f046e0&#45;&gt;node0x7fb3c3f046b0</title>
<path fill="none" stroke="black" d="M71.35,-288.76C75.71,-280.28 81.15,-269.71 86.04,-260.2"/>
<polygon fill="black" stroke="black" points="89.23,-261.64 90.7,-251.15 83.01,-258.44 89.23,-261.64"/>
</g>
<!-- node0x7fb3c3f04590 -->
<g id="node4" class="node">
<title>node0x7fb3c3f04590</title>
<ellipse fill="none" stroke="black" cx="63" cy="-162" rx="27" ry="18"/>
<text text-anchor="middle" x="63" y="-158.3" font-family="Times,serif" font-size="14.00">&#45;10</text>
</g>
<!-- node0x7fb3c3f046b0&#45;&gt;node0x7fb3c3f04590 -->
<g id="edge3" class="edge">
<title>node0x7fb3c3f046b0&#45;&gt;node0x7fb3c3f04590</title>
<path fill="none" stroke="black" d="M90.65,-216.76C86.29,-208.28 80.85,-197.71 75.96,-188.2"/>
<polygon fill="black" stroke="black" points="78.99,-186.44 71.3,-179.15 72.77,-189.64 78.99,-186.44"/>
</g>
<!-- node0x7fb3c3f04680 -->
<g id="node5" class="node">
<title>node0x7fb3c3f04680</title>
<ellipse fill="none" stroke="black" cx="135" cy="-162" rx="27" ry="18"/>
<text text-anchor="middle" x="135" y="-158.3" font-family="Times,serif" font-size="14.00">^</text>
</g>
<!-- node0x7fb3c3f046b0&#45;&gt;node0x7fb3c3f04680 -->
<g id="edge4" class="edge">
<title>node0x7fb3c3f046b0&#45;&gt;node0x7fb3c3f04680</title>
<path fill="none" stroke="black" d="M107.35,-216.76C111.71,-208.28 117.15,-197.71 122.04,-188.2"/>
<polygon fill="black" stroke="black" points="125.23,-189.64 126.7,-179.15 119.01,-186.44 125.23,-189.64"/>
</g>
<!-- node0x7fb3c3f045c0 -->
<g id="node6" class="node">
<title>node0x7fb3c3f045c0</title>
<ellipse fill="none" stroke="black" cx="99" cy="-90" rx="27" ry="18"/>
<text text-anchor="middle" x="99" y="-86.3" font-family="Times,serif" font-size="14.00">*</text>
</g>
<!-- node0x7fb3c3f04680&#45;&gt;node0x7fb3c3f045c0 -->
<g id="edge5" class="edge">
<title>node0x7fb3c3f04680&#45;&gt;node0x7fb3c3f045c0</title>
<path fill="none" stroke="black" d="M126.65,-144.76C122.29,-136.28 116.85,-125.71 111.96,-116.2"/>
<polygon fill="black" stroke="black" points="114.99,-114.44 107.3,-107.15 108.77,-117.64 114.99,-114.44"/>
</g>
<!-- node0x7fb3c3f04650 -->
<g id="node9" class="node">
<title>node0x7fb3c3f04650</title>
<ellipse fill="none" stroke="black" cx="171" cy="-90" rx="27" ry="18"/>
<text text-anchor="middle" x="171" y="-86.3" font-family="Times,serif" font-size="14.00">2</text>
</g>
<!-- node0x7fb3c3f04680&#45;&gt;node0x7fb3c3f04650 -->
<g id="edge8" class="edge">
<title>node0x7fb3c3f04680&#45;&gt;node0x7fb3c3f04650</title>
<path fill="none" stroke="black" d="M143.35,-144.76C147.71,-136.28 153.15,-125.71 158.04,-116.2"/>
<polygon fill="black" stroke="black" points="161.23,-117.64 162.7,-107.15 155.01,-114.44 161.23,-117.64"/>
</g>
<!-- node0x7fb3c3f045f0 -->
<g id="node7" class="node">
<title>node0x7fb3c3f045f0</title>
<ellipse fill="none" stroke="black" cx="63" cy="-18" rx="27" ry="18"/>
<text text-anchor="middle" x="63" y="-14.3" font-family="Times,serif" font-size="14.00">2</text>
</g>
<!-- node0x7fb3c3f045c0&#45;&gt;node0x7fb3c3f045f0 -->
<g id="edge6" class="edge">
<title>node0x7fb3c3f045c0&#45;&gt;node0x7fb3c3f045f0</title>
<path fill="none" stroke="black" d="M90.65,-72.76C86.29,-64.28 80.85,-53.71 75.96,-44.2"/>
<polygon fill="black" stroke="black" points="78.99,-42.44 71.3,-35.15 72.77,-45.64 78.99,-42.44"/>
</g>
<!-- node0x7fb3c3f04620 -->
<g id="node8" class="node">
<title>node0x7fb3c3f04620</title>
<ellipse fill="none" stroke="black" cx="135" cy="-18" rx="27" ry="18"/>
<text text-anchor="middle" x="135" y="-14.3" font-family="Times,serif" font-size="14.00">x</text>
</g>
<!-- node0x7fb3c3f045c0&#45;&gt;node0x7fb3c3f04620 -->
<g id="edge7" class="edge">
<title>node0x7fb3c3f045c0&#45;&gt;node0x7fb3c3f04620</title>
<path fill="none" stroke="black" d="M107.35,-72.76C111.71,-64.28 117.15,-53.71 122.04,-44.2"/>
<polygon fill="black" stroke="black" points="125.23,-45.64 126.7,-35.15 119.01,-42.44 125.23,-45.64"/>
</g>
</g>
</svg>
