<?xml version="1.0" encoding="UTF-8" standalone="no"?>
<!DOCTYPE svg PUBLIC "-//W3C//DTD SVG 1.1//EN"
 "http://www.w3.org/Graphics/SVG/1.1/DTD/svg11.dtd">
<!-- Generated by graphviz version 2.44.1 (20200629.0846)
 -->
<!-- Title: expr Pages: 1 -->
<svg width="458pt" height="404pt"
 viewBox="0.00 0.00 458.00 404.00" xmlns="http://www.w3.org/2000/svg" xmlns:xlink="http://www.w3.org/1999/xlink">
<g id="graph0" class="graph" transform="scale(1 1) rotate(0) translate(4 400)">
<title>expr</title>
<polygon fill="white" stroke="transparent" points="-4,4 -4,-400 454,-400 454,4 -4,4"/>
<!-- node0x7fba20504730 -->
<g id="node1" class="node">
<title>node0x7fba20504730</title>
<polygon fill="aliceblue" stroke="black" points="198,-372.44 225,-360 252,-372.44 251.97,-392.56 198.03,-392.56 198,-372.44"/>
<text text-anchor="middle" x="225" y="-374.3" font-family="Times,serif" font-size="14.00">+</text>
</g>
<!-- node0x7fba205044f0 -->
<g id="node2" class="node">
<title>node0x7fba205044f0</title>
<polygon fill="aliceblue" stroke="black" points="162,-300.44 189,-288 216,-300.44 215.97,-320.56 162.03,-320.56 162,-300.44"/>
<text text-anchor="middle" x="189" y="-302.3" font-family="Times,serif" font-size="14.00">+</text>
</g>
<!-- node0x7fba20504730&#45;&gt;node0x7fba205044f0 -->
<g id="edge1" class="edge">
<title>node0x7fba20504730&#45;&gt;node0x7fba205044f0</title>
<path fill="none" stroke="black" d="M217.89,-363.17C213.01,-353.68 206.41,-340.86 200.76,-329.86"/>
<polygon fill="black" stroke="black" points="203.78,-328.09 196.1,-320.8 197.56,-331.29 203.78,-328.09"/>
</g>
<!-- node0x7fba20504700 -->
<g id="node12" class="node">
<title>node0x7fba20504700</title>
<polygon fill="aliceblue" stroke="black" points="234,-300.44 261,-288 288,-300.44 287.97,-320.56 234.03,-320.56 234,-300.44"/>
<text text-anchor="middle" x="261" y="-302.3" font-family="Times,serif" font-size="14.00">*</text>
</g>
<!-- node0x7fba20504730&#45;&gt;node0x7fba20504700 -->
<g id="edge11" class="edge">
<title>node0x7fba20504730&#45;&gt;node0x7fba20504700</title>
<path fill="none" stroke="black" d="M232.11,-363.17C236.99,-353.68 243.59,-340.86 249.24,-329.86"/>
<polygon fill="black" stroke="black" points="252.44,-331.29 253.9,-320.8 246.22,-328.09 252.44,-331.29"/>
</g>
<!-- node0x7fba20504130 -->
<g id="node3" class="node">
<title>node0x7fba20504130</title>
<ellipse fill="pink" stroke="black" cx="117" cy="-234" rx="27" ry="18"/>
<text text-anchor="middle" x="117" y="-230.3" font-family="Times,serif" font-size="14.00">x</text>
</g>
<!-- node0x7fba205044f0&#45;&gt;node0x7fba20504130 -->
<g id="edge2" class="edge">
<title>node0x7fba205044f0&#45;&gt;node0x7fba20504130</title>
<path fill="none" stroke="black" d="M177.11,-293.44C166.79,-283.41 151.58,-268.62 139.04,-256.43"/>
<polygon fill="black" stroke="black" points="141.26,-253.7 131.65,-249.24 136.38,-258.72 141.26,-253.7"/>
</g>
<!-- node0x7fba205044c0 -->
<g id="node4" class="node">
<title>node0x7fba205044c0</title>
<polygon fill="aliceblue" stroke="black" points="162,-228.44 189,-216 216,-228.44 215.97,-248.56 162.03,-248.56 162,-228.44"/>
<text text-anchor="middle" x="189" y="-230.3" font-family="Times,serif" font-size="14.00">*</text>
</g>
<!-- node0x7fba205044f0&#45;&gt;node0x7fba205044c0 -->
<g id="edge3" class="edge">
<title>node0x7fba205044f0&#45;&gt;node0x7fba205044c0</title>
<path fill="none" stroke="black" d="M189,-287.7C189,-278.99 189,-268.3 189,-258.83"/>
<polygon fill="black" stroke="black" points="192.5,-258.82 189,-248.82 185.5,-258.82 192.5,-258.82"/>
</g>
<!-- node0x7fba20504430 -->
<g id="node5" class="node">
<title>node0x7fba20504430</title>
<polygon fill="aliceblue" stroke="black" points="107,-156.44 134,-144 161,-156.44 160.97,-176.56 107.03,-176.56 107,-156.44"/>
<text text-anchor="middle" x="134" y="-158.3" font-family="Times,serif" font-size="14.00">+</text>
</g>
<!-- node0x7fba205044c0&#45;&gt;node0x7fba20504430 -->
<g id="edge4" class="edge">
<title>node0x7fba205044c0&#45;&gt;node0x7fba20504430</title>
<path fill="none" stroke="black" d="M179.17,-220.49C171.41,-210.61 160.4,-196.6 151.19,-184.88"/>
<polygon fill="black" stroke="black" points="153.81,-182.55 144.88,-176.85 148.3,-186.87 153.81,-182.55"/>
</g>
<!-- node0x7fba20504490 -->
<g id="node10" class="node">
<title>node0x7fba20504490</title>
<polygon fill="aliceblue" stroke="black" points="178.76,-156.44 207,-144 235.24,-156.44 235.21,-176.56 178.79,-176.56 178.76,-156.44"/>
<text text-anchor="middle" x="207" y="-158.3" font-family="Times,serif" font-size="14.00">cos</text>
</g>
<!-- node0x7fba205044c0&#45;&gt;node0x7fba20504490 -->
<g id="edge9" class="edge">
<title>node0x7fba205044c0&#45;&gt;node0x7fba20504490</title>
<path fill="none" stroke="black" d="M192.99,-217.46C195.33,-208.38 198.33,-196.72 200.95,-186.53"/>
<polygon fill="black" stroke="black" points="204.4,-187.16 203.5,-176.6 197.62,-185.41 204.4,-187.16"/>
</g>
<!-- node0x7fba205041c0 -->
<g id="node6" class="node">
<title>node0x7fba205041c0</title>
<polygon fill="aliceblue" stroke="black" points="36,-84.44 63,-72 90,-84.44 89.97,-104.56 36.03,-104.56 36,-84.44"/>
<text text-anchor="middle" x="63" y="-86.3" font-family="Times,serif" font-size="14.00">^</text>
</g>
<!-- node0x7fba20504430&#45;&gt;node0x7fba205041c0 -->
<g id="edge5" class="edge">
<title>node0x7fba20504430&#45;&gt;node0x7fba205041c0</title>
<path fill="none" stroke="black" d="M121.96,-149.13C111.6,-138.92 96.43,-123.96 84.07,-111.78"/>
<polygon fill="black" stroke="black" points="86.39,-109.14 76.81,-104.61 81.47,-114.13 86.39,-109.14"/>
</g>
<!-- node0x7fba205041f0 -->
<g id="node9" class="node">
<title>node0x7fba205041f0</title>
<ellipse fill="pink" stroke="black" cx="135" cy="-90" rx="27" ry="18"/>
<text text-anchor="middle" x="135" y="-86.3" font-family="Times,serif" font-size="14.00">y</text>
</g>
<!-- node0x7fba20504430&#45;&gt;node0x7fba205041f0 -->
<g id="edge8" class="edge">
<title>node0x7fba20504430&#45;&gt;node0x7fba205041f0</title>
<path fill="none" stroke="black" d="M134.24,-144.05C134.35,-136.35 134.49,-127.03 134.61,-118.36"/>
<polygon fill="black" stroke="black" points="138.11,-118.32 134.75,-108.28 131.11,-118.22 138.11,-118.32"/>
</g>
<!-- node0x7fba20504160 -->
<g id="node7" class="node">
<title>node0x7fba20504160</title>
<ellipse fill="pink" stroke="black" cx="27" cy="-18" rx="27" ry="18"/>
<text text-anchor="middle" x="27" y="-14.3" font-family="Times,serif" font-size="14.00">x</text>
</g>
<!-- node0x7fba205041c0&#45;&gt;node0x7fba20504160 -->
<g id="edge6" class="edge">
<title>node0x7fba205041c0&#45;&gt;node0x7fba20504160</title>
<path fill="none" stroke="black" d="M55.89,-75.17C51.37,-66.38 45.38,-54.75 40.04,-44.35"/>
<polygon fill="black" stroke="black" points="43.05,-42.55 35.36,-35.26 36.82,-45.75 43.05,-42.55"/>
</g>
<!-- node0x7fba206041f0 -->
<g id="node8" class="node">
<title>node0x7fba206041f0</title>
<ellipse fill="lightgreen" stroke="black" cx="99" cy="-18" rx="27" ry="18"/>
<text text-anchor="middle" x="99" y="-14.3" font-family="Times,serif" font-size="14.00">2</text>
</g>
<!-- node0x7fba205041c0&#45;&gt;node0x7fba206041f0 -->
<g id="edge7" class="edge">
<title>node0x7fba205041c0&#45;&gt;node0x7fba206041f0</title>
<path fill="none" stroke="black" d="M70.11,-75.17C74.63,-66.38 80.62,-54.75 85.96,-44.35"/>
<polygon fill="black" stroke="black" points="89.18,-45.75 90.64,-35.26 82.95,-42.55 89.18,-45.75"/>
</g>
<!-- node0x7fba20504460 -->
<g id="node11" class="node">
<title>node0x7fba20504460</title>
<ellipse fill="pink" stroke="black" cx="207" cy="-90" rx="27" ry="18"/>
<text text-anchor="middle" x="207" y="-86.3" font-family="Times,serif" font-size="14.00">x</text>
</g>
<!-- node0x7fba20504490&#45;&gt;node0x7fba20504460 -->
<g id="edge10" class="edge">
<title>node0x7fba20504490&#45;&gt;node0x7fba20504460</title>
<path fill="none" stroke="black" d="M207,-143.7C207,-135.98 207,-126.71 207,-118.11"/>
<polygon fill="black" stroke="black" points="210.5,-118.1 207,-108.1 203.5,-118.1 210.5,-118.1"/>
</g>
<!-- node0x7fba20504520 -->
<g id="node13" class="node">
<title>node0x7fba20504520</title>
<ellipse fill="pink" stroke="black" cx="261" cy="-234" rx="27" ry="18"/>
<text text-anchor="middle" x="261" y="-230.3" font-family="Times,serif" font-size="14.00">x</text>
</g>
<!-- node0x7fba20504700&#45;&gt;node0x7fba20504520 -->
<g id="edge12" class="edge">
<title>node0x7fba20504700&#45;&gt;node0x7fba20504520</title>
<path fill="none" stroke="black" d="M261,-287.7C261,-279.98 261,-270.71 261,-262.11"/>
<polygon fill="black" stroke="black" points="264.5,-262.1 261,-252.1 257.5,-262.1 264.5,-262.1"/>
</g>
<!-- node0x7fba205046d0 -->
<g id="node14" class="node">
<title>node0x7fba205046d0</title>
<polygon fill="aliceblue" stroke="black" points="306,-228.44 333,-216 360,-228.44 359.97,-248.56 306.03,-248.56 306,-228.44"/>
<text text-anchor="middle" x="333" y="-230.3" font-family="Times,serif" font-size="14.00">sin</text>
</g>
<!-- node0x7fba20504700&#45;&gt;node0x7fba205046d0 -->
<g id="edge13" class="edge">
<title>node0x7fba20504700&#45;&gt;node0x7fba205046d0</title>
<path fill="none" stroke="black" d="M272.89,-293.44C283.34,-283.28 298.81,-268.24 311.44,-255.96"/>
<polygon fill="black" stroke="black" points="314.14,-258.22 318.87,-248.74 309.26,-253.2 314.14,-258.22"/>
</g>
<!-- node0x7fba20504670 -->
<g id="node15" class="node">
<title>node0x7fba20504670</title>
<polygon fill="aliceblue" stroke="black" points="306,-156.44 333,-144 360,-156.44 359.97,-176.56 306.03,-176.56 306,-156.44"/>
<text text-anchor="middle" x="333" y="-158.3" font-family="Times,serif" font-size="14.00">+</text>
</g>
<!-- node0x7fba205046d0&#45;&gt;node0x7fba20504670 -->
<g id="edge14" class="edge">
<title>node0x7fba205046d0&#45;&gt;node0x7fba20504670</title>
<path fill="none" stroke="black" d="M333,-215.7C333,-206.99 333,-196.3 333,-186.83"/>
<polygon fill="black" stroke="black" points="336.5,-186.82 333,-176.82 329.5,-186.82 336.5,-186.82"/>
</g>
<!-- node0x7fba20504550 -->
<g id="node16" class="node">
<title>node0x7fba20504550</title>
<ellipse fill="pink" stroke="black" cx="315" cy="-90" rx="27" ry="18"/>
<text text-anchor="middle" x="315" y="-86.3" font-family="Times,serif" font-size="14.00">y</text>
</g>
<!-- node0x7fba20504670&#45;&gt;node0x7fba20504550 -->
<g id="edge15" class="edge">
<title>node0x7fba20504670&#45;&gt;node0x7fba20504550</title>
<path fill="none" stroke="black" d="M329.01,-145.46C326.91,-137.3 324.27,-127.07 321.86,-117.68"/>
<polygon fill="black" stroke="black" points="325.24,-116.78 319.36,-107.96 318.46,-118.52 325.24,-116.78"/>
</g>
<!-- node0x7fba20504640 -->
<g id="node17" class="node">
<title>node0x7fba20504640</title>
<polygon fill="aliceblue" stroke="black" points="360,-84.44 387,-72 414,-84.44 413.97,-104.56 360.03,-104.56 360,-84.44"/>
<text text-anchor="middle" x="387" y="-86.3" font-family="Times,serif" font-size="14.00">*</text>
</g>
<!-- node0x7fba20504670&#45;&gt;node0x7fba20504640 -->
<g id="edge16" class="edge">
<title>node0x7fba20504670&#45;&gt;node0x7fba20504640</title>
<path fill="none" stroke="black" d="M342.9,-148.16C350.55,-138.25 361.3,-124.32 370.27,-112.69"/>
<polygon fill="black" stroke="black" points="373.08,-114.77 376.42,-104.71 367.54,-110.49 373.08,-114.77"/>
</g>
<!-- node0x7fba205045e0 -->
<g id="node18" class="node">
<title>node0x7fba205045e0</title>
<ellipse fill="lightgreen" stroke="black" cx="351" cy="-18" rx="27" ry="18"/>
<text text-anchor="middle" x="351" y="-14.3" font-family="Times,serif" font-size="14.00">14</text>
</g>
<!-- node0x7fba20504640&#45;&gt;node0x7fba205045e0 -->
<g id="edge17" class="edge">
<title>node0x7fba20504640&#45;&gt;node0x7fba205045e0</title>
<path fill="none" stroke="black" d="M379.89,-75.17C375.37,-66.38 369.38,-54.75 364.04,-44.35"/>
<polygon fill="black" stroke="black" points="367.05,-42.55 359.36,-35.26 360.82,-45.75 367.05,-42.55"/>
</g>
<!-- node0x7fba20504610 -->
<g id="node19" class="node">
<title>node0x7fba20504610</title>
<ellipse fill="pink" stroke="black" cx="423" cy="-18" rx="27" ry="18"/>
<text text-anchor="middle" x="423" y="-14.3" font-family="Times,serif" font-size="14.00">x</text>
</g>
<!-- node0x7fba20504640&#45;&gt;node0x7fba20504610 -->
<g id="edge18" class="edge">
<title>node0x7fba20504640&#45;&gt;node0x7fba20504610</title>
<path fill="none" stroke="black" d="M394.11,-75.17C398.63,-66.38 404.62,-54.75 409.96,-44.35"/>
<polygon fill="black" stroke="black" points="413.18,-45.75 414.64,-35.26 406.95,-42.55 413.18,-45.75"/>
</g>
</g>
</svg>
