<?xml version="1.0" encoding="UTF-8" standalone="no"?>
<!DOCTYPE svg PUBLIC "-//W3C//DTD SVG 1.1//EN"
 "http://www.w3.org/Graphics/SVG/1.1/DTD/svg11.dtd">
<!-- Generated by graphviz version 2.44.1 (20200629.0846)
 -->
<!-- Title: expr Pages: 1 -->
<svg width="242pt" height="332pt"
 viewBox="0.00 0.00 242.00 332.00" xmlns="http://www.w3.org/2000/svg" xmlns:xlink="http://www.w3.org/1999/xlink">
<g id="graph0" class="graph" transform="scale(1 1) rotate(0) translate(4 328)">
<title>expr</title>
<polygon fill="white" stroke="transparent" points="-4,4 -4,-328 238,-328 238,4 -4,4"/>
<!-- node0x100844460 -->
<g id="node1" class="node">
<title>node0x100844460</title>
<polygon fill="aliceblue" stroke="black" points="144,-300.44 171,-288 198,-300.44 197.97,-320.56 144.03,-320.56 144,-300.44"/>
<text text-anchor="middle" x="171" y="-302.3" font-family="Times,serif" font-size="14.00">+</text>
</g>
<!-- node0x100844310 -->
<g id="node2" class="node">
<title>node0x100844310</title>
<polygon fill="aliceblue" stroke="black" points="108,-228.44 135,-216 162,-228.44 161.97,-248.56 108.03,-248.56 108,-228.44"/>
<text text-anchor="middle" x="135" y="-230.3" font-family="Times,serif" font-size="14.00">+</text>
</g>
<!-- node0x100844460&#45;&gt;node0x100844310 -->
<g id="edge1" class="edge">
<title>node0x100844460&#45;&gt;node0x100844310</title>
<path fill="none" stroke="black" d="M163.89,-291.17C159.01,-281.68 152.41,-268.86 146.76,-257.86"/>
<polygon fill="black" stroke="black" points="149.78,-256.09 142.1,-248.8 143.56,-259.29 149.78,-256.09"/>
</g>
<!-- node0x1008443f0 -->
<g id="node10" class="node">
<title>node0x1008443f0</title>
<polygon fill="aliceblue" stroke="black" points="180,-228.44 207,-216 234,-228.44 233.97,-248.56 180.03,-248.56 180,-228.44"/>
<text text-anchor="middle" x="207" y="-230.3" font-family="Times,serif" font-size="14.00">sin</text>
</g>
<!-- node0x100844460&#45;&gt;node0x1008443f0 -->
<g id="edge9" class="edge">
<title>node0x100844460&#45;&gt;node0x1008443f0</title>
<path fill="none" stroke="black" d="M178.11,-291.17C182.99,-281.68 189.59,-268.86 195.24,-257.86"/>
<polygon fill="black" stroke="black" points="198.44,-259.29 199.9,-248.8 192.22,-256.09 198.44,-259.29"/>
</g>
<!-- node0x100844000 -->
<g id="node3" class="node">
<title>node0x100844000</title>
<ellipse fill="pink" stroke="black" cx="63" cy="-162" rx="27" ry="18"/>
<text text-anchor="middle" x="63" y="-158.3" font-family="Times,serif" font-size="14.00">x</text>
</g>
<!-- node0x100844310&#45;&gt;node0x100844000 -->
<g id="edge2" class="edge">
<title>node0x100844310&#45;&gt;node0x100844000</title>
<path fill="none" stroke="black" d="M123.11,-221.44C112.79,-211.41 97.58,-196.62 85.04,-184.43"/>
<polygon fill="black" stroke="black" points="87.26,-181.7 77.65,-177.24 82.38,-186.72 87.26,-181.7"/>
</g>
<!-- node0x1008442a0 -->
<g id="node4" class="node">
<title>node0x1008442a0</title>
<polygon fill="aliceblue" stroke="black" points="108,-156.44 135,-144 162,-156.44 161.97,-176.56 108.03,-176.56 108,-156.44"/>
<text text-anchor="middle" x="135" y="-158.3" font-family="Times,serif" font-size="14.00">*</text>
</g>
<!-- node0x100844310&#45;&gt;node0x1008442a0 -->
<g id="edge3" class="edge">
<title>node0x100844310&#45;&gt;node0x1008442a0</title>
<path fill="none" stroke="black" d="M135,-215.7C135,-206.99 135,-196.3 135,-186.83"/>
<polygon fill="black" stroke="black" points="138.5,-186.82 135,-176.82 131.5,-186.82 138.5,-186.82"/>
</g>
<!-- node0x100844150 -->
<g id="node5" class="node">
<title>node0x100844150</title>
<polygon fill="aliceblue" stroke="black" points="71,-84.44 98,-72 125,-84.44 124.97,-104.56 71.03,-104.56 71,-84.44"/>
<text text-anchor="middle" x="98" y="-86.3" font-family="Times,serif" font-size="14.00">+</text>
</g>
<!-- node0x1008442a0&#45;&gt;node0x100844150 -->
<g id="edge4" class="edge">
<title>node0x1008442a0&#45;&gt;node0x100844150</title>
<path fill="none" stroke="black" d="M127.69,-147.17C122.67,-137.68 115.9,-124.86 110.09,-113.86"/>
<polygon fill="black" stroke="black" points="113.06,-112.01 105.29,-104.8 106.87,-115.28 113.06,-112.01"/>
</g>
<!-- node0x100844230 -->
<g id="node8" class="node">
<title>node0x100844230</title>
<polygon fill="aliceblue" stroke="black" points="142.76,-84.44 171,-72 199.24,-84.44 199.21,-104.56 142.79,-104.56 142.76,-84.44"/>
<text text-anchor="middle" x="171" y="-86.3" font-family="Times,serif" font-size="14.00">cos</text>
</g>
<!-- node0x1008442a0&#45;&gt;node0x100844230 -->
<g id="edge7" class="edge">
<title>node0x1008442a0&#45;&gt;node0x100844230</title>
<path fill="none" stroke="black" d="M142.11,-147.17C146.99,-137.68 153.59,-124.86 159.24,-113.86"/>
<polygon fill="black" stroke="black" points="162.44,-115.29 163.9,-104.8 156.22,-112.09 162.44,-115.29"/>
</g>
<!-- node0x100844070 -->
<g id="node6" class="node">
<title>node0x100844070</title>
<ellipse fill="pink" stroke="black" cx="27" cy="-18" rx="27" ry="18"/>
<text text-anchor="middle" x="27" y="-14.3" font-family="Times,serif" font-size="14.00">x</text>
</g>
<!-- node0x100844150&#45;&gt;node0x100844070 -->
<g id="edge5" class="edge">
<title>node0x100844150&#45;&gt;node0x100844070</title>
<path fill="none" stroke="black" d="M85.96,-77.13C75.8,-67.11 61.01,-52.53 48.78,-40.47"/>
<polygon fill="black" stroke="black" points="51.14,-37.89 41.56,-33.36 46.23,-42.87 51.14,-37.89"/>
</g>
<!-- node0x1008440e0 -->
<g id="node7" class="node">
<title>node0x1008440e0</title>
<ellipse fill="pink" stroke="black" cx="99" cy="-18" rx="27" ry="18"/>
<text text-anchor="middle" x="99" y="-14.3" font-family="Times,serif" font-size="14.00">y</text>
</g>
<!-- node0x100844150&#45;&gt;node0x1008440e0 -->
<g id="edge6" class="edge">
<title>node0x100844150&#45;&gt;node0x1008440e0</title>
<path fill="none" stroke="black" d="M98.24,-72.05C98.35,-64.35 98.49,-55.03 98.61,-46.36"/>
<polygon fill="black" stroke="black" points="102.11,-46.32 98.75,-36.28 95.11,-46.22 102.11,-46.32"/>
</g>
<!-- node0x1008441c0 -->
<g id="node9" class="node">
<title>node0x1008441c0</title>
<ellipse fill="pink" stroke="black" cx="171" cy="-18" rx="27" ry="18"/>
<text text-anchor="middle" x="171" y="-14.3" font-family="Times,serif" font-size="14.00">x</text>
</g>
<!-- node0x100844230&#45;&gt;node0x1008441c0 -->
<g id="edge8" class="edge">
<title>node0x100844230&#45;&gt;node0x1008441c0</title>
<path fill="none" stroke="black" d="M171,-71.7C171,-63.98 171,-54.71 171,-46.11"/>
<polygon fill="black" stroke="black" points="174.5,-46.1 171,-36.1 167.5,-46.1 174.5,-46.1"/>
</g>
<!-- node0x100844380 -->
<g id="node11" class="node">
<title>node0x100844380</title>
<ellipse fill="pink" stroke="black" cx="207" cy="-162" rx="27" ry="18"/>
<text text-anchor="middle" x="207" y="-158.3" font-family="Times,serif" font-size="14.00">y</text>
</g>
<!-- node0x1008443f0&#45;&gt;node0x100844380 -->
<g id="edge10" class="edge">
<title>node0x1008443f0&#45;&gt;node0x100844380</title>
<path fill="none" stroke="black" d="M207,-215.7C207,-207.98 207,-198.71 207,-190.11"/>
<polygon fill="black" stroke="black" points="210.5,-190.1 207,-180.1 203.5,-190.1 210.5,-190.1"/>
</g>
</g>
</svg>
