<?xml version="1.0" encoding="UTF-8" standalone="no"?>
<!DOCTYPE svg PUBLIC "-//W3C//DTD SVG 1.1//EN"
 "http://www.w3.org/Graphics/SVG/1.1/DTD/svg11.dtd">
<!-- Generated by graphviz version 2.44.1 (20200629.0846)
 -->
<!-- Title: expr Pages: 1 -->
<svg width="350pt" height="404pt"
 viewBox="0.00 0.00 350.00 404.00" xmlns="http://www.w3.org/2000/svg" xmlns:xlink="http://www.w3.org/1999/xlink">
<g id="graph0" class="graph" transform="scale(1 1) rotate(0) translate(4 400)">
<title>expr</title>
<polygon fill="white" stroke="transparent" points="-4,4 -4,-400 346,-400 346,4 -4,4"/>
<!-- node0x7fb73dc06010 -->
<g id="node1" class="node">
<title>node0x7fb73dc06010</title>
<polygon fill="aliceblue" stroke="black" points="252,-372.44 279,-360 306,-372.44 305.97,-392.56 252.03,-392.56 252,-372.44"/>
<text text-anchor="middle" x="279" y="-374.3" font-family="Times,serif" font-size="14.00">&#45;</text>
</g>
<!-- node0x7fb73dc05fb0 -->
<g id="node2" class="node">
<title>node0x7fb73dc05fb0</title>
<polygon fill="aliceblue" stroke="black" points="216,-300.44 243,-288 270,-300.44 269.97,-320.56 216.03,-320.56 216,-300.44"/>
<text text-anchor="middle" x="243" y="-302.3" font-family="Times,serif" font-size="14.00">+</text>
</g>
<!-- node0x7fb73dc06010&#45;&gt;node0x7fb73dc05fb0 -->
<g id="edge1" class="edge">
<title>node0x7fb73dc06010&#45;&gt;node0x7fb73dc05fb0</title>
<path fill="none" stroke="black" d="M271.89,-363.17C267.01,-353.68 260.41,-340.86 254.76,-329.86"/>
<polygon fill="black" stroke="black" points="257.78,-328.09 250.1,-320.8 251.56,-331.29 257.78,-328.09"/>
</g>
<!-- node0x7fb73dc05fe0 -->
<g id="node15" class="node">
<title>node0x7fb73dc05fe0</title>
<ellipse fill="pink" stroke="black" cx="315" cy="-306" rx="27" ry="18"/>
<text text-anchor="middle" x="315" y="-302.3" font-family="Times,serif" font-size="14.00">y</text>
</g>
<!-- node0x7fb73dc06010&#45;&gt;node0x7fb73dc05fe0 -->
<g id="edge14" class="edge">
<title>node0x7fb73dc06010&#45;&gt;node0x7fb73dc05fe0</title>
<path fill="none" stroke="black" d="M286.11,-363.17C290.63,-354.38 296.62,-342.75 301.96,-332.35"/>
<polygon fill="black" stroke="black" points="305.18,-333.75 306.64,-323.26 298.95,-330.55 305.18,-333.75"/>
</g>
<!-- node0x7fb73dc05f50 -->
<g id="node3" class="node">
<title>node0x7fb73dc05f50</title>
<polygon fill="aliceblue" stroke="black" points="180,-228.44 207,-216 234,-228.44 233.97,-248.56 180.03,-248.56 180,-228.44"/>
<text text-anchor="middle" x="207" y="-230.3" font-family="Times,serif" font-size="14.00">&#45;</text>
</g>
<!-- node0x7fb73dc05fb0&#45;&gt;node0x7fb73dc05f50 -->
<g id="edge2" class="edge">
<title>node0x7fb73dc05fb0&#45;&gt;node0x7fb73dc05f50</title>
<path fill="none" stroke="black" d="M235.89,-291.17C231.01,-281.68 224.41,-268.86 218.76,-257.86"/>
<polygon fill="black" stroke="black" points="221.78,-256.09 214.1,-248.8 215.56,-259.29 221.78,-256.09"/>
</g>
<!-- node0x7fb73dc05f80 -->
<g id="node14" class="node">
<title>node0x7fb73dc05f80</title>
<ellipse fill="pink" stroke="black" cx="279" cy="-234" rx="27" ry="18"/>
<text text-anchor="middle" x="279" y="-230.3" font-family="Times,serif" font-size="14.00">x</text>
</g>
<!-- node0x7fb73dc05fb0&#45;&gt;node0x7fb73dc05f80 -->
<g id="edge13" class="edge">
<title>node0x7fb73dc05fb0&#45;&gt;node0x7fb73dc05f80</title>
<path fill="none" stroke="black" d="M250.11,-291.17C254.63,-282.38 260.62,-270.75 265.96,-260.35"/>
<polygon fill="black" stroke="black" points="269.18,-261.75 270.64,-251.26 262.95,-258.55 269.18,-261.75"/>
</g>
<!-- node0x7fb73dc05e90 -->
<g id="node4" class="node">
<title>node0x7fb73dc05e90</title>
<polygon fill="aliceblue" stroke="black" points="144,-156.44 171,-144 198,-156.44 197.97,-176.56 144.03,-176.56 144,-156.44"/>
<text text-anchor="middle" x="171" y="-158.3" font-family="Times,serif" font-size="14.00">+</text>
</g>
<!-- node0x7fb73dc05f50&#45;&gt;node0x7fb73dc05e90 -->
<g id="edge3" class="edge">
<title>node0x7fb73dc05f50&#45;&gt;node0x7fb73dc05e90</title>
<path fill="none" stroke="black" d="M199.89,-219.17C195.01,-209.68 188.41,-196.86 182.76,-185.86"/>
<polygon fill="black" stroke="black" points="185.78,-184.09 178.1,-176.8 179.56,-187.29 185.78,-184.09"/>
</g>
<!-- node0x7fb73dc05f20 -->
<g id="node11" class="node">
<title>node0x7fb73dc05f20</title>
<polygon fill="aliceblue" stroke="black" points="216,-156.44 243,-144 270,-156.44 269.97,-176.56 216.03,-176.56 216,-156.44"/>
<text text-anchor="middle" x="243" y="-158.3" font-family="Times,serif" font-size="14.00">*</text>
</g>
<!-- node0x7fb73dc05f50&#45;&gt;node0x7fb73dc05f20 -->
<g id="edge10" class="edge">
<title>node0x7fb73dc05f50&#45;&gt;node0x7fb73dc05f20</title>
<path fill="none" stroke="black" d="M214.11,-219.17C218.99,-209.68 225.59,-196.86 231.24,-185.86"/>
<polygon fill="black" stroke="black" points="234.44,-187.29 235.9,-176.8 228.22,-184.09 234.44,-187.29"/>
</g>
<!-- node0x7fb73dc05920 -->
<g id="node5" class="node">
<title>node0x7fb73dc05920</title>
<polygon fill="aliceblue" stroke="black" points="72,-84.44 99,-72 126,-84.44 125.97,-104.56 72.03,-104.56 72,-84.44"/>
<text text-anchor="middle" x="99" y="-86.3" font-family="Times,serif" font-size="14.00">^</text>
</g>
<!-- node0x7fb73dc05e90&#45;&gt;node0x7fb73dc05920 -->
<g id="edge4" class="edge">
<title>node0x7fb73dc05e90&#45;&gt;node0x7fb73dc05920</title>
<path fill="none" stroke="black" d="M159.11,-149.44C148.66,-139.28 133.19,-124.24 120.56,-111.96"/>
<polygon fill="black" stroke="black" points="122.74,-109.2 113.13,-104.74 117.86,-114.22 122.74,-109.2"/>
</g>
<!-- node0x7fb73dc05e60 -->
<g id="node8" class="node">
<title>node0x7fb73dc05e60</title>
<polygon fill="aliceblue" stroke="black" points="144,-84.44 171,-72 198,-84.44 197.97,-104.56 144.03,-104.56 144,-84.44"/>
<text text-anchor="middle" x="171" y="-86.3" font-family="Times,serif" font-size="14.00">^</text>
</g>
<!-- node0x7fb73dc05e90&#45;&gt;node0x7fb73dc05e60 -->
<g id="edge7" class="edge">
<title>node0x7fb73dc05e90&#45;&gt;node0x7fb73dc05e60</title>
<path fill="none" stroke="black" d="M171,-143.7C171,-134.99 171,-124.3 171,-114.83"/>
<polygon fill="black" stroke="black" points="174.5,-114.82 171,-104.82 167.5,-114.82 174.5,-114.82"/>
</g>
<!-- node0x7fb73dc058c0 -->
<g id="node6" class="node">
<title>node0x7fb73dc058c0</title>
<ellipse fill="pink" stroke="black" cx="27" cy="-18" rx="27" ry="18"/>
<text text-anchor="middle" x="27" y="-14.3" font-family="Times,serif" font-size="14.00">x</text>
</g>
<!-- node0x7fb73dc05920&#45;&gt;node0x7fb73dc058c0 -->
<g id="edge5" class="edge">
<title>node0x7fb73dc05920&#45;&gt;node0x7fb73dc058c0</title>
<path fill="none" stroke="black" d="M87.11,-77.44C76.79,-67.41 61.58,-52.62 49.04,-40.43"/>
<polygon fill="black" stroke="black" points="51.26,-37.7 41.65,-33.24 46.38,-42.72 51.26,-37.7"/>
</g>
<!-- node0x7fb73dc058f0 -->
<g id="node7" class="node">
<title>node0x7fb73dc058f0</title>
<ellipse fill="lightgreen" stroke="black" cx="99" cy="-18" rx="27" ry="18"/>
<text text-anchor="middle" x="99" y="-14.3" font-family="Times,serif" font-size="14.00">2</text>
</g>
<!-- node0x7fb73dc05920&#45;&gt;node0x7fb73dc058f0 -->
<g id="edge6" class="edge">
<title>node0x7fb73dc05920&#45;&gt;node0x7fb73dc058f0</title>
<path fill="none" stroke="black" d="M99,-71.7C99,-63.98 99,-54.71 99,-46.11"/>
<polygon fill="black" stroke="black" points="102.5,-46.1 99,-36.1 95.5,-46.1 102.5,-46.1"/>
</g>
<!-- node0x7fb73dc05950 -->
<g id="node9" class="node">
<title>node0x7fb73dc05950</title>
<ellipse fill="pink" stroke="black" cx="171" cy="-18" rx="27" ry="18"/>
<text text-anchor="middle" x="171" y="-14.3" font-family="Times,serif" font-size="14.00">y</text>
</g>
<!-- node0x7fb73dc05e60&#45;&gt;node0x7fb73dc05950 -->
<g id="edge8" class="edge">
<title>node0x7fb73dc05e60&#45;&gt;node0x7fb73dc05950</title>
<path fill="none" stroke="black" d="M171,-71.7C171,-63.98 171,-54.71 171,-46.11"/>
<polygon fill="black" stroke="black" points="174.5,-46.1 171,-36.1 167.5,-46.1 174.5,-46.1"/>
</g>
<!-- node0x7fb73dc05e30 -->
<g id="node10" class="node">
<title>node0x7fb73dc05e30</title>
<ellipse fill="lightgreen" stroke="black" cx="243" cy="-18" rx="27" ry="18"/>
<text text-anchor="middle" x="243" y="-14.3" font-family="Times,serif" font-size="14.00">2</text>
</g>
<!-- node0x7fb73dc05e60&#45;&gt;node0x7fb73dc05e30 -->
<g id="edge9" class="edge">
<title>node0x7fb73dc05e60&#45;&gt;node0x7fb73dc05e30</title>
<path fill="none" stroke="black" d="M182.89,-77.44C193.21,-67.41 208.42,-52.62 220.96,-40.43"/>
<polygon fill="black" stroke="black" points="223.62,-42.72 228.35,-33.24 218.74,-37.7 223.62,-42.72"/>
</g>
<!-- node0x7fb73dc05ec0 -->
<g id="node12" class="node">
<title>node0x7fb73dc05ec0</title>
<ellipse fill="pink" stroke="black" cx="243" cy="-90" rx="27" ry="18"/>
<text text-anchor="middle" x="243" y="-86.3" font-family="Times,serif" font-size="14.00">x</text>
</g>
<!-- node0x7fb73dc05f20&#45;&gt;node0x7fb73dc05ec0 -->
<g id="edge11" class="edge">
<title>node0x7fb73dc05f20&#45;&gt;node0x7fb73dc05ec0</title>
<path fill="none" stroke="black" d="M243,-143.7C243,-135.98 243,-126.71 243,-118.11"/>
<polygon fill="black" stroke="black" points="246.5,-118.1 243,-108.1 239.5,-118.1 246.5,-118.1"/>
</g>
<!-- node0x7fb73dc05ef0 -->
<g id="node13" class="node">
<title>node0x7fb73dc05ef0</title>
<ellipse fill="pink" stroke="black" cx="315" cy="-90" rx="27" ry="18"/>
<text text-anchor="middle" x="315" y="-86.3" font-family="Times,serif" font-size="14.00">y</text>
</g>
<!-- node0x7fb73dc05f20&#45;&gt;node0x7fb73dc05ef0 -->
<g id="edge12" class="edge">
<title>node0x7fb73dc05f20&#45;&gt;node0x7fb73dc05ef0</title>
<path fill="none" stroke="black" d="M254.89,-149.44C265.21,-139.41 280.42,-124.62 292.96,-112.43"/>
<polygon fill="black" stroke="black" points="295.62,-114.72 300.35,-105.24 290.74,-109.7 295.62,-114.72"/>
</g>
</g>
</svg>
