<?xml version="1.0" encoding="UTF-8" standalone="no"?>
<!DOCTYPE svg PUBLIC "-//W3C//DTD SVG 1.1//EN"
 "http://www.w3.org/Graphics/SVG/1.1/DTD/svg11.dtd">
<!-- Generated by graphviz version 2.44.1 (20200629.0846)
 -->
<!-- Title: expr Pages: 1 -->
<svg width="458pt" height="476pt"
 viewBox="0.00 0.00 458.00 476.00" xmlns="http://www.w3.org/2000/svg" xmlns:xlink="http://www.w3.org/1999/xlink">
<g id="graph0" class="graph" transform="scale(1 1) rotate(0) translate(4 472)">
<title>expr</title>
<polygon fill="white" stroke="transparent" points="-4,4 -4,-472 454,-472 454,4 -4,4"/>
<!-- node0x7fba20504730 -->
<g id="node1" class="node">
<title>node0x7fba20504730</title>
<polygon fill="aliceblue" stroke="black" points="198,-444.44 225,-432 252,-444.44 251.97,-464.56 198.03,-464.56 198,-444.44"/>
<text text-anchor="middle" x="225" y="-446.3" font-family="Times,serif" font-size="14.00">+</text>
</g>
<!-- node0x7fba205044f0 -->
<g id="node2" class="node">
<title>node0x7fba205044f0</title>
<polygon fill="aliceblue" stroke="black" points="162,-372.44 189,-360 216,-372.44 215.97,-392.56 162.03,-392.56 162,-372.44"/>
<text text-anchor="middle" x="189" y="-374.3" font-family="Times,serif" font-size="14.00">+</text>
</g>
<!-- node0x7fba20504730&#45;&gt;node0x7fba205044f0 -->
<g id="edge1" class="edge">
<title>node0x7fba20504730&#45;&gt;node0x7fba205044f0</title>
<path fill="none" stroke="black" d="M217.89,-435.17C213.01,-425.68 206.41,-412.86 200.76,-401.86"/>
<polygon fill="black" stroke="black" points="203.78,-400.09 196.1,-392.8 197.56,-403.29 203.78,-400.09"/>
</g>
<!-- node0x7fba20504700 -->
<g id="node12" class="node">
<title>node0x7fba20504700</title>
<polygon fill="aliceblue" stroke="black" points="234,-372.44 261,-360 288,-372.44 287.97,-392.56 234.03,-392.56 234,-372.44"/>
<text text-anchor="middle" x="261" y="-374.3" font-family="Times,serif" font-size="14.00">*</text>
</g>
<!-- node0x7fba20504730&#45;&gt;node0x7fba20504700 -->
<g id="edge11" class="edge">
<title>node0x7fba20504730&#45;&gt;node0x7fba20504700</title>
<path fill="none" stroke="black" d="M232.11,-435.17C236.99,-425.68 243.59,-412.86 249.24,-401.86"/>
<polygon fill="black" stroke="black" points="252.44,-403.29 253.9,-392.8 246.22,-400.09 252.44,-403.29"/>
</g>
<!-- node0x7fba20504130 -->
<g id="node3" class="node">
<title>node0x7fba20504130</title>
<ellipse fill="pink" stroke="black" cx="117" cy="-306" rx="27" ry="18"/>
<text text-anchor="middle" x="117" y="-302.3" font-family="Times,serif" font-size="14.00">x</text>
</g>
<!-- node0x7fba205044f0&#45;&gt;node0x7fba20504130 -->
<g id="edge2" class="edge">
<title>node0x7fba205044f0&#45;&gt;node0x7fba20504130</title>
<path fill="none" stroke="black" d="M177.11,-365.44C166.79,-355.41 151.58,-340.62 139.04,-328.43"/>
<polygon fill="black" stroke="black" points="141.26,-325.7 131.65,-321.24 136.38,-330.72 141.26,-325.7"/>
</g>
<!-- node0x7fba205044c0 -->
<g id="node4" class="node">
<title>node0x7fba205044c0</title>
<polygon fill="aliceblue" stroke="black" points="162,-300.44 189,-288 216,-300.44 215.97,-320.56 162.03,-320.56 162,-300.44"/>
<text text-anchor="middle" x="189" y="-302.3" font-family="Times,serif" font-size="14.00">*</text>
</g>
<!-- node0x7fba205044f0&#45;&gt;node0x7fba205044c0 -->
<g id="edge3" class="edge">
<title>node0x7fba205044f0&#45;&gt;node0x7fba205044c0</title>
<path fill="none" stroke="black" d="M189,-359.7C189,-350.99 189,-340.3 189,-330.83"/>
<polygon fill="black" stroke="black" points="192.5,-330.82 189,-320.82 185.5,-330.82 192.5,-330.82"/>
</g>
<!-- node0x7fba20504430 -->
<g id="node5" class="node">
<title>node0x7fba20504430</title>
<polygon fill="aliceblue" stroke="black" points="107,-228.44 134,-216 161,-228.44 160.97,-248.56 107.03,-248.56 107,-228.44"/>
<text text-anchor="middle" x="134" y="-230.3" font-family="Times,serif" font-size="14.00">+</text>
</g>
<!-- node0x7fba205044c0&#45;&gt;node0x7fba20504430 -->
<g id="edge4" class="edge">
<title>node0x7fba205044c0&#45;&gt;node0x7fba20504430</title>
<path fill="none" stroke="black" d="M179.17,-292.49C171.41,-282.61 160.4,-268.6 151.19,-256.88"/>
<polygon fill="black" stroke="black" points="153.81,-254.55 144.88,-248.85 148.3,-258.87 153.81,-254.55"/>
</g>
<!-- node0x7fba20504490 -->
<g id="node10" class="node">
<title>node0x7fba20504490</title>
<polygon fill="aliceblue" stroke="black" points="178.76,-228.44 207,-216 235.24,-228.44 235.21,-248.56 178.79,-248.56 178.76,-228.44"/>
<text text-anchor="middle" x="207" y="-230.3" font-family="Times,serif" font-size="14.00">cos</text>
</g>
<!-- node0x7fba205044c0&#45;&gt;node0x7fba20504490 -->
<g id="edge9" class="edge">
<title>node0x7fba205044c0&#45;&gt;node0x7fba20504490</title>
<path fill="none" stroke="black" d="M192.99,-289.46C195.33,-280.38 198.33,-268.72 200.95,-258.53"/>
<polygon fill="black" stroke="black" points="204.4,-259.16 203.5,-248.6 197.62,-257.41 204.4,-259.16"/>
</g>
<!-- node0x7fba205041c0 -->
<g id="node6" class="node">
<title>node0x7fba205041c0</title>
<polygon fill="aliceblue" stroke="black" points="36,-156.44 63,-144 90,-156.44 89.97,-176.56 36.03,-176.56 36,-156.44"/>
<text text-anchor="middle" x="63" y="-158.3" font-family="Times,serif" font-size="14.00">*</text>
</g>
<!-- node0x7fba20504430&#45;&gt;node0x7fba205041c0 -->
<g id="edge5" class="edge">
<title>node0x7fba20504430&#45;&gt;node0x7fba205041c0</title>
<path fill="none" stroke="black" d="M121.96,-221.13C111.6,-210.92 96.43,-195.96 84.07,-183.78"/>
<polygon fill="black" stroke="black" points="86.39,-181.14 76.81,-176.61 81.47,-186.13 86.39,-181.14"/>
</g>
<!-- node0x7fba205041f0 -->
<g id="node9" class="node">
<title>node0x7fba205041f0</title>
<ellipse fill="pink" stroke="black" cx="135" cy="-162" rx="27" ry="18"/>
<text text-anchor="middle" x="135" y="-158.3" font-family="Times,serif" font-size="14.00">y</text>
</g>
<!-- node0x7fba20504430&#45;&gt;node0x7fba205041f0 -->
<g id="edge8" class="edge">
<title>node0x7fba20504430&#45;&gt;node0x7fba205041f0</title>
<path fill="none" stroke="black" d="M134.24,-216.05C134.35,-208.35 134.49,-199.03 134.61,-190.36"/>
<polygon fill="black" stroke="black" points="138.11,-190.32 134.75,-180.28 131.11,-190.22 138.11,-190.32"/>
</g>
<!-- node0x7fba20504160 -->
<g id="node7" class="node">
<title>node0x7fba20504160</title>
<ellipse fill="pink" stroke="black" cx="27" cy="-90" rx="27" ry="18"/>
<text text-anchor="middle" x="27" y="-86.3" font-family="Times,serif" font-size="14.00">x</text>
</g>
<!-- node0x7fba205041c0&#45;&gt;node0x7fba20504160 -->
<g id="edge6" class="edge">
<title>node0x7fba205041c0&#45;&gt;node0x7fba20504160</title>
<path fill="none" stroke="black" d="M55.89,-147.17C51.37,-138.38 45.38,-126.75 40.04,-116.35"/>
<polygon fill="black" stroke="black" points="43.05,-114.55 35.36,-107.26 36.82,-117.75 43.05,-114.55"/>
</g>
<!-- node0x7fba20504190 -->
<g id="node8" class="node">
<title>node0x7fba20504190</title>
<ellipse fill="pink" stroke="black" cx="99" cy="-90" rx="27" ry="18"/>
<text text-anchor="middle" x="99" y="-86.3" font-family="Times,serif" font-size="14.00">x</text>
</g>
<!-- node0x7fba205041c0&#45;&gt;node0x7fba20504190 -->
<g id="edge7" class="edge">
<title>node0x7fba205041c0&#45;&gt;node0x7fba20504190</title>
<path fill="none" stroke="black" d="M70.11,-147.17C74.63,-138.38 80.62,-126.75 85.96,-116.35"/>
<polygon fill="black" stroke="black" points="89.18,-117.75 90.64,-107.26 82.95,-114.55 89.18,-117.75"/>
</g>
<!-- node0x7fba20504460 -->
<g id="node11" class="node">
<title>node0x7fba20504460</title>
<ellipse fill="pink" stroke="black" cx="207" cy="-162" rx="27" ry="18"/>
<text text-anchor="middle" x="207" y="-158.3" font-family="Times,serif" font-size="14.00">x</text>
</g>
<!-- node0x7fba20504490&#45;&gt;node0x7fba20504460 -->
<g id="edge10" class="edge">
<title>node0x7fba20504490&#45;&gt;node0x7fba20504460</title>
<path fill="none" stroke="black" d="M207,-215.7C207,-207.98 207,-198.71 207,-190.11"/>
<polygon fill="black" stroke="black" points="210.5,-190.1 207,-180.1 203.5,-190.1 210.5,-190.1"/>
</g>
<!-- node0x7fba20504520 -->
<g id="node13" class="node">
<title>node0x7fba20504520</title>
<ellipse fill="pink" stroke="black" cx="261" cy="-306" rx="27" ry="18"/>
<text text-anchor="middle" x="261" y="-302.3" font-family="Times,serif" font-size="14.00">x</text>
</g>
<!-- node0x7fba20504700&#45;&gt;node0x7fba20504520 -->
<g id="edge12" class="edge">
<title>node0x7fba20504700&#45;&gt;node0x7fba20504520</title>
<path fill="none" stroke="black" d="M261,-359.7C261,-351.98 261,-342.71 261,-334.11"/>
<polygon fill="black" stroke="black" points="264.5,-334.1 261,-324.1 257.5,-334.1 264.5,-334.1"/>
</g>
<!-- node0x7fba205046d0 -->
<g id="node14" class="node">
<title>node0x7fba205046d0</title>
<polygon fill="aliceblue" stroke="black" points="306,-300.44 333,-288 360,-300.44 359.97,-320.56 306.03,-320.56 306,-300.44"/>
<text text-anchor="middle" x="333" y="-302.3" font-family="Times,serif" font-size="14.00">sin</text>
</g>
<!-- node0x7fba20504700&#45;&gt;node0x7fba205046d0 -->
<g id="edge13" class="edge">
<title>node0x7fba20504700&#45;&gt;node0x7fba205046d0</title>
<path fill="none" stroke="black" d="M272.89,-365.44C283.34,-355.28 298.81,-340.24 311.44,-327.96"/>
<polygon fill="black" stroke="black" points="314.14,-330.22 318.87,-320.74 309.26,-325.2 314.14,-330.22"/>
</g>
<!-- node0x7fba20504670 -->
<g id="node15" class="node">
<title>node0x7fba20504670</title>
<polygon fill="aliceblue" stroke="black" points="306,-228.44 333,-216 360,-228.44 359.97,-248.56 306.03,-248.56 306,-228.44"/>
<text text-anchor="middle" x="333" y="-230.3" font-family="Times,serif" font-size="14.00">+</text>
</g>
<!-- node0x7fba205046d0&#45;&gt;node0x7fba20504670 -->
<g id="edge14" class="edge">
<title>node0x7fba205046d0&#45;&gt;node0x7fba20504670</title>
<path fill="none" stroke="black" d="M333,-287.7C333,-278.99 333,-268.3 333,-258.83"/>
<polygon fill="black" stroke="black" points="336.5,-258.82 333,-248.82 329.5,-258.82 336.5,-258.82"/>
</g>
<!-- node0x7fba20504550 -->
<g id="node16" class="node">
<title>node0x7fba20504550</title>
<ellipse fill="pink" stroke="black" cx="315" cy="-162" rx="27" ry="18"/>
<text text-anchor="middle" x="315" y="-158.3" font-family="Times,serif" font-size="14.00">y</text>
</g>
<!-- node0x7fba20504670&#45;&gt;node0x7fba20504550 -->
<g id="edge15" class="edge">
<title>node0x7fba20504670&#45;&gt;node0x7fba20504550</title>
<path fill="none" stroke="black" d="M329.01,-217.46C326.91,-209.3 324.27,-199.07 321.86,-189.68"/>
<polygon fill="black" stroke="black" points="325.24,-188.78 319.36,-179.96 318.46,-190.52 325.24,-188.78"/>
</g>
<!-- node0x7fba20504640 -->
<g id="node17" class="node">
<title>node0x7fba20504640</title>
<polygon fill="aliceblue" stroke="black" points="360,-156.44 387,-144 414,-156.44 413.97,-176.56 360.03,-176.56 360,-156.44"/>
<text text-anchor="middle" x="387" y="-158.3" font-family="Times,serif" font-size="14.00">*</text>
</g>
<!-- node0x7fba20504670&#45;&gt;node0x7fba20504640 -->
<g id="edge16" class="edge">
<title>node0x7fba20504670&#45;&gt;node0x7fba20504640</title>
<path fill="none" stroke="black" d="M342.9,-220.16C350.55,-210.25 361.3,-196.32 370.27,-184.69"/>
<polygon fill="black" stroke="black" points="373.08,-186.77 376.42,-176.71 367.54,-182.49 373.08,-186.77"/>
</g>
<!-- node0x7fba205045e0 -->
<g id="node18" class="node">
<title>node0x7fba205045e0</title>
<polygon fill="aliceblue" stroke="black" points="324,-84.44 351,-72 378,-84.44 377.97,-104.56 324.03,-104.56 324,-84.44"/>
<text text-anchor="middle" x="351" y="-86.3" font-family="Times,serif" font-size="14.00">+</text>
</g>
<!-- node0x7fba20504640&#45;&gt;node0x7fba205045e0 -->
<g id="edge17" class="edge">
<title>node0x7fba20504640&#45;&gt;node0x7fba205045e0</title>
<path fill="none" stroke="black" d="M379.89,-147.17C375.01,-137.68 368.41,-124.86 362.76,-113.86"/>
<polygon fill="black" stroke="black" points="365.78,-112.09 358.1,-104.8 359.56,-115.29 365.78,-112.09"/>
</g>
<!-- node0x7fba20504610 -->
<g id="node21" class="node">
<title>node0x7fba20504610</title>
<ellipse fill="pink" stroke="black" cx="423" cy="-90" rx="27" ry="18"/>
<text text-anchor="middle" x="423" y="-86.3" font-family="Times,serif" font-size="14.00">x</text>
</g>
<!-- node0x7fba20504640&#45;&gt;node0x7fba20504610 -->
<g id="edge20" class="edge">
<title>node0x7fba20504640&#45;&gt;node0x7fba20504610</title>
<path fill="none" stroke="black" d="M394.11,-147.17C398.63,-138.38 404.62,-126.75 409.96,-116.35"/>
<polygon fill="black" stroke="black" points="413.18,-117.75 414.64,-107.26 406.95,-114.55 413.18,-117.75"/>
</g>
<!-- node0x7fba20504580 -->
<g id="node19" class="node">
<title>node0x7fba20504580</title>
<ellipse fill="lightgreen" stroke="black" cx="315" cy="-18" rx="27" ry="18"/>
<text text-anchor="middle" x="315" y="-14.3" font-family="Times,serif" font-size="14.00">2</text>
</g>
<!-- node0x7fba205045e0&#45;&gt;node0x7fba20504580 -->
<g id="edge18" class="edge">
<title>node0x7fba205045e0&#45;&gt;node0x7fba20504580</title>
<path fill="none" stroke="black" d="M343.89,-75.17C339.37,-66.38 333.38,-54.75 328.04,-44.35"/>
<polygon fill="black" stroke="black" points="331.05,-42.55 323.36,-35.26 324.82,-45.75 331.05,-42.55"/>
</g>
<!-- node0x7fba205045b0 -->
<g id="node20" class="node">
<title>node0x7fba205045b0</title>
<ellipse fill="lightgreen" stroke="black" cx="387" cy="-18" rx="27" ry="18"/>
<text text-anchor="middle" x="387" y="-14.3" font-family="Times,serif" font-size="14.00">12</text>
</g>
<!-- node0x7fba205045e0&#45;&gt;node0x7fba205045b0 -->
<g id="edge19" class="edge">
<title>node0x7fba205045e0&#45;&gt;node0x7fba205045b0</title>
<path fill="none" stroke="black" d="M358.11,-75.17C362.63,-66.38 368.62,-54.75 373.96,-44.35"/>
<polygon fill="black" stroke="black" points="377.18,-45.75 378.64,-35.26 370.95,-42.55 377.18,-45.75"/>
</g>
</g>
</svg>
